<svg id="publicdomainvectors.org" xmlns="http://www.w3.org/2000/svg" viewBox="0 0 1135.87 620.03">
  <defs>
    <style>
      .cls-1 {
        fill: #4c8ecc;
      }

      .cls-1, .cls-2, .cls-3, .cls-4, .cls-5, .cls-6, .cls-7, .cls-8 {
        fill-rule: evenodd;
      }

      .cls-2 {
        fill: #fff;
      }

      .cls-3 {
        fill: #215b8f;
      }

      .cls-4 {
        fill: #edf5fd;
      }

      .cls-5 {
        fill: #cae1f6;
      }

      .cls-6 {
        fill: #7aa5d5;
      }

      .cls-7 {
        fill: #b1cfee;
      }

      .cls-8 {
        fill: #456b97;
      }
    </style>
  </defs>
  <path class="cls-1" d="M475.87,348.65l87.81-125.08L611,290.92l36.08-51.38,70.35,100.2,53.93-76.82,38.09,54.26,104.12-148.3,80.87,115.19,53.68-76.46,60.19,85.73,27.59,39.05V489.65h-660Z"/>
  <polygon class="cls-2" points="519.78 286.11 548.3 268.54 545.29 288.35 561.34 277.62 574.89 298.66 578.4 277.21 601.94 278.06 563.68 223.57 519.78 286.11"/>
  <polygon class="cls-2" points="619.78 278.38 636.85 270.4 643.12 280.51 648.39 268.75 677.62 283.08 647.05 239.54 619.78 278.38"/>
  <polygon class="cls-2" points="753.85 287.83 761.53 283.4 773.07 293.92 780.35 287.52 789.21 288.39 771.33 262.92 753.85 287.83"/>
  <polygon class="cls-2" points="842.13 270.61 888.72 248.94 911.8 275.76 927.86 260.91 940.9 271.64 955.45 260.08 982.13 266.58 913.54 168.88 842.13 270.61"/>
  <polygon class="cls-2" points="1010.77 260.76 1030.21 250.39 1039.74 257.61 1053.54 249.97 1067.84 261.53 1075.62 258.43 1082.93 257.23 1048.09 207.61 1010.77 260.76"/>
  <polygon class="cls-3" points="734.33 438.96 703.08 403.26 716.13 390.88 675.99 338.07 690.03 383.45 669.97 410.69 676.94 435.19 734.33 438.96 734.33 438.96"/>
  <polygon class="cls-3" points="786.99 374.29 756.44 342.1 777.33 316.66 771.05 342.61 786.99 374.29 786.99 374.29"/>
  <polygon class="cls-3" points="974.02 375 985.06 341.16 947.43 327.13 932.88 301.14 925.35 336.21 961.48 352.3 974.02 375 974.02 375"/>
  <polygon class="cls-3" points="1003.12 299.49 1118.62 464.01 1135.87 465.36 1135.87 464.85 1135.8 391.09 1071.35 368.81 1076.37 341.58 1003.12 299.49 1003.12 299.49"/>
  <polygon class="cls-3" points="504.3 423.85 530.49 382.01 521.46 359.32 555.57 321.77 541.53 357.67 561.09 388.2 585.68 381.19 571.13 405.53 616.24 431.2 504.3 423.85 504.3 423.85"/>
  <polygon class="cls-3" points="901.74 449.97 829.52 344.88 871.66 354.78 883.7 384.9 922.84 398.1 932.87 415.02 1005.08 456.76 901.74 449.97 901.74 449.97"/>
  <polygon class="cls-3" points="730.68 360.14 753.76 380.77 755.26 399.75 730.68 360.14"/>
  <g>
    <polygon class="cls-4" points="488.06 386.3 491.6 407.65 495.13 429 488.06 429 481 429 484.53 407.65 488.06 386.3"/>
    <polygon class="cls-4" points="496.88 387.79 500.41 409.14 503.94 430.5 496.88 430.5 489.81 430.5 493.34 409.14 496.88 387.79"/>
    <polygon class="cls-4" points="503.63 392.12 507.17 413.48 510.7 434.83 503.63 434.83 496.57 434.83 500.1 413.48 503.63 392.12"/>
    <polygon class="cls-4" points="513.67 387.17 517.2 408.52 520.73 429.88 513.67 429.88 506.6 429.88 510.13 408.52 513.67 387.17"/>
    <polygon class="cls-4" points="526.72 390.4 530.25 411.75 533.78 433.1 526.72 433.1 519.65 433.1 523.19 411.75 526.72 390.4"/>
    <polygon class="cls-4" points="547.29 398.24 550.82 419.59 554.36 440.94 547.29 440.94 540.22 440.94 543.76 419.59 547.29 398.24"/>
    <polygon class="cls-4" points="558.83 396.17 562.36 417.52 565.9 438.88 558.83 438.88 551.76 438.88 555.3 417.52 558.83 396.17"/>
    <polygon class="cls-4" points="593.7 401.12 597.23 422.48 600.77 443.83 593.7 443.83 586.63 443.83 590.17 422.48 593.7 401.12"/>
    <polygon class="cls-4" points="628.39 397.56 631.92 418.91 635.45 440.26 628.39 440.26 621.32 440.26 624.85 418.91 628.39 397.56"/>
    <polygon class="cls-4" points="633.91 401.89 637.44 423.24 640.97 444.59 633.91 444.59 626.84 444.59 630.37 423.24 633.91 401.89"/>
    <polygon class="cls-4" points="649.21 398.79 652.74 420.14 656.27 441.5 649.21 441.5 642.14 441.5 645.68 420.14 649.21 398.79"/>
    <polygon class="cls-4" points="642.44 401.47 645.97 422.83 649.5 444.18 642.44 444.18 635.37 444.18 638.9 422.83 642.44 401.47"/>
    <polygon class="cls-4" points="660 406.43 663.53 427.78 667.06 449.13 660 449.13 652.93 449.13 656.46 427.78 660 406.43"/>
    <polygon class="cls-4" points="685.02 410.28 688.56 431.63 692.09 452.99 685.02 452.99 677.96 452.99 681.49 431.63 685.02 410.28"/>
    <polygon class="cls-4" points="741.44 410.78 744.97 432.13 748.51 453.49 741.44 453.49 734.38 453.49 737.91 432.13 741.44 410.78"/>
    <polygon class="cls-4" points="734.33 410.5 737.86 431.85 741.39 453.2 734.33 453.2 727.26 453.2 730.8 431.85 734.33 410.5"/>
    <polygon class="cls-4" points="746.74 414.34 750.27 435.69 753.81 457.05 746.74 457.05 739.68 457.05 743.21 435.69 746.74 414.34"/>
    <polygon class="cls-4" points="768.82 407.53 772.35 428.88 775.88 450.24 768.82 450.24 761.75 450.24 765.28 428.88 768.82 407.53"/>
    <polygon class="cls-4" points="775.84 402.17 779.37 423.52 782.91 444.87 775.84 444.87 768.78 444.87 772.31 423.52 775.84 402.17"/>
    <polygon class="cls-4" points="785.45 408.64 788.99 429.99 792.52 451.34 785.45 451.34 778.39 451.34 781.92 429.99 785.45 408.64"/>
    <polygon class="cls-4" points="793.87 415.18 797.4 436.54 800.93 457.89 793.87 457.89 786.8 457.89 790.34 436.54 793.87 415.18"/>
    <polygon class="cls-4" points="803.69 410.08 807.22 431.43 810.75 452.78 803.69 452.78 796.62 452.78 800.15 431.43 803.69 410.08"/>
    <polygon class="cls-4" points="811.54 411.97 815.07 433.32 818.6 454.68 811.54 454.68 804.47 454.68 808 433.32 811.54 411.97"/>
    <polygon class="cls-4" points="819.57 416.3 823.1 437.66 826.63 459.01 819.57 459.01 812.5 459.01 816.03 437.66 819.57 416.3"/>
    <polygon class="cls-4" points="846.91 412.8 850.44 434.15 853.98 455.5 846.91 455.5 839.85 455.5 843.38 434.15 846.91 412.8"/>
    <polygon class="cls-4" points="854.1 413.47 857.63 434.83 861.17 456.18 854.1 456.18 847.03 456.18 850.57 434.83 854.1 413.47"/>
    <polygon class="cls-4" points="862.63 416.57 866.16 437.92 869.69 459.27 862.63 459.27 855.56 459.27 859.1 437.92 862.63 416.57"/>
    <polygon class="cls-4" points="870.98 410.04 874.51 431.39 878.04 452.75 870.98 452.75 863.91 452.75 867.45 431.39 870.98 410.04"/>
    <polygon class="cls-4" points="881.5 416.72 885.04 438.07 888.57 459.43 881.5 459.43 874.44 459.43 877.97 438.07 881.5 416.72"/>
    <polygon class="cls-4" points="887.76 420.55 891.29 441.9 894.82 463.25 887.76 463.25 880.69 463.25 884.22 441.9 887.76 420.55"/>
    <polygon class="cls-4" points="896.54 414.38 900.08 435.73 903.61 457.09 896.54 457.09 889.48 457.09 893.01 435.73 896.54 414.38"/>
    <polygon class="cls-4" points="935.25 417.29 938.79 438.64 942.32 460 935.25 460 928.19 460 931.72 438.64 935.25 417.29"/>
    <polygon class="cls-4" points="929.25 420.1 932.78 441.45 936.32 462.8 929.25 462.8 922.18 462.8 925.72 441.45 929.25 420.1"/>
    <polygon class="cls-4" points="979.66 416.88 983.19 438.23 986.72 459.58 979.66 459.58 972.59 459.58 976.12 438.23 979.66 416.88"/>
    <polygon class="cls-4" points="988.18 419.15 991.72 440.5 995.25 461.85 988.18 461.85 981.12 461.85 984.65 440.5 988.18 419.15"/>
    <polygon class="cls-4" points="1039.38 425.67 1042.91 447.02 1046.44 468.37 1039.38 468.37 1032.31 468.37 1035.85 447.02 1039.38 425.67"/>
    <polygon class="cls-4" points="1021.57 418.03 1025.1 439.39 1028.63 460.74 1021.57 460.74 1014.5 460.74 1018.03 439.39 1021.57 418.03"/>
    <polygon class="cls-4" points="1060.8 419.06 1064.33 440.41 1067.86 461.76 1060.8 461.76 1053.73 461.76 1057.27 440.41 1060.8 419.06"/>
    <polygon class="cls-4" points="1068.07 423.18 1071.61 444.53 1075.14 465.89 1068.07 465.89 1061.01 465.89 1064.54 444.53 1068.07 423.18"/>
    <polygon class="cls-4" points="1075.48 419.69 1079.01 441.04 1082.54 462.39 1075.48 462.39 1068.41 462.39 1071.94 441.04 1075.48 419.69"/>
    <polygon class="cls-4" points="1083 426.29 1086.54 447.64 1090.07 468.99 1083 468.99 1075.94 468.99 1079.47 447.64 1083 426.29"/>
    <polygon class="cls-4" points="1095.8 426.08 1099.33 447.44 1102.86 468.79 1095.8 468.79 1088.73 468.79 1092.27 447.44 1095.8 426.08"/>
    <polygon class="cls-4" points="1115.37 425.67 1118.9 447.02 1122.43 468.38 1115.37 468.38 1108.3 468.38 1111.83 447.02 1115.37 425.67"/>
    <polygon class="cls-4" points="1103.03 415.98 1106.56 437.33 1110.09 458.69 1103.03 458.69 1095.96 458.69 1099.49 437.33 1103.03 415.98"/>
    <polygon class="cls-4" points="997.41 431.04 1000.94 452.39 1004.48 473.75 997.41 473.75 990.34 473.75 993.88 452.39 997.41 431.04"/>
  </g>
  <polygon class="cls-5" points="1135.87 465.36 475.87 421.98 475.87 620.03 1135.87 620.03 1135.87 465.36"/>
  <g>
    <polygon class="cls-6" points="945.24 442.42 940.41 474.12 935.57 505.81 945.24 505.81 954.92 505.81 950.08 474.12 945.24 442.42"/>
    <polygon class="cls-6" points="908.37 432 902.41 468.07 896.44 504.13 908.37 504.13 920.31 504.13 914.34 468.07 908.37 432"/>
    <polygon class="cls-6" points="869.64 427.1 864.32 463.86 859 500.61 869.64 500.61 880.29 500.61 874.96 463.86 869.64 427.1"/>
    <polygon class="cls-6" points="895.34 417.61 889.37 453.67 883.4 489.74 895.34 489.74 907.27 489.74 901.31 453.67 895.34 417.61"/>
    <polygon class="cls-6" points="880.91 429 874.95 465.07 868.98 501.13 880.91 501.13 892.85 501.13 886.88 465.07 880.91 429"/>
    <polygon class="cls-6" points="817.5 419.14 811.53 455.2 805.57 491.27 817.5 491.27 829.43 491.27 823.47 455.2 817.5 419.14"/>
    <polygon class="cls-6" points="722.2 424.46 716.23 460.52 710.27 496.58 722.2 496.58 734.13 496.58 728.17 460.52 722.2 424.46"/>
    <polygon class="cls-6" points="708.07 407.28 702.1 443.35 696.14 479.41 708.07 479.41 720 479.41 714.04 443.35 708.07 407.28"/>
    <polygon class="cls-6" points="635.07 415.86 629.11 451.92 623.14 487.99 635.07 487.99 647.01 487.99 641.04 451.92 635.07 415.86"/>
    <polygon class="cls-6" points="697.04 414.96 691.08 451.02 685.11 487.08 697.04 487.08 708.98 487.08 703.01 451.02 697.04 414.96"/>
    <polygon class="cls-6" points="599.26 406.28 593.29 442.34 587.33 478.4 599.26 478.4 611.2 478.4 605.23 442.34 599.26 406.28"/>
    <polygon class="cls-6" points="559.73 401.3 553.77 437.36 547.8 473.43 559.73 473.43 571.66 473.43 565.7 437.36 559.73 401.3"/>
    <polygon class="cls-6" points="580.59 410.49 574.62 446.55 568.65 482.62 580.59 482.62 592.52 482.62 586.55 446.55 580.59 410.49"/>
    <polygon class="cls-6" points="534.41 413.51 528.44 449.57 522.47 485.63 534.41 485.63 546.34 485.63 540.37 449.57 534.41 413.51"/>
    <polygon class="cls-6" points="545.81 414.31 539.85 450.38 533.88 486.44 545.81 486.44 557.75 486.44 551.78 450.38 545.81 414.31"/>
    <polygon class="cls-6" points="522.36 403.9 516.4 439.96 510.43 476.03 522.36 476.03 534.3 476.03 528.33 439.96 522.36 403.9"/>
    <polygon class="cls-6" points="510.45 401.76 504.48 437.82 498.51 473.88 510.45 473.88 522.38 473.88 516.41 437.82 510.45 401.76"/>
    <polygon class="cls-6" points="505.76 393.14 499.79 429.2 493.82 465.27 505.76 465.27 517.69 465.27 511.72 429.2 505.76 393.14"/>
    <polygon class="cls-6" points="990.43 434.49 984.46 470.55 978.49 506.62 990.43 506.62 1002.36 506.62 996.39 470.55 990.43 434.49"/>
    <polygon class="cls-6" points="980.44 425.27 974.47 461.33 968.5 497.39 980.44 497.39 992.37 497.39 986.4 461.33 980.44 425.27"/>
    <polygon class="cls-6" points="969.26 427.41 963.29 463.48 957.33 499.54 969.26 499.54 981.2 499.54 975.23 463.48 969.26 427.41"/>
    <polygon class="cls-6" points="747.84 420.98 741.87 457.05 735.91 493.11 747.84 493.11 759.77 493.11 753.81 457.05 747.84 420.98"/>
    <polygon class="cls-6" points="756.13 425.36 750.17 461.42 744.2 497.48 756.13 497.48 768.07 497.48 762.1 461.42 756.13 425.36"/>
    <polygon class="cls-6" points="776.7 429.48 770.74 465.55 764.77 501.61 776.7 501.61 788.64 501.61 782.67 465.55 776.7 429.48"/>
    <polygon class="cls-6" points="764.08 425.31 758.12 461.37 752.15 497.44 764.08 497.44 776.01 497.44 770.05 461.37 764.08 425.31"/>
    <polygon class="cls-6" points="800.21 430.26 794.24 466.32 788.27 502.39 800.21 502.39 812.14 502.39 806.17 466.32 800.21 430.26"/>
  </g>
  <polygon class="cls-7" points="1135.87 493.4 475.87 457.89 475.87 620.03 1135.87 620.03 1135.87 493.4"/>
  <polygon class="cls-8" points="537.26 468.66 543.77 511.36 550.29 554.07 537.26 554.07 524.22 554.07 530.74 511.36 537.26 468.66"/>
  <polygon class="cls-8" points="586.93 454.63 594.97 503.21 603.01 551.8 586.93 551.8 570.85 551.8 578.89 503.21 586.93 454.63"/>
  <polygon class="cls-8" points="639.11 448.03 646.28 497.54 653.45 547.05 639.11 547.05 624.77 547.05 631.94 497.54 639.11 448.03"/>
  <polygon class="cls-8" points="604.49 435.24 612.53 483.82 620.57 532.4 604.49 532.4 588.41 532.4 596.45 483.82 604.49 435.24"/>
  <polygon class="cls-8" points="623.92 450.59 631.96 499.17 640 547.76 623.92 547.76 607.85 547.76 615.88 499.17 623.92 450.59"/>
  <polygon class="cls-8" points="476.39 457.98 484.43 506.56 492.46 555.14 476.39 555.14 475.87 555.14 475.87 461.1 476.39 457.98"/>
  <polygon class="cls-8" points="489.85 445.56 497.89 494.14 505.93 542.72 489.85 542.72 475.87 542.72 475.87 530.04 481.81 494.14 489.85 445.56"/>
  <polygon class="cls-8" points="504.9 448.44 512.94 497.03 520.98 545.61 504.9 545.61 488.82 545.61 496.86 497.03 504.9 448.44"/>
  <polygon class="cls-2" points="38.78 286.11 67.3 268.55 64.29 288.36 80.34 277.63 93.89 298.67 97.4 277.22 120.94 278.06 82.69 223.57 38.78 286.11"/>
  <polygon class="cls-2" points="529.77 260.77 549.21 250.4 558.74 257.62 572.54 249.98 586.84 261.54 594.62 258.44 601.93 257.24 567.09 207.62 529.77 260.77"/>
  <path class="cls-1" d="M-5.13,348.65,82.69,223.57,130,290.93l36.08-51.38,70.35,100.2,53.93-76.82,38.1,54.26,104.11-148.3,80.87,115.18,53.68-76.45,60.19,85.72,27.59,39.06V489.65h-660Z"/>
  <polygon class="cls-2" points="138.78 278.38 155.85 270.41 162.13 280.51 167.4 268.76 196.62 283.08 166.05 239.54 138.78 278.38"/>
  <polygon class="cls-2" points="272.85 287.83 280.53 283.4 292.07 293.93 299.35 287.53 308.21 288.4 290.33 262.93 272.85 287.83"/>
  <polygon class="cls-2" points="361.13 270.61 407.72 248.95 430.8 275.77 446.86 260.92 459.9 271.64 474.45 260.09 501.14 266.59 432.55 168.89 361.13 270.61"/>
  <path class="cls-3" d="M253.33,439q-13-32.33-26.05-64.64c-.61-1.54-1.23-3.07-1.85-4.61L195,338.08q1.59,23.25,3.17,46.52-4.59,13-9.19,26.09l7,24.51Z"/>
  <path class="cls-3" d="M330,374.41l-9.09-39.94-14.6-19.56-4.82-10.06q1.44-5.78,2.89-11.56l22.17,40.62Z"/>
  <polygon class="cls-3" points="493.02 375 504.06 341.17 466.43 327.14 451.88 301.15 444.35 336.22 480.48 352.31 493.02 375 493.02 375"/>
  <polygon class="cls-3" points="522.12 299.5 637.62 464.02 654.87 465.36 654.87 464.86 654.8 391.09 590.36 368.81 595.37 341.58 522.12 299.5 522.12 299.5"/>
  <polygon class="cls-3" points="23.3 423.85 49.49 382.02 40.46 359.32 74.58 321.78 60.53 357.67 80.1 388.21 104.68 381.19 90.13 405.54 135.24 431.21 23.3 423.85 23.3 423.85"/>
  <polygon class="cls-3" points="420.74 449.98 348.52 344.88 390.67 354.79 402.71 384.91 441.84 398.11 451.88 415.03 524.08 456.77 420.74 449.98 420.74 449.98"/>
  <polygon class="cls-3" points="249.68 360.15 272.76 380.78 274.26 399.76 249.68 360.15"/>
  <g>
    <polygon class="cls-4" points="7.07 386.3 10.6 407.65 14.13 429.01 7.07 429.01 0 429.01 3.53 407.65 7.07 386.3"/>
    <polygon class="cls-4" points="15.88 387.8 19.41 409.15 22.94 430.5 15.88 430.5 8.81 430.5 12.34 409.15 15.88 387.8"/>
    <polygon class="cls-4" points="22.63 392.13 26.17 413.48 29.7 434.83 22.63 434.83 15.57 434.83 19.1 413.48 22.63 392.13"/>
    <polygon class="cls-4" points="32.67 387.18 36.2 408.53 39.73 429.88 32.67 429.88 25.6 429.88 29.14 408.53 32.67 387.18"/>
    <polygon class="cls-4" points="45.72 390.4 49.25 411.76 52.79 433.11 45.72 433.11 38.66 433.11 42.19 411.76 45.72 390.4"/>
    <polygon class="cls-4" points="66.29 398.24 69.83 419.6 73.36 440.95 66.29 440.95 59.23 440.95 62.76 419.6 66.29 398.24"/>
    <polygon class="cls-4" points="77.83 396.18 81.36 417.53 84.9 438.88 77.83 438.88 70.77 438.88 74.3 417.53 77.83 396.18"/>
    <polygon class="cls-4" points="112.7 401.13 116.24 422.48 119.77 443.84 112.7 443.84 105.64 443.84 109.17 422.48 112.7 401.13"/>
    <polygon class="cls-4" points="147.39 397.56 150.92 418.91 154.45 440.27 147.39 440.27 140.32 440.27 143.86 418.91 147.39 397.56"/>
    <polygon class="cls-4" points="152.91 401.89 156.44 423.25 159.97 444.6 152.91 444.6 145.84 444.6 149.38 423.25 152.91 401.89"/>
    <polygon class="cls-4" points="168.21 398.8 171.74 420.15 175.28 441.5 168.21 441.5 161.15 441.5 164.68 420.15 168.21 398.8"/>
    <polygon class="cls-4" points="161.44 401.48 164.97 422.83 168.5 444.19 161.44 444.19 154.37 444.19 157.91 422.83 161.44 401.48"/>
    <polygon class="cls-4" points="179 406.43 182.53 427.78 186.06 449.14 179 449.14 171.93 449.14 175.47 427.78 179 406.43"/>
    <polygon class="cls-4" points="204.03 410.29 207.56 431.64 211.09 452.99 204.03 452.99 196.96 452.99 200.5 431.64 204.03 410.29"/>
    <polygon class="cls-4" points="260.44 410.79 263.98 432.14 267.51 453.49 260.44 453.49 253.38 453.49 256.91 432.14 260.44 410.79"/>
    <polygon class="cls-4" points="253.33 410.5 256.86 431.86 260.4 453.21 253.33 453.21 246.27 453.21 249.8 431.86 253.33 410.5"/>
    <polygon class="cls-4" points="265.74 414.35 269.28 435.7 272.81 457.05 265.74 457.05 258.68 457.05 262.21 435.7 265.74 414.35"/>
    <polygon class="cls-4" points="287.82 407.54 291.35 428.89 294.88 450.24 287.82 450.24 280.75 450.24 284.29 428.89 287.82 407.54"/>
    <polygon class="cls-4" points="294.84 402.18 298.38 423.53 301.91 444.88 294.84 444.88 287.78 444.88 291.31 423.53 294.84 402.18"/>
    <polygon class="cls-4" points="304.46 408.65 307.99 430 311.52 451.35 304.46 451.35 297.39 451.35 300.92 430 304.46 408.65"/>
    <polygon class="cls-4" points="312.87 415.19 316.4 436.54 319.94 457.89 312.87 457.89 305.81 457.89 309.34 436.54 312.87 415.19"/>
    <polygon class="cls-4" points="322.69 410.08 326.22 431.44 329.75 452.79 322.69 452.79 315.62 452.79 319.15 431.44 322.69 410.08"/>
    <polygon class="cls-4" points="330.54 411.98 334.07 433.33 337.61 454.68 330.54 454.68 323.47 454.68 327.01 433.33 330.54 411.98"/>
    <polygon class="cls-4" points="338.57 416.31 342.1 437.66 345.63 459.02 338.57 459.02 331.5 459.02 335.04 437.66 338.57 416.31"/>
    <polygon class="cls-4" points="365.91 412.8 369.45 434.16 372.98 455.51 365.91 455.51 358.85 455.51 362.38 434.16 365.91 412.8"/>
    <polygon class="cls-4" points="373.1 413.48 376.63 434.83 380.17 456.19 373.1 456.19 366.04 456.19 369.57 434.83 373.1 413.48"/>
    <polygon class="cls-4" points="381.63 416.57 385.16 437.93 388.7 459.28 381.63 459.28 374.56 459.28 378.1 437.93 381.63 416.57"/>
    <polygon class="cls-4" points="389.98 410.05 393.51 431.4 397.05 452.75 389.98 452.75 382.92 452.75 386.45 431.4 389.98 410.05"/>
    <polygon class="cls-4" points="400.51 416.73 404.04 438.08 407.57 459.43 400.51 459.43 393.44 459.43 396.98 438.08 400.51 416.73"/>
    <polygon class="cls-4" points="406.76 420.55 410.29 441.91 413.82 463.26 406.76 463.26 399.69 463.26 403.22 441.91 406.76 420.55"/>
    <polygon class="cls-4" points="415.55 414.39 419.08 435.74 422.61 457.09 415.55 457.09 408.48 457.09 412.01 435.74 415.55 414.39"/>
    <polygon class="cls-4" points="454.26 417.3 457.79 438.65 461.32 460 454.26 460 447.19 460 450.72 438.65 454.26 417.3"/>
    <polygon class="cls-4" points="448.25 420.1 451.79 441.46 455.32 462.81 448.25 462.81 441.19 462.81 444.72 441.46 448.25 420.1"/>
    <polygon class="cls-4" points="498.66 416.89 502.19 438.24 505.72 459.59 498.66 459.59 491.59 459.59 495.13 438.24 498.66 416.89"/>
    <polygon class="cls-4" points="507.19 419.16 510.72 440.51 514.25 461.86 507.19 461.86 500.12 461.86 503.65 440.51 507.19 419.16"/>
    <polygon class="cls-4" points="558.38 425.67 561.91 447.03 565.45 468.38 558.38 468.38 551.32 468.38 554.85 447.03 558.38 425.67"/>
    <polygon class="cls-4" points="540.57 418.04 544.1 439.39 547.64 460.75 540.57 460.75 533.5 460.75 537.04 439.39 540.57 418.04"/>
    <polygon class="cls-4" points="579.8 419.06 583.33 440.42 586.87 461.77 579.8 461.77 572.74 461.77 576.27 440.42 579.8 419.06"/>
    <polygon class="cls-4" points="587.08 423.19 590.61 444.54 594.14 465.89 587.08 465.89 580.01 465.89 583.54 444.54 587.08 423.19"/>
    <polygon class="cls-4" points="594.48 419.7 598.01 441.05 601.54 462.4 594.48 462.4 587.41 462.4 590.95 441.05 594.48 419.7"/>
    <polygon class="cls-4" points="602 426.3 605.54 447.65 609.07 469 602 469 594.94 469 598.47 447.65 602 426.3"/>
    <polygon class="cls-4" points="614.8 426.09 618.33 447.44 621.87 468.8 614.8 468.8 607.73 468.8 611.27 447.44 614.8 426.09"/>
    <polygon class="cls-4" points="634.37 425.68 637.9 447.03 641.43 468.38 634.37 468.38 627.3 468.38 630.83 447.03 634.37 425.68"/>
    <polygon class="cls-4" points="622.03 415.99 625.56 437.34 629.09 458.69 622.03 458.69 614.96 458.69 618.49 437.34 622.03 415.99"/>
    <polygon class="cls-4" points="516.41 431.05 519.95 452.4 523.48 473.75 516.41 473.75 509.35 473.75 512.88 452.4 516.41 431.05"/>
  </g>
  <path class="cls-5" d="M651.89,434.67c-23.63,12.58-55,24.37-92.18,24.44a174,174,0,0,1-23.63-1.55c-34-4.49-181.35-14.8-541.21-35.57V620h660Q653.39,527.36,651.89,434.67Z"/>
  <g>
    <polygon class="cls-6" points="464.25 442.43 459.41 474.12 454.57 505.82 464.25 505.82 473.92 505.82 469.08 474.12 464.25 442.43"/>
    <polygon class="cls-6" points="427.38 432.01 421.41 468.07 415.44 504.14 427.38 504.14 439.31 504.14 433.34 468.07 427.38 432.01"/>
    <polygon class="cls-6" points="388.64 427.11 383.32 463.86 378 500.62 388.64 500.62 399.29 500.62 393.97 463.86 388.64 427.11"/>
    <polygon class="cls-6" points="414.34 417.62 408.38 453.68 402.41 489.74 414.34 489.74 426.28 489.74 420.31 453.68 414.34 417.62"/>
    <polygon class="cls-6" points="399.92 429.01 393.95 465.07 387.98 501.14 399.92 501.14 411.85 501.14 405.88 465.07 399.92 429.01"/>
    <polygon class="cls-6" points="336.5 419.15 330.54 455.21 324.57 491.27 336.5 491.27 348.44 491.27 342.47 455.21 336.5 419.15"/>
    <polygon class="cls-6" points="241.2 424.46 235.24 460.53 229.27 496.59 241.2 496.59 253.14 496.59 247.17 460.53 241.2 424.46"/>
    <polygon class="cls-6" points="227.07 407.29 221.1 443.35 215.14 479.42 227.07 479.42 239 479.42 233.04 443.35 227.07 407.29"/>
    <polygon class="cls-6" points="154.08 415.87 148.11 451.93 142.14 487.99 154.08 487.99 166.01 487.99 160.04 451.93 154.08 415.87"/>
    <polygon class="cls-6" points="216.05 414.96 210.08 451.03 204.11 487.09 216.05 487.09 227.98 487.09 222.01 451.03 216.05 414.96"/>
    <polygon class="cls-6" points="118.26 406.28 112.3 442.35 106.33 478.41 118.26 478.41 130.2 478.41 124.23 442.35 118.26 406.28"/>
    <polygon class="cls-6" points="78.73 401.31 72.77 437.37 66.8 473.43 78.73 473.43 90.67 473.43 84.7 437.37 78.73 401.31"/>
    <polygon class="cls-6" points="99.59 410.49 93.62 446.56 87.66 482.62 99.59 482.62 111.52 482.62 105.56 446.56 99.59 410.49"/>
    <polygon class="cls-6" points="53.41 413.51 47.44 449.58 41.48 485.64 53.41 485.64 65.34 485.64 59.38 449.58 53.41 413.51"/>
    <polygon class="cls-6" points="64.82 414.32 58.85 450.38 52.88 486.45 64.82 486.45 76.75 486.45 70.78 450.38 64.82 414.32"/>
    <polygon class="cls-6" points="41.37 403.91 35.4 439.97 29.43 476.04 41.37 476.04 53.3 476.04 47.33 439.97 41.37 403.91"/>
    <polygon class="cls-6" points="29.45 401.76 23.48 437.83 17.52 473.89 29.45 473.89 41.38 473.89 35.41 437.83 29.45 401.76"/>
    <polygon class="cls-6" points="24.76 393.15 18.79 429.21 12.82 465.27 24.76 465.27 36.69 465.27 30.73 429.21 24.76 393.15"/>
    <polygon class="cls-6" points="509.43 434.5 503.46 470.56 497.5 506.62 509.43 506.62 521.36 506.62 515.4 470.56 509.43 434.5"/>
    <polygon class="cls-6" points="499.44 425.28 493.47 461.34 487.5 497.4 499.44 497.4 511.37 497.4 505.4 461.34 499.44 425.28"/>
    <polygon class="cls-6" points="488.26 427.42 482.3 463.48 476.33 499.55 488.26 499.55 500.2 499.55 494.23 463.48 488.26 427.42"/>
    <polygon class="cls-6" points="266.84 420.99 260.88 457.05 254.91 493.12 266.84 493.12 278.78 493.12 272.81 457.05 266.84 420.99"/>
    <polygon class="cls-6" points="275.13 425.37 269.17 461.43 263.2 497.49 275.13 497.49 287.07 497.49 281.1 461.43 275.13 425.37"/>
    <polygon class="cls-6" points="295.71 429.49 289.74 465.56 283.77 501.62 295.71 501.62 307.64 501.62 301.67 465.56 295.71 429.49"/>
    <polygon class="cls-6" points="283.08 425.32 277.12 461.38 271.15 497.44 283.08 497.44 295.02 497.44 289.05 461.38 283.08 425.32"/>
    <polygon class="cls-6" points="319.21 430.27 313.24 466.33 307.27 502.4 319.21 502.4 331.14 502.4 325.17 466.33 319.21 430.27"/>
  </g>
  <path class="cls-7" d="M654.33,467.66c-46.53-11.29-74.92-5.86-92.49,1.61-9.32,4-33.76,16.24-67.06,15.52-4.26-.09-7.43-.36-8.46-.45C464,482.45,332.8,475.2-5.13,457.89V620h660Z"/>
  <path class="cls-8" d="M228.35,437.31l4.4,26.58-1.45,0,1.51.32.27,1.64-1.32.2,1.41.32,2,12.05h-2.11l2.18.42c0,.2,1.13,6.82,1.16,7l.91,5.51-2.75.62,3,1,2.24,13.57-3.18.92,3.46.73q2.16,13.13,4.34,26.26H212.28q2.5-15.16,5-30.34l4.36-1-4-1.1q1-5.93,2-11.84l3.34-1.5-3-.5.39-2.34,2-11.81,2.2-.47-2.09-.2.47-2.86,2.5-.17-2.42-.28.22-1.32,1.28-.3-1.21-.13Z"/>
  <path class="cls-8" d="M154.53,423.27l4.4,26.58-1.45,0,1.5.31.27,1.64-1.32.2,1.41.32,2,12.06h-2.11l2.18.42c0,.2,1.12,6.83,1.16,7l.91,5.51-2.76.62,3,1L166,492.53l-3.18.92,3.45.74q2.18,13.13,4.34,26.25H138.45q2.52-15.17,5-30.33l4.37-1-4-1.1q1-5.91,2-11.84l3.34-1.5-3-.5.39-2.34L148.44,460l2.21-.47-2.09-.2.47-2.86,2.49-.17-2.42-.27.22-1.33,1.29-.3-1.22-.13Q152,438.79,154.53,423.27Z"/>
  <path class="cls-8" d="M114.15,417.8l4.4,26.58-1.45,0,1.51.32.27,1.63-1.32.2,1.41.32,2,12.06h-2.11l2.18.43c0,.19,1.13,6.82,1.16,7l.91,5.5-2.75.63,3,1,2.24,13.57-3.17.92,3.45.73q2.16,13.13,4.34,26.25H98.08q2.51-15.17,5-30.33l4.36-1-4-1.1q1-5.93,2-11.85l3.34-1.5-3-.5.39-2.33,1.95-11.82,2.2-.47-2.09-.2.47-2.86,2.5-.17-2.42-.27.22-1.32,1.28-.31-1.21-.13Z"/>
  <path class="cls-8" d="M88.42,433.77l4.4,26.59-1.45,0,1.51.32.27,1.64-1.32.2,1.4.32,2,12.05H93.12l2.18.42c0,.2,1.13,6.82,1.16,7l.91,5.51-2.75.62,3,1L99.88,503,96.7,504l3.46.73q2.16,13.13,4.34,26.25H72.35q2.5-15.16,5-30.33l4.36-1-4-1.1q1-5.93,2-11.85L83,485.2l-3-.51.38-2.33q1-5.91,2-11.81l2.2-.47-2.09-.2.47-2.86,2.5-.17L83,466.57l.22-1.32,1.28-.3-1.21-.13Z"/>
  <path class="cls-8" d="M132.58,467.93l4.4,26.59-1.45,0,1.5.32.27,1.64-1.32.2,1.41.32,2,12.05h-2.11l2.18.42c0,.2,1.12,6.82,1.16,7l.91,5.51-2.76.62,3,1L144,537.2l-3.18.92,3.45.73q2.17,13.13,4.34,26.25H116.5q2.52-15.17,5-30.33l4.37-1-4-1.1q1-5.93,2-11.85l3.34-1.49-3-.51.39-2.33,1.95-11.81,2.21-.47-2.09-.2.47-2.86,2.49-.17-2.42-.28.22-1.32,1.29-.3-1.22-.13Q130,483.46,132.58,467.93Z"/>
  <path class="cls-8" d="M62.66,419.35l4.4,26.58-1.46,0,1.51.31.27,1.64-1.32.2,1.41.32,2,12.06h-2.1l2.18.42c0,.2,1.12,6.83,1.16,7l.91,5.51-2.76.62,3,1,2.25,13.57-3.18.91,3.45.74q2.17,13.13,4.34,26.25H46.58q2.51-15.16,5-30.33l4.37-1-4-1.11q1-5.91,2-11.84l3.34-1.5-3-.5.39-2.34,2-11.81,2.21-.47-2.09-.2.47-2.86,2.49-.17-2.42-.27.22-1.32,1.29-.31-1.22-.13Q60.08,434.87,62.66,419.35Z"/>
  <path class="cls-8" d="M31.39,456.45,35.79,483l-1.45,0,1.51.31.27,1.64-1.32.2,1.4.32,2,12.06H36.09l2.18.42c0,.2,1.13,6.83,1.16,7l.91,5.51-2.75.62,3,1,2.24,13.57-3.18.92,3.46.74q2.16,13.13,4.34,26.25H15.32l5-30.33,4.37-1-4-1.11q1-5.91,2-11.84l3.33-1.5-3-.5.38-2.34q1-5.89,2-11.81l2.2-.47-2.09-.2.47-2.86,2.5-.17L26,489.25l.21-1.32,1.29-.31-1.21-.13Z"/>
  <path class="cls-8" d="M50.37,466.66l4.4,26.58-1.45,0,1.51.32.27,1.64-1.32.2,1.41.32,2,12.06H55.07l2.18.42c0,.2,1.13,6.82,1.16,7l.91,5.51-2.75.62,3,1,2.24,13.57-3.17.92,3.45.73q2.17,13.14,4.34,26.26H34.3q2.51-15.17,5-30.33l4.36-1-4-1.1q1-5.91,2-11.84l3.34-1.5-3-.5.39-2.34,1.95-11.81,2.2-.47-2.09-.2.47-2.86,2.5-.17L45,499.46l.22-1.33,1.29-.3-1.22-.13Z"/>
  <path class="cls-8" d="M503.69,447l4.4,26.58-1.46,0,1.51.32.27,1.64-1.32.2,1.41.32,2,12.05h-2.1l2.17.42c0,.2,1.13,6.82,1.17,7l.91,5.51-2.76.62,3,1,2.25,13.57-3.18.92,3.45.73q2.18,13.13,4.34,26.26H487.61q2.5-15.16,5-30.34l4.36-1-4-1.1q1-5.93,2-11.84l3.34-1.5-3-.5.39-2.34,2-11.81,2.2-.47-2.09-.2.48-2.86,2.49-.17-2.42-.28.22-1.32,1.29-.3-1.22-.13Q501.12,462.56,503.69,447Z"/>
  <path class="cls-8" d="M670,455.55l4.39,26.58-1.45,0,1.51.32.27,1.63-1.32.2,1.41.32,2,12.06h-2.1l2.17.43c0,.2,1.13,6.82,1.17,7l.91,5.5-2.76.63,3,1,2.25,13.57-3.18.92,3.45.73q2.17,13.13,4.34,26.25H653.89q2.5-15.16,5-30.33l4.36-1-4-1.1q1-5.93,2-11.85l3.34-1.5-3-.5.39-2.33,2-11.82,2.2-.47-2.09-.2.48-2.86,2.49-.17-2.42-.27.22-1.32,1.29-.31-1.22-.13Q667.4,471.08,670,455.55Z"/>
  <path class="cls-8" d="M448.25,458l4.4,26.58-1.45,0,1.51.32.27,1.64-1.32.2,1.4.32,2,12.05H453l2.18.42c0,.2,1.13,6.82,1.16,7l.91,5.51-2.76.62,3,1,2.24,13.57-3.18.92L460,529q2.16,13.13,4.34,26.26H432.18l5-30.34,4.37-1-4-1.1q1-5.92,2-11.84l3.33-1.5-3-.5.38-2.34q1-5.91,2-11.81l2.2-.47-2.09-.2.47-2.86,2.5-.17-2.42-.28.21-1.32,1.29-.3-1.21-.13Z"/>
  <path class="cls-8" d="M561.63,470.51,566,497.09l-1.45,0,1.51.32.27,1.64-1.32.2,1.41.32,2,12.05h-2.1l2.17.42c0,.2,1.13,6.82,1.16,7l.92,5.51-2.76.62,3,1,2.25,13.57-3.18.92,3.45.73q2.17,13.13,4.34,26.26H545.55q2.51-15.16,5-30.34l4.36-1-4-1.1q1-5.92,2-11.84l3.34-1.5-3-.5.39-2.34,1.95-11.81,2.2-.47-2.09-.2.48-2.86,2.49-.17-2.42-.28.22-1.32,1.29-.3-1.22-.13Q559.06,486,561.63,470.51Z"/>
  <path class="cls-8" d="M654.61,414.88,659,441.46l-1.45,0,1.51.32.27,1.63-1.32.2,1.41.32,2,12.06h-2.1l2.17.43c0,.2,1.13,6.82,1.17,7l.91,5.5-2.76.63,3,1,2.25,13.57-3.18.92,3.45.73q2.17,13.13,4.34,26.25H638.53q2.51-15.16,5-30.33l4.36-1-4-1.1q1-5.92,2-11.85l3.34-1.49-3-.51.39-2.33,1.95-11.81,2.2-.47-2.09-.21.48-2.85,2.49-.18-2.42-.27.22-1.32,1.29-.31-1.22-.13Q652,430.41,654.61,414.88Z"/>
  <path class="cls-8" d="M619,440.33l4.4,26.58-1.45,0,1.51.32.27,1.63-1.32.2,1.4.32,2,12.06h-2.11l2.18.43c0,.2,1.13,6.82,1.16,7l.91,5.5-2.75.63,3,1,2.24,13.57-3.18.92,3.46.73q2.16,13.13,4.34,26.25H603l5-30.33,4.37-1-4-1.1q1-5.93,2-11.85l3.33-1.49-3-.51.38-2.33q1-5.91,2-11.81l2.2-.47-2.09-.21.47-2.85,2.5-.18-2.42-.27.22-1.32,1.28-.31-1.21-.13Z"/>
  <path class="cls-8" d="M384.11,423.4l4.4,26.58-1.45,0,1.5.32.28,1.64-1.33.19,1.41.32,2,12.06h-2.11L391,465c0,.2,1.13,6.82,1.16,7l.91,5.5-2.76.63,3,1,2.24,13.57-3.18.92,3.45.73,4.35,26.25H368q2.52-15.17,5-30.33l4.37-1-4-1.1q1-5.93,2-11.85l3.34-1.49-3-.51.38-2.33q1-5.91,2-11.81l2.2-.47-2.09-.21.47-2.85,2.49-.18-2.42-.27.22-1.32,1.29-.3-1.22-.13Q381.55,438.93,384.11,423.4Z"/>
  <path class="cls-8" d="M350,445.55l4.4,26.58-1.45,0,1.51.32.27,1.64-1.33.19,1.41.32,2,12.06h-2.11l2.18.42c0,.2,1.13,6.82,1.16,7l.91,5.5-2.76.63,3,1,2.24,13.57-3.18.92,3.45.73L366,542.72H333.88q2.52-15.16,5-30.33l4.37-1-4-1.1q1-5.93,2-11.85l3.33-1.49-3-.51.38-2.33q1-5.91,2-11.81l2.2-.47-2.09-.21.47-2.85,2.49-.18-2.42-.27.22-1.32,1.29-.3-1.22-.13Q347.4,461.08,350,445.55Z"/>
  <path class="cls-8" d="M369.69,463.89l4.4,26.58-1.45,0,1.51.32.27,1.63-1.33.2,1.41.32,2,12.06h-2.11l2.18.43c0,.2,1.13,6.82,1.16,7l.91,5.5-2.76.63,3,1,2.24,13.57-3.18.92,3.45.73,4.35,26.25H353.61q2.52-15.16,5-30.33l4.37-1-4-1.1q1-5.92,2-11.85l3.34-1.49-3-.51.38-2.33q1-5.91,2-11.81l2.2-.47-2.09-.21.47-2.85,2.49-.18-2.42-.27.22-1.32,1.29-.31-1.22-.13Q367.13,479.42,369.69,463.89Z"/>
  <path class="cls-8" d="M1003.14,422.54l4.4,26.58-1.45,0,1.51.32.27,1.64-1.32.2,1.4.32,2,12.05h-2.11l2.18.42c0,.2,1.13,6.82,1.16,7l.91,5.51-2.76.62,3,1,2.24,13.57-3.18.92,3.46.73q2.16,13.13,4.34,26.26H987.07l5-30.34,4.37-1-4-1.1q1-5.93,2-11.84l3.33-1.5-3-.5.38-2.34q1-5.91,2-11.81l2.2-.47-2.09-.2.47-2.86,2.5-.17-2.42-.28.21-1.32,1.29-.3-1.21-.13Z"/>
  <path class="cls-8" d="M976.61,438.47l4.4,26.58-1.45,0,1.5.32.28,1.64-1.33.2,1.41.32,2,12.06h-2.11l2.18.42c0,.2,1.13,6.82,1.16,7l.91,5.51-2.76.62,3,1,2.24,13.57-3.18.92,3.45.73,4.35,26.26H960.53q2.52-15.17,5-30.33l4.37-1-4-1.1q1-5.93,2-11.84l3.34-1.5-3-.5.38-2.34q1-5.9,2-11.81l2.2-.47-2.09-.2.47-2.86,2.49-.17-2.42-.27.22-1.33,1.29-.3-1.22-.13Q974.05,454,976.61,438.47Z"/>
  <path class="cls-8" d="M858.33,428l4.4,26.58-1.46,0,1.51.32.27,1.63-1.32.2,1.41.32,2,12.06H863l2.18.43c0,.2,1.12,6.82,1.16,7l.91,5.5-2.76.63,3,1,2.25,13.57-3.18.92,3.45.73q2.18,13.13,4.34,26.25H842.25q2.5-15.17,5-30.33l4.36-1-4-1.1q1-5.93,2-11.85l3.34-1.49-3-.51.39-2.33,2-11.81,2.21-.47-2.1-.21.48-2.85,2.49-.18-2.42-.27.22-1.32,1.29-.31-1.22-.13Q855.75,443.55,858.33,428Z"/>
  <path class="cls-8" d="M878.62,456.06l4.4,26.58-1.46,0,1.51.32.27,1.64-1.32.2,1.41.32,2,12.05h-2.1l2.17.42c0,.2,1.13,6.82,1.17,7l.91,5.51-2.76.62,3,1,2.25,13.57-3.18.92,3.45.73q2.17,13.13,4.34,26.26H862.54q2.51-15.16,5-30.34l4.36-1-4-1.1q1-5.93,2-11.84l3.34-1.5-3-.5.39-2.34,1.95-11.81,2.2-.47-2.09-.2.48-2.86,2.49-.17-2.42-.28.22-1.32,1.29-.3-1.22-.13Q876,471.58,878.62,456.06Z"/>
  <path class="cls-8" d="M909.08,448.53l4.4,26.58-1.45,0,1.51.32.27,1.64-1.32.2,1.4.32,2,12.05h-2.11l2.18.42c0,.2,1.13,6.82,1.16,7l.91,5.5-2.75.63,3,1,2.24,13.57-3.18.92,3.46.73q2.16,13.13,4.34,26.25H893l5-30.33,4.37-1-4-1.1q1-5.92,2-11.85l3.33-1.49-3-.51.38-2.33q1-5.91,2-11.81l2.2-.47-2.09-.21.47-2.85,2.5-.18-2.42-.27.22-1.32,1.28-.3-1.21-.13Z"/>
  <path class="cls-8" d="M1108.91,415.28l4.39,26.59-1.45,0,1.51.32.27,1.64-1.32.2,1.41.32,2,12.05h-2.1l2.17.42c0,.2,1.13,6.82,1.16,7l.92,5.51-2.76.62,3,1,2.25,13.57-3.18.92,3.45.73q2.17,13.13,4.34,26.25h-32.15q2.51-15.17,5-30.33l4.36-1-4-1.1q1-5.93,2-11.85l3.34-1.49-3-.51.39-2.33,2-11.81,2.2-.47-2.09-.2.48-2.86,2.49-.17-2.42-.28.22-1.32,1.29-.3-1.22-.13Q1106.34,430.81,1108.91,415.28Z"/>
  <path class="cls-8" d="M1092.83,438.47l4.4,26.58-1.45,0,1.5.32.28,1.64-1.33.2,1.41.32,2,12.06h-2.11l2.18.42c0,.2,1.13,6.82,1.16,7l.91,5.51-2.76.62,3,1,2.24,13.57-3.18.92,3.45.73,4.35,26.26h-32.16q2.52-15.17,5-30.33l4.37-1-4-1.1q1-5.93,2-11.84l3.34-1.5-3-.5.38-2.34q1-5.9,2-11.81l2.2-.47-2.09-.2.47-2.86,2.49-.17-2.42-.27.22-1.33,1.29-.3-1.22-.13Q1090.27,454,1092.83,438.47Z"/>
  <path class="cls-8" d="M1122,425.34l4.4,26.58-1.45,0,1.51.32.27,1.63-1.32.2,1.4.32,2,12.06h-2.11l2.18.43c0,.2,1.13,6.82,1.16,7l.91,5.5-2.75.63,3,1,2.24,13.57-3.18.92,3.46.73q2.16,13.13,4.34,26.25h-32.15q2.5-15.17,5-30.33l4.36-1-4-1.1q1-5.92,2-11.85l3.33-1.49-3-.51.38-2.33q1-5.91,2-11.81l2.2-.47-2.09-.21.47-2.85,2.5-.18-2.42-.27.22-1.32,1.28-.31-1.21-.13Z"/>
  <path class="cls-8" d="M1063.21,450.22l4.39,26.58-1.45,0,1.51.32.27,1.64-1.32.2,1.41.32,2,12.05h-2.1l2.17.42c0,.2,1.13,6.82,1.16,7l.92,5.51-2.76.62,3,1,2.25,13.57-3.18.92,3.45.73q2.18,13.13,4.34,26.26h-32.15q2.5-15.18,5-30.34l4.36-1-4-1.1q1-5.93,2-11.85l3.34-1.49-3-.5.39-2.34,1.95-11.81,2.2-.47-2.09-.2.48-2.86,2.49-.17-2.42-.28.22-1.32,1.29-.3-1.22-.13Q1060.64,465.74,1063.21,450.22Z"/>
  <path class="cls-8" d="M1051.05,437.83l4.39,26.58-1.45,0,1.51.32.27,1.64-1.32.2,1.41.32,2,12h-2.1l2.17.42c0,.2,1.13,6.82,1.17,7l.91,5.51-2.76.62,3,1,2.25,13.57-3.18.92,3.45.73q2.17,13.13,4.34,26.26H1035q2.51-15.18,5-30.34l4.36-1-4-1.1q1-5.93,2-11.85l3.34-1.49-3-.5.39-2.34,2-11.81,2.2-.47-2.09-.2.48-2.86,2.49-.17-2.42-.28.22-1.32,1.29-.3-1.22-.13Q1048.47,453.35,1051.05,437.83Z"/>
  <path class="cls-8" d="M1025.31,447.4l4.4,26.58-1.45,0,1.51.32L1030,476l-1.33.2,1.41.32,2,12.06H1030l2.18.43c0,.19,1.13,6.82,1.16,7l.91,5.5-2.76.63,3,1,2.24,13.57-3.18.92,3.45.73,4.35,26.25h-32.15l5-30.33,4.37-1-4-1.1q1-5.92,2-11.85l3.33-1.5-3-.5.38-2.33q1-5.91,2-11.82l2.2-.47-2.09-.2.47-2.86,2.5-.17-2.42-.27.21-1.32,1.29-.31-1.21-.13Z"/>
  <path class="cls-8" d="M790.78,434.16l4.4,26.58-1.46,0,1.51.32.27,1.64-1.32.19,1.41.33,2,12.05h-2.1l2.18.42c0,.2,1.12,6.82,1.16,7l.91,5.5-2.76.63,3,1,2.25,13.57-3.18.92,3.45.73q2.18,13.13,4.34,26.25H774.7q2.5-15.17,5-30.33l4.36-1-4-1.1q1-5.93,2-11.85l3.34-1.49-3-.51.39-2.33,2-11.81,2.21-.47-2.1-.21.48-2.85,2.49-.18-2.42-.27.22-1.32,1.29-.3-1.22-.13Q788.21,449.69,790.78,434.16Z"/>
  <path class="cls-8" d="M765.67,447.66l4.4,26.58-1.46,0,1.51.32.27,1.64-1.32.19,1.41.33,2,12.05h-2.1l2.18.42c0,.2,1.12,6.82,1.16,7l.91,5.5-2.76.63,3,1,2.25,13.57-3.18.92,3.45.73q2.18,13.13,4.34,26.25H749.59q2.5-15.17,5-30.33l4.37-1-4-1.1q1-5.92,2-11.85l3.34-1.49-3-.51.39-2.33,2-11.81,2.21-.47-2.09-.21.47-2.85,2.49-.18-2.42-.27.22-1.32,1.29-.3-1.22-.13Q763.1,463.19,765.67,447.66Z"/>
  <path class="cls-8" d="M289.75,483l2.49,15.08h-.82l.85.19.16.92-.75.12.8.18,1.13,6.84h-1.2l1.24.24c0,.11.64,3.87.66,4l.51,3.13-1.56.35,1.71.56,1.28,7.69-1.8.53,1.95.41q1.23,7.44,2.47,14.89H280.63q1.42-8.6,2.84-17.2l2.48-.55-2.28-.63,1.11-6.72,1.89-.85-1.7-.28.22-1.33,1.11-6.7,1.24-.27-1.18-.11.27-1.62,1.41-.1-1.37-.15.12-.75.73-.18-.69-.07Q288.29,491.79,289.75,483Z"/>
  <path class="cls-8" d="M205,471.85l4.4,26.58-1.45,0,1.51.32.27,1.64-1.32.19,1.41.33,2,12.05h-2.11l2.18.42c0,.2,1.13,6.82,1.16,7l.91,5.5-2.75.63,3,1,2.24,13.57-3.17.92,3.45.73Q219,555.9,221.12,569H189q2.5-15.16,5-30.33l4.36-1-4-1.1q1-5.93,2-11.85l3.34-1.49-3-.51.39-2.33,2-11.81,2.2-.47-2.09-.21.47-2.85,2.5-.18-2.42-.27.22-1.32,1.29-.3-1.22-.13Z"/>
  <path class="cls-8" d="M268.07,493.87l2.49,15.07-.82,0,.85.18.16.93-.75.11.8.18,1.13,6.84h-1.2l1.24.24c0,.11.64,3.86.66,4l.51,3.12-1.56.35,1.71.56,1.28,7.7-1.81.52,2,.42q1.23,7.44,2.47,14.89H259q1.43-8.61,2.84-17.21l2.48-.55-2.28-.62,1.11-6.72L265,523l-1.7-.29.22-1.32,1.1-6.7,1.25-.27-1.18-.11.27-1.63,1.41-.09-1.37-.16.12-.75.73-.17-.69-.07Q266.61,502.68,268.07,493.87Z"/>
  <path class="cls-8" d="M256.31,486.94,258.8,502H258l.86.18.15.93-.75.11.8.18,1.13,6.84H259l1.23.24c0,.11.64,3.87.66,4l.52,3.12-1.57.36,1.72.55,1.27,7.7-1.8.52,2,.42,2.46,14.89H247.19L250,524.85l2.47-.55-2.28-.62,1.11-6.72,1.9-.85-1.71-.29.22-1.32,1.11-6.7,1.25-.27-1.19-.11.27-1.62,1.41-.1-1.37-.16.13-.75.73-.17-.69-.07Z"/>
  <path class="cls-8" d="M178.72,485l2.49,15.07-.82,0,.86.18.15.93-.75.11.8.18,1.13,6.84h-1.2l1.24.24.66,4,.52,3.12-1.57.35,1.72.56,1.27,7.7-1.8.52,2,.41q1.24,7.45,2.47,14.9H169.6l2.85-17.21,2.47-.55-2.28-.63,1.11-6.71,1.89-.85-1.7-.29.22-1.32,1.11-6.7,1.25-.27-1.19-.12.27-1.62,1.41-.09-1.37-.16.12-.75.74-.17-.7-.08Q177.27,493.78,178.72,485Z"/>
  <path class="cls-8" d="M189.47,481.41,192,496.49l-.82,0,.85.18.16.93-.75.11.8.18,1.13,6.84h-1.2l1.24.24c0,.12.64,3.87.66,4l.51,3.13-1.56.35,1.71.56,1.28,7.7-1.81.52,2,.41q1.23,7.46,2.47,14.9H180.35q1.43-8.61,2.84-17.21l2.48-.55-2.28-.63,1.11-6.72,1.89-.85-1.7-.28.22-1.33,1.11-6.7,1.24-.26-1.18-.12.27-1.62,1.41-.1-1.37-.15.12-.75.73-.17-.69-.08Q188,490.22,189.47,481.41Z"/>
  <path class="cls-8" d="M164.94,501.59l2.5,15.08-.83,0,.86.18.15.93-.75.11.8.18,1.13,6.84h-1.19l1.23.24.66,4,.52,3.12-1.57.35,1.72.56,1.27,7.7-1.8.52,2,.41,2.46,14.9H155.82l2.85-17.21,2.48-.55-2.29-.63,1.12-6.72,1.89-.84-1.71-.29.22-1.32,1.11-6.71,1.25-.26-1.19-.12.27-1.62,1.42-.1-1.38-.15.13-.75.73-.17-.69-.08Z"/>
  <path class="cls-8" d="M303.87,529.54l2.5,15.08h-.83l.86.18.15.93-.75.11.8.19,1.13,6.83h-1.19l1.23.24c0,.11.64,3.87.66,4l.52,3.12-1.57.36,1.72.55,1.27,7.7-1.8.52,2,.42L313,584.66H294.75l2.85-17.21,2.47-.55-2.28-.62,1.11-6.72,1.9-.85-1.71-.29.22-1.32,1.11-6.7,1.25-.27-1.19-.11.27-1.62,1.42-.1-1.38-.16.13-.75.73-.17-.69-.07Z"/>
  <path class="cls-8" d="M316.43,517.5l2.49,15.08-.82,0,.86.18.15.93-.75.11.8.18,1.13,6.84h-1.2l1.24.24.66,4,.52,3.12-1.57.35,1.72.56,1.27,7.7-1.8.52,1.95.41q1.25,7.46,2.47,14.9H307.31l2.85-17.21,2.47-.55-2.28-.63,1.11-6.72,1.89-.84-1.7-.29.22-1.32,1.11-6.71,1.25-.26L313,538l.27-1.62,1.41-.1-1.37-.15.12-.75.74-.17-.69-.08Z"/>
  <path class="cls-8" d="M331.64,519.87l2.5,15.08h-.83l.86.19.15.92-.75.12.8.18,1.13,6.84h-1.19l1.23.24c0,.11.64,3.87.66,4l.52,3.13-1.56.35,1.71.56,1.27,7.69-1.8.53,2,.41L340.76,575H322.52l2.85-17.2,2.48-.55-2.29-.63,1.12-6.72,1.89-.85-1.71-.28.22-1.33,1.11-6.7,1.25-.26-1.19-.12.27-1.62,1.42-.1-1.38-.15.13-.75.73-.18-.69-.07Z"/>
  <path class="cls-8" d="M414.52,494.46l2.5,15.08h-.83l.86.18.15.93-.75.11.8.19,1.13,6.84h-1.19l1.23.24c0,.11.64,3.87.66,4l.52,3.12-1.56.36,1.71.55,1.27,7.7-1.8.52,2,.42,2.46,14.89H405.4l2.85-17.21,2.48-.55-2.29-.62,1.12-6.72,1.89-.85-1.71-.29L410,522l1.11-6.7,1.25-.27-1.19-.11.27-1.62,1.42-.1-1.38-.16.13-.75.73-.17-.69-.07Z"/>
  <path class="cls-8" d="M359.08,533.5l2.5,15.08-.83,0,.86.18.15.92-.75.12.8.18,1.13,6.84h-1.19l1.23.24c0,.11.64,3.87.66,4l.52,3.13-1.57.35,1.72.56,1.27,7.69-1.8.53,2,.41,2.46,14.89H350l2.85-17.2,2.47-.55-2.28-.63,1.11-6.72,1.9-.85-1.71-.28.22-1.33,1.11-6.7,1.25-.26-1.19-.12.27-1.62,1.41-.1-1.37-.15.13-.75.73-.18-.69-.07Z"/>
  <path class="cls-8" d="M423.64,512.54l2.5,15.07-.83,0,.86.18.15.93-.75.11.8.18,1.13,6.84h-1.19l1.23.24c0,.11.64,3.86.66,4l.52,3.12-1.56.35,1.71.56,1.27,7.7-1.8.52,2,.42,2.46,14.89H414.52l2.85-17.21,2.48-.55-2.29-.62,1.12-6.72,1.89-.85-1.71-.29.22-1.32,1.11-6.7,1.25-.27-1.19-.11.27-1.63,1.42-.09-1.38-.16.13-.75.73-.17-.69-.07Z"/>
  <path class="cls-8" d="M406.2,508.25l2.5,15.08h-.82l.85.18.15.93-.75.11.8.18,1.14,6.84h-1.2l1.24.24c0,.11.64,3.87.65,4l.52,3.12-1.56.36,1.71.55,1.28,7.7-1.81.52,2,.42,2.46,14.89H397.08l2.85-17.21,2.48-.55-2.28-.62,1.11-6.72,1.89-.85-1.71-.29.22-1.32,1.11-6.7,1.25-.27-1.18-.11.26-1.62,1.42-.1-1.37-.16.12-.75.73-.17-.69-.07Z"/>
  <path class="cls-8" d="M860.3,505.07l2.49,15.07-.82,0,.86.18.15.93-.75.11.8.18,1.13,6.84H863l1.23.24.66,4,.52,3.12-1.57.35,1.72.56,1.27,7.7-1.8.52,2,.42,2.46,14.89H851.18L854,543l2.47-.55-2.28-.62,1.11-6.72,1.9-.85-1.71-.29.22-1.32,1.11-6.7,1.25-.27-1.19-.12.27-1.62,1.41-.09-1.37-.16.12-.75.74-.17-.69-.07Z"/>
  <path class="cls-8" d="M730.4,477.72l2.49,15.07-.82,0,.85.18.16.93-.75.11.8.18,1.13,6.84h-1.2l1.24.24.66,4,.51,3.12-1.56.35,1.71.56,1.28,7.7-1.81.52,2,.41q1.23,7.45,2.47,14.9H721.28q1.43-8.61,2.84-17.21l2.48-.55-2.28-.63,1.11-6.71,1.89-.85-1.7-.29.22-1.32,1.11-6.7,1.24-.27-1.18-.12.27-1.62,1.41-.09-1.37-.16.12-.75.73-.17-.69-.08Q728.94,486.52,730.4,477.72Z"/>
  <path class="cls-8" d="M812.23,481.24l2.49,15.07-.82,0,.85.18.16.93-.75.11.8.18,1.13,6.84h-1.2l1.24.24.66,4,.51,3.12-1.56.35,1.71.56,1.28,7.7-1.81.52,2,.41q1.23,7.45,2.47,14.9H803.11q1.42-8.61,2.84-17.21l2.48-.55-2.28-.62,1.11-6.72,1.89-.85-1.7-.29.22-1.32,1.1-6.7,1.25-.27-1.18-.12.27-1.62,1.41-.09-1.37-.16.12-.75.73-.17-.69-.08Q810.77,490.05,812.23,481.24Z"/>
  <path class="cls-8" d="M832.41,497.82l2.49,15.08-.82,0,.85.18.16.92-.75.12.79.18,1.14,6.84h-1.2l1.24.24c0,.11.64,3.87.66,4l.51,3.13-1.56.35,1.71.56,1.28,7.69-1.81.53,2,.41q1.23,7.46,2.47,14.89H823.29q1.41-8.6,2.84-17.2l2.48-.55-2.28-.63,1.11-6.72,1.89-.85-1.7-.28.22-1.33,1.1-6.7,1.25-.26L829,518.3l.27-1.62,1.41-.1-1.37-.15.12-.75.73-.18-.69-.07Q830.95,506.63,832.41,497.82Z"/>
  <path class="cls-8" d="M948.48,517,951,532.09h-.82l.85.18.16.93-.75.11.8.19,1.13,6.84h-1.2l1.24.24c0,.11.64,3.87.66,4l.51,3.12-1.56.36,1.72.55,1.27,7.7-1.8.52,2,.42q1.23,7.44,2.47,14.89H939.36q1.42-8.6,2.84-17.21l2.48-.55-2.28-.62,1.11-6.72,1.89-.85-1.7-.28.22-1.33,1.11-6.7,1.24-.27-1.18-.11.27-1.62,1.41-.1-1.37-.16.12-.75.73-.17-.69-.07Q947,525.82,948.48,517Z"/>
  <path class="cls-8" d="M934.14,483.45l2.5,15.08-.83,0,.86.18.15.93-.75.11.8.18,1.13,6.84h-1.19L938,507c0,.11.65,3.87.66,4l.52,3.13-1.56.35,1.71.56,1.27,7.7-1.8.52,2,.41,2.46,14.9H925l2.85-17.21,2.48-.55-2.29-.63,1.12-6.72,1.89-.85-1.71-.28.22-1.33,1.11-6.7,1.25-.26-1.18-.12.26-1.62,1.42-.1-1.38-.15.13-.75.73-.17-.69-.08Z"/>
  <path class="cls-8" d="M1009.24,518.14l2.49,15.08-.82,0,.85.18.16.93-.75.11.8.18,1.13,6.84h-1.2l1.24.24c0,.11.64,3.87.66,4l.51,3.13-1.56.35,1.71.56,1.28,7.7-1.81.52,2,.41q1.23,7.46,2.47,14.9h-18.24q1.41-8.61,2.84-17.21l2.48-.55-2.28-.63,1.11-6.72,1.89-.85-1.7-.28.22-1.33,1.1-6.7,1.25-.26-1.18-.12.27-1.62,1.41-.1-1.37-.15.12-.75.73-.17-.69-.08Q1007.77,526.94,1009.24,518.14Z"/>
  <path class="cls-8" d="M796.62,540.21l2.49,15.08-.82,0,.86.18.15.93-.75.11.8.18,1.13,6.84h-1.2l1.24.24c0,.12.64,3.87.66,4l.52,3.13-1.57.35,1.72.56,1.27,7.7-1.8.52,1.95.41q1.25,7.45,2.47,14.9H787.5l2.85-17.21,2.47-.55-2.28-.63,1.11-6.72,1.89-.85-1.7-.28.22-1.33,1.11-6.7,1.25-.26-1.19-.12.27-1.62,1.41-.1-1.37-.15.12-.75.73-.17-.69-.08Q795.17,549,796.62,540.21Z"/>
</svg>
