<svg id="Слой_1" data-name="Слой 1" xmlns="http://www.w3.org/2000/svg" viewBox="0 0 1815 1815">
  <defs>
    <style>
      .cls-1 {
        fill: #b1cfee;
      }

      .cls-1, .cls-2 {
        stroke: #b1cfee;
        stroke-miterlimit: 10;
      }

      .cls-2 {
        fill: none;
        stroke-width: 100px;
      }
    </style>
  </defs>
  <path class="cls-1" d="M907.5,100c109.1,0,214.8,21.3,314.3,63.4a810.57,810.57,0,0,1,429.8,429.8c42.1,99.5,63.4,205.2,63.4,314.3s-21.3,214.8-63.4,314.3a810.57,810.57,0,0,1-429.8,429.8c-99.5,42.1-205.2,63.4-314.3,63.4s-214.8-21.3-314.3-63.4a810.57,810.57,0,0,1-429.8-429.8c-42.1-99.5-63.4-205.2-63.4-314.3s21.3-214.8,63.4-314.3A810.57,810.57,0,0,1,593.2,163.4C692.7,121.3,798.4,100,907.5,100m0-100C406.3,0,0,406.3,0,907.5S406.3,1815,907.5,1815,1815,1408.7,1815,907.5,1408.7,0,907.5,0Z"/>
  <line class="cls-2" x1="58" y1="892" x2="1751" y2="892"/>
  <line class="cls-2" x1="58" y1="892" x2="907" y2="1746"/>
  <line class="cls-2" x1="1751" y1="892" x2="918" y2="1751"/>
  <line class="cls-2" x1="905" y1="49" x2="1334" y2="1321"/>
  <line class="cls-2" x1="905" y1="49" x2="482" y2="1321"/>
  <path class="cls-1" d="M263.8,1043.4q31.05,2.55,62.3,3.2c5.9.1,11.8.2,17.7.2,4.4,0,9.1-3.3,10.1-7.7a13.21,13.21,0,0,0,0-5.6c-.6-2.8-2.7-4.6-4.8-6.3-1.6-1.2-3.2-2.5-4.8-3.7l2.1,1.6q-23.85-18.45-45.9-39c-4.2-3.9-8.3-7.8-12.4-11.8l-7.4,17.9,71,.9,20,.3c4.4.1,9.1-3.3,10.1-7.7a13.21,13.21,0,0,0,0-5.6c-.6-2.8-2.7-4.6-4.8-6.3-13.6-10.2-27.3-20.4-41.1-30.4s-27.6-20-41.6-29.8c-7.9-5.5-15.7-11.1-23.6-16.5a10.48,10.48,0,0,0-14.4,3.7,10.69,10.69,0,0,0-1.1,8.2,11.59,11.59,0,0,0,4.8,6.3q21,14.55,41.8,29.4c13.9,9.9,27.6,19.9,41.3,30.1,7.7,5.7,15.5,11.5,23.1,17.3l5.3-19.6-71-.9-20-.3A10.58,10.58,0,0,0,270.1,982a10.22,10.22,0,0,0,3,7.2c15.6,15.3,31.9,29.7,48.9,43.4,5.4,4.3,10.8,8.6,16.4,12.7l5.3-19.6q-31.2-.15-62.4-2.1c-5.9-.4-11.7-.8-17.6-1.3a10.5,10.5,0,0,0-7.4,17.9h0a11.54,11.54,0,0,0,7.5,3.2Z"/>
  <path class="cls-1" d="M1562.5,1022.3q-31.05,2.55-62.3,3.2c-5.9.1-11.8.2-17.7.2l5.3,19.6a650.13,650.13,0,0,0,51.8-43.4c4.5-4.2,9-8.5,13.4-12.8a10.47,10.47,0,0,0-.2-14.9,10.22,10.22,0,0,0-7.2-3l-71,.9-20,.3,5.3,19.6c13.6-10.2,27.3-20.4,41.1-30.4s27.6-20,41.6-29.7c7.9-5.5,15.7-11.1,23.7-16.5a11.25,11.25,0,0,0,4.8-6.3,11,11,0,0,0-1.1-8.1,10.17,10.17,0,0,0-6.3-4.8c-2.6-.6-5.8-.5-8.1,1.1q-21,14.55-41.8,29.4t-41.3,30.1c-7.7,5.7-15.5,11.5-23.2,17.3a11.57,11.57,0,0,0-4.3,5,9.42,9.42,0,0,0-.5,6.8,10.71,10.71,0,0,0,10.1,7.7l71-.9,20-.3-7.4-17.9q-21.45,21.15-44.9,40.2c-4.4,3.6-8.9,7.2-13.4,10.6l2.1-1.6c-1.6,1.2-3.2,2.5-4.8,3.7a11.57,11.57,0,0,0-4.3,5,9.42,9.42,0,0,0-.5,6.8,10.71,10.71,0,0,0,10.1,7.7q31.2-.15,62.4-2.1c5.9-.4,11.7-.8,17.6-1.3a11.26,11.26,0,0,0,7.4-3.1,10.44,10.44,0,0,0,0-14.8h0c-2-2-4.6-3.5-7.4-3.3Z"/>
  <path class="cls-1" d="M831.1,367.6c4.1,15.8,8.5,31.6,13,47.3s9.2,31.5,14.1,47.3c2.8,8.8,5.6,17.7,8.4,26.5,1.4,4.3,5.4,7.9,10.1,7.7A13.43,13.43,0,0,0,882,495a10.17,10.17,0,0,0,4.8-6.3c6-30.3,13.4-60.4,22.1-90.1,2.4-8.2,4.9-16.3,7.5-24.4H896.1l17,53.4,17,53.4,9.5,30c1.3,4.3,5.4,7.9,10.1,7.7a13.43,13.43,0,0,0,5.3-1.4,11,11,0,0,0,4.8-6.2c4.7-24.2,9.3-48.4,13.6-72.6,4.4-24.4,8.7-48.9,12.8-73.3,2.3-13.8,4.6-27.6,6.8-41.4.5-2.9.5-5.5-1.1-8.1a10.58,10.58,0,0,0-14.4-3.8c-2.2,1.4-4.4,3.6-4.8,6.3q-5.85,36.75-12.2,73.3t-13.2,73.1c-2.5,13.6-5.1,27.2-7.8,40.9H960l-17-53.4-16.9-53.4-9.5-30c-1.4-4.3-5.4-7.9-10.1-7.7a10.71,10.71,0,0,0-10.1,7.7q-14.25,43.8-24.3,88.8c-1.9,8.5-3.7,17.1-5.4,25.6H887q-7.65-23.4-14.7-46.9t-13.7-47.4c-2.5-8.9-4.9-17.8-7.2-26.8a11.25,11.25,0,0,0-4.8-6.3,10.6,10.6,0,0,0-14.4,3.8,11,11,0,0,0-1.1,8.1Z"/>
</svg>
