<?xml version="1.0" encoding="utf-8"?>
<!-- Generator: Adobe Illustrator 24.1.2, SVG Export Plug-In . SVG Version: 6.00 Build 0)  -->
<svg version="1.1" id="publicdomainvectors.org" xmlns="http://www.w3.org/2000/svg" xmlns:xlink="http://www.w3.org/1999/xlink"
	 x="0px" y="0px" viewBox="0 0 1135.9 214.1" style="enable-background:new 0 0 1135.9 214.1;" xml:space="preserve">
<style type="text/css">
	.st0{fill-rule:evenodd;clip-rule:evenodd;fill:#01203D;}
	.st1{fill-rule:evenodd;clip-rule:evenodd;fill:#456B97;}
	.st2{fill-rule:evenodd;clip-rule:evenodd;fill:#7AB3E5;}
</style>
<polygon class="st0" points="1153.1,-5.6 -149.4,-67.2 -149.4,214.1 1153.1,214.1 "/>
<polygon class="st1" points="537.3,62.8 543.8,105.5 550.3,148.2 537.3,148.2 524.2,148.2 530.7,105.5 "/>
<polygon class="st1" points="586.9,48.7 595,97.3 603,145.9 586.9,145.9 570.8,145.9 578.9,97.3 "/>
<polygon class="st1" points="639.1,42.1 646.3,91.6 653.5,141.1 639.1,141.1 624.8,141.1 631.9,91.6 "/>
<polygon class="st1" points="604.5,29.3 612.5,77.9 620.6,126.5 604.5,126.5 588.4,126.5 596.5,77.9 "/>
<polygon class="st1" points="623.9,44.7 632,93.3 640,141.9 623.9,141.9 607.8,141.9 615.9,93.3 "/>
<polygon class="st1" points="476.4,52.1 484.4,100.7 492.5,149.2 476.4,149.2 475.9,149.2 475.9,55.2 "/>
<polygon class="st1" points="489.9,39.7 497.9,88.2 505.9,136.8 489.9,136.8 475.9,136.8 475.9,124.1 481.8,88.2 "/>
<polygon class="st1" points="504.9,42.5 512.9,91.1 521,139.7 504.9,139.7 488.8,139.7 496.9,91.1 "/>
<path class="st2" d="M1189.2,61.8c-84.3-11.3-135.7-5.9-167.5,1.6c-16.9,4-61.1,16.2-121.5,15.5c-7.7-0.1-13.5-0.4-15.3-0.4
	c-40.4-1.9-278-9.1-890-26.5v162.1h1195.3L1189.2,61.8z"/>
<path class="st1" d="M228.4,31.4l4.4,26.6h-1.4l1.5,0.3l0.3,1.6l-1.3,0.2l1.4,0.3l2,12h-2.1l2.2,0.4c0,0.2,1.1,6.8,1.2,7l0.9,5.5
	l-2.8,0.6l3,1l2.2,13.6l-3.2,0.9l3.5,0.7c1.4,8.8,2.9,17.5,4.3,26.3h-32.1c1.7-10.1,3.3-20.2,5-30.3l4.4-1l-4-1.1
	c0.7-3.9,1.3-7.9,2-11.8l3.3-1.5l-3-0.5l0.4-2.3l2-11.8l2.2-0.5l-2.1-0.2l0.5-2.9l2.5-0.2l-2.4-0.2l0.2-1.3l1.3-0.3l-1.2-0.1
	L228.4,31.4z"/>
<path class="st1" d="M154.5,17.4l4.4,26.6h-1.4l1.5,0.3l0.3,1.6l-1.3,0.2l1.4,0.3l2,12.1h-2.1l2.2,0.4c0,0.2,1.1,6.8,1.2,7l0.9,5.5
	l-2.8,0.6l3,1l2.3,13.5l-3.2,0.9l3.4,0.7c1.4,8.8,2.9,17.5,4.3,26.3h-32.2c1.7-10.1,3.3-20.2,5-30.3l4.4-1l-4-1.1
	c0.7-3.9,1.3-7.9,2-11.8l3.3-1.5l-3-0.5l0.4-2.3l1.9-11.8l2.2-0.5l-2.1-0.2l0.5-2.9l2.5-0.2l-2.4-0.3l0.2-1.3l1.3-0.3l-1.2-0.1
	C151.1,38,152.8,27.7,154.5,17.4z"/>
<path class="st1" d="M114.2,11.9l4.4,26.6h-1.5l1.5,0.3l0.3,1.6l-1.3,0.2L119,41l2,12h-2.1l2.2,0.4c0,0.2,1.1,6.8,1.2,7l0.9,5.5
	l-2.8,0.6l3,1l2.2,13.6l-3.2,0.9l3.4,0.7c1.4,8.8,2.8,17.5,4.3,26.2H98.1c1.7-10.1,3.3-20.2,5-30.3l4.4-1l-4-1.1
	c0.7-3.9,1.3-7.9,2-11.8l3.3-1.5l-3-0.5l0.4-2.3l2-11.8l2.2-0.5l-2.1-0.2l0.5-2.9l2.5-0.2l-2.4-0.3l0.2-1.3l1.3-0.3l-1.2-0.1
	L114.2,11.9z"/>
<path class="st1" d="M88.4,27.9l4.4,26.6h-1.4l1.5,0.3l0.3,1.6l-1.3,0.2l1.4,0.3l2,12h-2.1l2.2,0.4c0,0.2,1.1,6.8,1.2,7l0.9,5.5
	l-2.8,0.6l3,1l2.3,13.6l-3.2,1l3.5,0.7c1.4,8.8,2.9,17.5,4.3,26.3H72.3c1.7-10.1,3.3-20.2,5-30.3l4.4-1l-4-1.1c0.7-4,1.3-7.9,2-11.8
	l3.3-1.5l-3-0.5l0.4-2.3c0.7-3.9,1.3-7.9,2-11.8l2.2-0.5L82.5,64l0.5-2.9l2.5-0.2L83,60.7l0.2-1.3l1.3-0.3l-1.2-0.1L88.4,27.9z"/>
<path class="st1" d="M132.6,62l4.4,26.6h-1.4l1.5,0.3l0.3,1.6l-1.3,0.2l1.4,0.3l2,12.1h-2.1l2.2,0.4c0,0.2,1.1,6.8,1.2,7l0.9,5.5
	l-2.8,0.6l3,1l2.2,13.6l-3.2,0.9l3.4,0.7c1.4,8.8,2.9,17.5,4.3,26.3h-32.1c1.7-10.1,3.3-20.2,5-30.3l4.4-1l-4-1.1
	c0.7-3.9,1.3-7.9,2-11.8l3.3-1.5l-3-0.5l0.4-2.3l2-11.8l2.2-0.5l-2.1-0.2l0.5-2.9l2.5-0.2l-2.4-0.3l0.2-1.3l1.3-0.3l-1.2-0.1
	C129.2,82.7,130.9,72.4,132.6,62z"/>
<path class="st1" d="M62.7,13.4L67.1,40h-1.5l1.5,0.3l0.3,1.7l-1.3,0.2l1.4,0.3l2,12.1h-2.1l2.2,0.4c0,0.2,1.1,6.8,1.2,7l0.9,5.5
	l-2.8,0.6l3,1l2.3,13.6l-3.2,0.9l3.4,0.7c1.5,8.8,2.9,17.5,4.3,26.3H46.6c1.7-10.1,3.3-20.2,5-30.3l4.4-1l-4-1.1
	c0.7-3.9,1.3-7.9,2-11.8l3.3-1.5l-3-0.5l0.4-2.3l2-11.8l2.2-0.5l-2.1-0.2l0.5-2.9l2.5-0.2l-2.4-0.3l0.2-1.3l1.3-0.3l-1.2-0.1
	C59.3,34.2,60.9,23.8,62.7,13.4z"/>
<path class="st1" d="M31.4,50.5l4.4,26.5h-1.5l1.5,0.3l0.3,1.6l-1.3,0.2l1.4,0.3l2,12.1h-2.1l2.2,0.4c0,0.2,1.1,6.8,1.2,7l0.9,5.5
	l-2.8,0.6l3,1l2.2,13.6l-3.2,0.9l3.5,0.7c1.4,8.8,2.9,17.5,4.3,26.3H15.3l5-30.3l4.4-1l-4-1.1c0.7-3.9,1.3-7.9,2-11.8l3.3-1.5
	l-3-0.5l0.4-2.4c0.7-3.9,1.3-7.9,2-11.8l2.2-0.5l-2.1-0.2l0.5-2.8l2.5-0.2L26,83.3l0.2-1.3l1.3-0.3l-1.2-0.1L31.4,50.5z"/>
<path class="st1" d="M50.4,60.8l4.4,26.6h-1.5l1.5,0.3l0.3,1.6l-1.3,0.2l1.4,0.3l2,12.1h-2.1l2.2,0.4c0,0.2,1.1,6.8,1.2,7l0.9,5.5
	l-2.8,0.6l3,1l2.2,13.6l-3.2,0.9l3.5,0.7c1.4,8.8,2.9,17.5,4.3,26.3H34.3c1.7-10.1,3.3-20.2,5-30.3l4.4-1l-4-1.1
	c0.7-3.9,1.3-7.9,2-11.8l3.3-1.5l-3-0.5l0.4-2.3l2-11.8l2.2-0.5l-2.1-0.2l0.4-2.8l2.5-0.2L45,93.6l0.2-1.3l1.3-0.3l-1.2-0.1
	L50.4,60.8z"/>
<path class="st1" d="M503.7,41.1l4.4,26.6h-1.5l1.5,0.3l0.3,1.6l-1.3,0.2l1.4,0.3l2,12h-2.1l2.2,0.4c0,0.2,1.1,6.8,1.2,7l0.9,5.5
	l-2.8,0.6l3,1l2.3,13.6l-3.2,0.9l3.5,0.7c1.5,8.8,2.9,17.5,4.3,26.3h-32.1c1.7-10.1,3.3-20.2,5-30.3l4.4-1l-4-1.1
	c0.7-3.9,1.3-7.9,2-11.8l3.3-1.5l-3-0.5l0.4-2.3l2-11.8l2.2-0.5l-2.1-0.2l0.5-2.9l2.5-0.2l-2.4-0.3l0.2-1.3l1.3-0.3l-1.2-0.1
	C500.3,61.8,502,51.5,503.7,41.1z"/>
<path class="st1" d="M670,49.7l4.4,26.6h-1.5l1.5,0.3l0.3,1.6l-1.3,0.2l1.4,0.3l2,12.1h-2.1l2.2,0.4c0,0.2,1.1,6.8,1.2,7l0.9,5.5
	l-2.8,0.6l3,1l2.3,13.6l-3.2,0.9l3.5,0.7c1.4,8.7,2.9,17.5,4.3,26.3h-32.2c1.7-10.1,3.3-20.2,5-30.3l4.4-1l-4-1.1
	c0.7-3.9,1.3-7.9,2-11.8l3.3-1.5l-3-0.5l0.4-2.3l2-11.8l2.2-0.5l-2.1-0.2l0.5-2.9l2.5-0.2l-2.4-0.3l0.2-1.3l1.3-0.3l-1.2-0.1
	C666.6,70.3,668.3,60,670,49.7z"/>
<path class="st1" d="M448.3,52.1l4.4,26.6h-1.4l1.5,0.3l0.3,1.6l-1.3,0.2l1.4,0.3l2,12H453l2.2,0.4c0,0.2,1.1,6.8,1.2,7l0.9,5.5
	l-2.8,0.6l3,1l2.2,13.6l-3.2,0.9l3.5,0.8c1.4,8.8,2.9,17.5,4.3,26.3h-32.2l5-30.3l4.4-1l-4-1.1c0.7-3.9,1.3-7.9,2-11.8l3.3-1.5
	l-3-0.5l0.4-2.3c0.7-3.9,1.3-7.9,2-11.8l2.2-0.5l-2.1-0.2l0.5-2.9l2.5-0.2l-2.4-0.2l0.2-1.3l1.3-0.3l-1.2-0.1L448.3,52.1z"/>
<path class="st1" d="M561.6,64.6l4.4,26.6h-1.5l1.5,0.3l0.3,1.6l-1.3,0.2l1.4,0.3l2,12h-2.1l2.2,0.4c0,0.2,1.1,6.8,1.2,7l0.9,5.5
	l-2.8,0.6l3,1l2.3,13.6l-3.2,0.9l3.5,0.7c1.4,8.8,2.9,17.5,4.3,26.3h-32.1c1.7-10.1,3.3-20.2,5-30.3l4.4-1l-4-1.1
	c0.7-4,1.3-7.9,2-11.8l3.3-1.5l-3-0.5l0.4-2.3l2-11.8l2.2-0.5l-2.1-0.2l0.5-2.9l2.5-0.2l-2.4-0.3l0.2-1.3l1.3-0.3l-1.2-0.1
	C558.2,85.2,559.9,74.9,561.6,64.6z"/>
<path class="st1" d="M654.6,9l4.4,26.6h-1.5l1.5,0.3l0.3,1.6l-1.3,0.2l1.4,0.3l2,12.1h-2.1l2.2,0.4c0,0.2,1.1,6.8,1.2,7l0.9,5.5
	l-2.8,0.6l3,1l2.3,13.6l-3.2,0.9l3.5,0.7c1.4,8.8,2.9,17.5,4.3,26.3h-32.1c1.7-10.1,3.3-20.2,5-30.3l4.4-1l-4-1.1
	c0.7-4,1.3-7.9,2-11.8l3.3-1.5l-3-0.5l0.4-2.3l2-11.8l2.2-0.5l-2.1-0.2l0.5-2.8l2.5-0.2l-2.4-0.3l0.2-1.3l1.3-0.3l-1.2-0.1
	C651.2,29.7,652.9,19.3,654.6,9z"/>
<path class="st1" d="M619,34.4l4.4,26.6H622l1.5,0.3l0.3,1.6l-1.3,0.2l1.4,0.3l2,12.1h-2.2l2.2,0.4c0,0.2,1.1,6.8,1.2,7l0.9,5.5
	l-2.8,0.6l3,1l2.2,13.6l-3.2,0.9l3.5,0.7c1.4,8.8,2.9,17.5,4.3,26.3H603l5-30.3l4.4-1l-4-1.1c0.7-3.9,1.3-7.9,2-11.8l3.3-1.5l-3-0.5
	l0.4-2.3c0.7-3.9,1.3-7.9,2-11.8l2.2-0.5l-2.1-0.2l0.5-2.8l2.5-0.2l-2.4-0.3l0.2-1.3l1.3-0.3l-1.2-0.1L619,34.4z"/>
<path class="st1" d="M384.1,17.5l4.4,26.6h-1.5l1.5,0.3l0.3,1.6l-1.3,0.2l1.4,0.3l2,12.1h-2.1l2.2,0.5c0,0.2,1.1,6.8,1.2,7l0.9,5.5
	l-2.8,0.6l3,1l2.2,13.6l-3.2,0.9l3.5,0.7l4.4,26.3H368c1.7-10.1,3.3-20.2,5-30.3l4.4-1l-4-1.1c0.7-3.9,1.3-7.9,2-11.8l3.3-1.5
	l-3-0.5l0.4-2.3c0.7-3.9,1.3-7.9,2-11.8l2.2-0.5l-2.1-0.2l0.5-2.8l2.5-0.2l-2.4-0.3L379,49l1.3-0.3l-1.3-0.2
	C380.7,38.2,382.4,27.8,384.1,17.5z"/>
<path class="st1" d="M350,39.7l4.4,26.6H353l1.5,0.3l0.3,1.6l-1.3,0.2l1.4,0.3l2,12.1h-2.2l2.2,0.4c0,0.2,1.1,6.8,1.2,7l0.9,5.5
	l-2.8,0.6l3,1l2.2,13.6l-3.2,0.9l3.5,0.7l4.3,26.3h-32.1c1.7-10.1,3.3-20.2,5-30.3l4.4-1l-4-1.1c0.7-3.9,1.3-7.9,2-11.8l3.3-1.5
	l-3-0.5l0.4-2.3c0.7-3.9,1.3-7.9,2-11.8l2.2-0.5l-2.1-0.2l0.5-2.8l2.5-0.2l-2.4-0.3l0.2-1.3l1.3-0.3l-1.2-0.1
	C346.6,60.3,348.3,50,350,39.7z"/>
<path class="st1" d="M369.7,58l4.4,26.6h-1.5l1.5,0.3l0.3,1.6l-1.3,0.2l1.4,0.3l2,12.1h-2.1l2.2,0.4c0,0.2,1.1,6.8,1.2,7l0.9,5.5
	l-2.8,0.6l3,1l2.2,13.6l-3.2,0.9l3.5,0.7l4.4,26.3h-32.1c1.7-10.1,3.3-20.2,5-30.3l4.4-1l-4-1.1c0.7-3.9,1.3-7.9,2-11.8l3.3-1.5
	l-3-0.5l0.4-2.3c0.7-3.9,1.3-7.9,2-11.8l2.2-0.5l-2.1-0.2l0.5-2.8l2.5-0.2l-2.4-0.3l0.2-1.3l1.3-0.3l-1.2-0.1
	C366.3,78.7,368,68.3,369.7,58z"/>
<path class="st1" d="M1003.1,16.6l4.4,26.6h-1.5l1.5,0.3l0.3,1.6l-1.3,0.2l1.4,0.3l2,12h-2.1l2.2,0.4c0,0.2,1.1,6.8,1.2,7l0.9,5.5
	l-2.8,0.6l3,1l2.2,13.6l-3.2,0.9l3.5,0.7c1.4,8.8,2.9,17.5,4.3,26.3h-32.1l5-30.3l4.4-1l-4-1.1c0.7-4,1.3-7.9,2-11.8l3.3-1.5l-3-0.5
	l0.4-2.3c0.7-3.9,1.3-7.9,2-11.8l2.2-0.5l-2.1-0.2l0.5-2.9l2.5-0.2l-2.4-0.3L998,48l1.3-0.3l-1.2-0.1L1003.1,16.6z"/>
<path class="st1" d="M976.6,32.6l4.4,26.6h-1.5l1.5,0.3l0.3,1.6l-1.3,0.2l1.4,0.3l2,12.1h-2.1l2.2,0.4c0,0.2,1.1,6.8,1.2,7l0.9,5.5
	l-2.8,0.6l3,1l2.2,13.6l-3.2,0.9l3.5,0.7l4.3,26.3h-32.1c1.7-10.1,3.3-20.2,5-30.3l4.4-1l-4-1.1c0.7-3.9,1.3-7.9,2-11.8l3.3-1.5
	l-3-0.5l0.4-2.3c0.7-3.9,1.3-7.9,2-11.8l2.2-0.5l-2.1-0.2l0.5-2.9l2.5-0.2l-2.4-0.3l0.2-1.3l1.3-0.3l-1.2-0.1
	C973.2,53.3,974.9,42.9,976.6,32.6z"/>
<path class="st1" d="M858.3,22.1l4.4,26.6h-1.5l1.5,0.3l0.3,1.6l-1.3,0.2l1.4,0.3l2,12.1H863l2.2,0.4c0,0.2,1.1,6.8,1.2,7l0.9,5.5
	l-2.8,0.6l3,1l2.3,13.6l-3.2,0.9L870,93c1.5,8.8,2.9,17.5,4.3,26.3h-32.1c1.7-10.1,3.3-20.2,5-30.3l4.4-1l-4-1.1
	c0.7-4,1.3-7.9,2-11.8l3.4-1.5l-3-0.5l0.4-2.3l2-11.8l2.2-0.5l-2.1-0.2l0.5-2.8l2.5-0.2l-2.5-0.3l0.2-1.3l1.3-0.3l-1.2-0.1
	C854.9,42.8,856.6,32.5,858.3,22.1z"/>
<path class="st1" d="M878.6,50.2l4.4,26.6h-1.5l1.5,0.3l0.3,1.6l-1.3,0.2l1.4,0.3l2,12h-2.1l2.2,0.4c0,0.2,1.1,6.8,1.2,7l0.9,5.5
	l-2.8,0.6l3,1l2.3,13.6l-3.2,0.9l3.5,0.7c1.4,8.7,2.9,17.5,4.3,26.3h-32.1c1.7-10.1,3.3-20.2,5-30.3l4.4-1l-4-1.1
	c0.7-3.9,1.3-7.9,2-11.8l3.3-1.5l-3-0.5l0.4-2.3l2-11.8l2.2-0.5l-2.1-0.2l0.5-2.9l2.5-0.2l-2.4-0.3l0.2-1.3l1.3-0.3l-1.2-0.1
	C875.2,70.8,876.9,60.5,878.6,50.2z"/>
<path class="st1" d="M909.1,42.6l4.4,26.6H912l1.5,0.3l0.3,1.6l-1.3,0.2l1.4,0.3l2,12h-2.1l2.2,0.4c0,0.2,1.1,6.8,1.2,7l0.9,5.5
	l-2.8,0.6l3,1l2.2,13.6l-3.2,0.9l3.5,0.7c1.4,8.8,2.9,17.5,4.3,26.3H893l5-30.3l4.4-1l-4-1.1c0.7-3.9,1.3-7.9,2-11.8l3.3-1.4l-3-0.5
	l0.4-2.3c0.7-3.9,1.3-7.9,2-11.8l2.2-0.5l-2.1-0.2l0.5-2.8l2.5-0.2l-2.4-0.3L904,74l1.3-0.3l-1.3-0.1L909.1,42.6z"/>
<path class="st1" d="M1108.9,9.4l4.4,26.6h-1.4l1.5,0.3l0.3,1.6l-1.3,0.2l1.4,0.3l2,12h-2.1l2.2,0.4c0,0.2,1.1,6.8,1.2,7l0.9,5.5
	l-2.8,0.6l3,1l2.3,13.6l-3.2,0.9l3.4,0.7c1.4,8.8,2.9,17.5,4.3,26.3h-32.2c1.7-10.1,3.3-20.2,5-30.3l4.4-1l-4-1.1
	c0.7-4,1.3-7.9,2-11.8l3.3-1.5l-3-0.5l0.4-2.3l2-11.8l2.2-0.5l-2.1-0.2l0.5-2.9l2.5-0.2l-2.4-0.3l0.2-1.3l1.3-0.3l-1.2-0.1
	C1105.5,30.1,1107.2,19.7,1108.9,9.4z"/>
<path class="st1" d="M1092.8,32.6l4.4,26.6h-1.4l1.5,0.3l0.3,1.6l-1.3,0.2l1.4,0.3l2,12.1h-2.1l2.2,0.4c0,0.2,1.1,6.8,1.2,7l0.9,5.5
	l-2.8,0.6l3,1l2.2,13.6l-3.2,0.9l3.4,0.7l4.3,26.3h-32.2c1.7-10.1,3.3-20.2,5-30.3l4.4-1l-4-1.1c0.7-3.9,1.3-7.9,2-11.8l3.3-1.5
	l-3-0.5l0.4-2.3c0.7-3.9,1.3-7.9,2-11.8l2.2-0.5l-2.1-0.2l0.5-2.9l2.5-0.2l-2.4-0.3l0.2-1.3l1.3-0.3l-1.2-0.1
	C1089.4,53.3,1091.1,42.9,1092.8,32.6z"/>
<path class="st1" d="M1122,19.4l4.4,26.6h-1.4l1.5,0.3l0.3,1.6l-1.3,0.2l1.4,0.3l2,12.1h-2.1l2.2,0.4c0,0.2,1.1,6.8,1.2,7l0.9,5.5
	l-2.8,0.6l3,1l2.2,13.6l-3.2,0.9l3.5,0.7c1.4,8.8,2.9,17.5,4.3,26.3H1106c1.7-10.1,3.3-20.2,5-30.3l4.4-1l-4-1.1
	c0.7-4,1.3-7.9,2-11.8l3.3-1.5l-3-0.5l0.3-2.3c0.7-3.9,1.3-7.9,2-11.8l2.2-0.5l-2.1-0.2l0.5-2.8l2.5-0.2l-2.4-0.3l0.2-1.3l1.3-0.3
	l-1.2-0.1L1122,19.4z"/>
<path class="st1" d="M1063.2,44.3l4.4,26.6h-1.4l1.5,0.3l0.3,1.6l-1.3,0.2l1.4,0.3l2,12.1h-2.1l2.2,0.4c0,0.2,1.1,6.8,1.2,7l0.9,5.5
	l-2.8,0.6l3,1l2.3,13.6l-3.2,0.9l3.4,0.7c1.4,8.7,2.9,17.5,4.3,26.3h-32.2c1.7-10.1,3.3-20.2,5-30.3l4.4-1l-4-1.1
	c0.7-3.9,1.3-7.9,2-11.8l3.3-1.5l-3-0.5l0.4-2.3l2-11.8l2.2-0.5l-2.1-0.2l0.5-2.9l2.5-0.2l-2.4-0.3l0.2-1.3l1.3-0.3l-1.2-0.1
	C1059.8,65,1061.5,54.7,1063.2,44.3z"/>
<path class="st1" d="M1051.1,31.9l4.4,26.6h-1.4l1.5,0.3l0.3,1.6l-1.3,0.2l1.4,0.3l2,12h-2.1l2.2,0.4c0,0.2,1.1,6.8,1.2,7l0.9,5.5
	l-2.8,0.6l3,1l2.3,13.6l-3.2,0.9l3.4,0.7c1.5,8.8,2.9,17.5,4.3,26.3H1035c1.7-10.1,3.3-20.2,5-30.3l4.4-1l-4-1.1
	c0.7-3.9,1.3-7.9,2-11.8l3.3-1.5l-3-0.5l0.4-2.3l2-11.8l2.2-0.5l-2.1-0.2l0.5-2.9l2.5-0.2l-2.4-0.3l0.2-1.3l1.3-0.3l-1.2-0.1
	C1047.7,52.6,1049.3,42.3,1051.1,31.9z"/>
<path class="st1" d="M1025.3,41.5l4.4,26.6h-1.4l1.5,0.3l0.2,1.7l-1.3,0.2l1.4,0.3l2,12.1h-2.1l2.2,0.4c0,0.2,1.1,6.8,1.2,7l0.9,5.5
	l-2.8,0.6l3,1l2.2,13.6l-3.2,0.9l3.4,0.7l4.3,26.3h-32.1l5-30.3l4.4-1l-4-1.1c0.7-4,1.3-7.9,2-11.8l3.3-1.5l-3-0.5l0.4-2.3
	c0.7-3.9,1.3-7.9,2-11.8l2.2-0.5l-2.1-0.2l0.5-2.9l2.5-0.2l-2.4-0.3l0.2-1.3l1.3-0.3l-1.2-0.1L1025.3,41.5z"/>
<path class="st1" d="M790.8,28.3l4.4,26.6h-1.5l1.5,0.3l0.3,1.6l-1.3,0.2l1.4,0.3l2,12.1h-2.1l2.2,0.4c0,0.2,1.1,6.8,1.2,7l0.9,5.5
	l-2.8,0.6l3,1l2.3,13.6l-3.2,0.9l3.5,0.7c1.5,8.8,2.9,17.5,4.3,26.3h-32.1c1.7-10.1,3.3-20.2,5-30.3l4.4-1l-4-1.1
	c0.7-3.9,1.3-7.9,2-11.8l3.3-1.5l-3-0.5l0.4-2.3l2-11.8l2.2-0.5l-2.1-0.2l0.5-2.8l2.5-0.2l-2.4-0.3l0.2-1.3l1.3-0.3l-1.2-0.1
	C787.4,48.9,789.1,38.6,790.8,28.3z"/>
<path class="st1" d="M765.7,41.8l4.4,26.6h-1.5l1.5,0.3l0.3,1.6l-1.3,0.2l1.4,0.3l2,12.1h-2.1l2.2,0.4c0,0.2,1.1,6.8,1.2,7l0.9,5.5
	l-2.8,0.6l3,1l2.3,13.6l-3.2,0.9l3.5,0.7c1.5,8.8,2.9,17.5,4.3,26.2h-32.1c1.7-10.1,3.3-20.2,5-30.3l4.4-1l-4-1.1
	c0.7-3.9,1.3-7.9,2-11.8l3.3-1.5l-3-0.5l0.4-2.3l2-11.8l2.2-0.5l-2.1-0.2l0.5-2.8l2.5-0.2l-2.4-0.3l0.2-1.3l1.3-0.3l-1.2-0.1
	C762.3,62.4,764,52.1,765.7,41.8z"/>
<path class="st1" d="M289.8,77.1l2.5,15.1h-0.8l0.9,0.2l0.2,0.9l-0.8,0.1l0.8,0.2l1.1,6.8h-1.2l1.2,0.2c0,0.1,0.6,3.9,0.7,4l0.5,3.1
	l-1.6,0.3l1.7,0.6l1.3,7.7l-1.8,0.5l2,0.4c0.8,5,1.6,9.9,2.5,14.9h-18.2c0.9-5.7,1.9-11.5,2.8-17.2l2.5-0.6l-2.3-0.6l1.1-6.7
	l1.9-0.8L285,106l0.2-1.3l1.1-6.7l1.2-0.3l-1.2-0.1l0.3-1.6l1.4-0.1l-1.4-0.2l0.1-0.8l0.7-0.2l-0.7-0.1
	C287.8,88.8,288.8,83,289.8,77.1z"/>
<path class="st1" d="M205,66l4.4,26.6H208l1.5,0.3l0.3,1.6l-1.3,0.2l1.4,0.3l2,12h-2.1l2.2,0.4c0,0.2,1.1,6.8,1.2,7l0.9,5.5
	l-2.8,0.6l3,1l2.2,13.6l-3.2,0.9l3.4,0.7c1.5,8.8,2.9,17.5,4.3,26.3H189c1.7-10.1,3.3-20.2,5-30.3l4.4-1l-4-1.1
	c0.7-3.9,1.3-7.9,2-11.8l3.3-1.5l-3-0.5l0.4-2.3l2-11.8l2.2-0.5l-2.1-0.2l0.5-2.8l2.5-0.2l-2.4-0.3l0.2-1.3l1.3-0.3L200,97L205,66z"
	/>
<path class="st1" d="M268.1,88l2.5,15h-0.8l0.9,0.2l0.2,0.9l-0.8,0.1l0.8,0.2l1.1,6.8h-1.2l1.2,0.2c0,0.1,0.6,3.9,0.7,4l0.5,3.1
	l-1.6,0.3l1.7,0.6l1.3,7.7l-1.8,0.5l2,0.4c0.8,5,1.6,9.9,2.5,14.9H259c0.9-5.7,1.9-11.5,2.8-17.2l2.5-0.6l-2.3-0.6l1.1-6.7l1.9-0.9
	l-1.7-0.3l0.2-1.3l1.1-6.7l1.3-0.3l-1.2-0.1l0.3-1.6l1.4-0.1l-1.4-0.2l0.1-0.8l0.7-0.2l-0.7-0.1C266.1,99.7,267.1,93.9,268.1,88z"/>
<path class="st1" d="M256.3,81l2.5,15.1H258l0.9,0.2l0.1,0.9l-0.8,0.1l0.8,0.2l1.1,6.8H259l1.2,0.2c0,0.1,0.6,3.9,0.7,4l0.5,3.1
	l-1.6,0.4l1.7,0.6l1.3,7.7l-1.8,0.5l2,0.4l2.5,14.9h-18.3L250,119l2.5-0.6l-2.3-0.6l1.1-6.7l1.9-0.8l-1.7-0.3l0.2-1.3l1.1-6.7
	l1.3-0.3l-1.2-0.1l0.3-1.6l1.4-0.1l-1.4-0.2l0.1-0.8l0.7-0.2l-0.7-0.1L256.3,81z"/>
<path class="st1" d="M178.7,79.1l2.5,15.1h-0.8l0.9,0.2l0.1,0.9l-0.8,0.1l0.8,0.2l1.1,6.8h-1.2l1.2,0.2l0.7,4l0.5,3.1l-1.6,0.3
	l1.7,0.6l1.3,7.7l-1.8,0.5l2,0.4c0.8,5,1.7,9.9,2.5,14.9h-18.3l2.8-17.2l2.5-0.6l-2.3-0.6l1.1-6.7l1.9-0.8l-1.7-0.3l0.2-1.3l1.1-6.7
	l1.3-0.3l-1.2-0.1l0.3-1.6l1.4-0.1l-1.4-0.2l0.1-0.8l0.7-0.2l-0.7-0.1C176.8,90.8,177.8,85,178.7,79.1z"/>
<path class="st1" d="M189.5,75.5l2.5,15.1h-0.8l0.9,0.2l0.2,0.9l-0.8,0.1l0.8,0.2l1.1,6.8h-1.2l1.2,0.2c0,0.1,0.6,3.9,0.7,4l0.5,3.1
	l-1.6,0.3l1.7,0.6l1.3,7.7l-1.8,0.5l2,0.4c0.8,5,1.6,9.9,2.5,14.9h-18.3c1-5.7,1.9-11.5,2.8-17.2l2.5-0.6l-2.3-0.6l1.1-6.7l1.9-0.8
	l-1.7-0.3l0.2-1.3l1.1-6.7l1.2-0.3l-1.2-0.1l0.3-1.6l1.4-0.1l-1.4-0.2l0.1-0.8l0.7-0.2l-0.7-0.1C187.5,87.3,188.5,81.4,189.5,75.5z"
	/>
<path class="st1" d="M164.9,95.7l2.5,15.1h-0.8l0.9,0.2l0.1,0.9l-0.8,0.1l0.8,0.2l1.1,6.8h-1.2l1.2,0.2l0.7,4l0.5,3.1l-1.6,0.3
	l1.7,0.6l1.3,7.7l-1.8,0.5l2,0.4l2.5,14.9h-18.3l2.9-17.2l2.5-0.6l-2.3-0.6l1.1-6.7l1.9-0.8l-1.7-0.3l0.2-1.3l1.1-6.7l1.3-0.3
	l-1.2-0.1l0.3-1.6l1.4-0.1l-1.4-0.2l0.1-0.8l0.7-0.2l-0.7-0.1L164.9,95.7z"/>
<path class="st1" d="M303.9,123.6l2.5,15.1h-0.8l0.9,0.2l0.1,0.9l-0.8,0.1l0.8,0.2l1.1,6.8h-1.2l1.2,0.2c0,0.1,0.6,3.9,0.7,4
	l0.5,3.1l-1.6,0.4l1.7,0.6l1.3,7.7l-1.8,0.5l2,0.4l2.4,14.9h-18.3l2.9-17.2l2.5-0.6l-2.3-0.6l1.1-6.7l1.9-0.9l-1.7-0.3l0.2-1.3
	l1.1-6.7l1.3-0.3l-1.2-0.1l0.3-1.6l1.4-0.1l-1.4-0.2l0.1-0.8l0.7-0.2l-0.7-0.1L303.9,123.6z"/>
<path class="st1" d="M316.4,111.6l2.5,15.1h-0.8l0.9,0.2l0.1,0.9l-0.8,0.1l0.8,0.2l1.1,6.8h-1.2l1.2,0.2l0.7,4l0.5,3.1l-1.6,0.4
	l1.7,0.6l1.3,7.7l-1.8,0.5l2,0.4c0.8,5,1.7,9.9,2.5,14.9h-18.2l2.9-17.2l2.5-0.6l-2.3-0.6l1.1-6.7l1.9-0.8l-1.7-0.3l0.2-1.3l1.1-6.7
	l1.3-0.3l-1.2-0.1l0.3-1.6l1.4-0.1l-1.4-0.1l0.1-0.8l0.7-0.2l-0.7-0.1L316.4,111.6z"/>
<path class="st1" d="M331.6,114l2.5,15.1h-0.8l0.9,0.2l0.1,0.9l-0.8,0.1l0.8,0.2l1.1,6.8h-1.2l1.2,0.2c0,0.1,0.6,3.9,0.7,4l0.5,3.1
	l-1.6,0.4l1.7,0.6l1.3,7.7l-1.8,0.5l2,0.4l2.4,14.9h-18.2l2.9-17.2l2.5-0.6l-2.3-0.6l1.1-6.7l1.9-0.9l-1.7-0.3l0.2-1.3l1.1-6.7
	l1.3-0.3l-1.2-0.1l0.3-1.6l1.4-0.1l-1.4-0.1l0.1-0.8l0.7-0.2l-0.7-0.1L331.6,114z"/>
<path class="st1" d="M414.5,88.6l2.5,15.1h-0.8l0.9,0.2l0.1,0.9l-0.8,0.1l0.8,0.2l1.1,6.8h-1.2l1.2,0.2c0,0.1,0.6,3.9,0.7,4l0.5,3.1
	l-1.6,0.4l1.7,0.6l1.3,7.7l-1.8,0.5l2,0.4l2.5,14.9h-18.3l2.9-17.2l2.5-0.6l-2.3-0.6l1.1-6.7l1.9-0.8l-1.7-0.3l0.3-1.3l1.1-6.7
	l1.3-0.3l-1.2-0.1l0.3-1.6l1.4-0.1l-1.4-0.2l0.1-0.8l0.7-0.2l-0.7-0.1L414.5,88.6z"/>
<path class="st1" d="M359.1,127.6l2.5,15.1h-0.8l0.9,0.2l0.1,0.9l-0.8,0.1l0.8,0.2l1.1,6.8h-1.2l1.2,0.2c0,0.1,0.6,3.9,0.7,4
	l0.5,3.1l-1.6,0.4l1.7,0.6l1.3,7.7l-1.8,0.5l2,0.4l2.5,14.9H350l2.9-17.2l2.5-0.6l-2.3-0.6l1.1-6.7l1.9-0.9l-1.7-0.3l0.2-1.3
	l1.1-6.7l1.3-0.3l-1.2-0.1l0.3-1.6l1.4-0.1l-1.4-0.1l0.1-0.8l0.7-0.2l-0.7-0.1L359.1,127.6z"/>
<path class="st1" d="M423.6,106.6l2.5,15.1h-0.8l0.9,0.2l0.1,0.9l-0.8,0.1l0.8,0.2l1.1,6.9h-1.2l1.2,0.2c0,0.1,0.6,3.9,0.7,4
	l0.5,3.1l-1.6,0.4l1.7,0.6l1.3,7.7l-1.8,0.5l2,0.4l2.5,14.9h-18.3l2.9-17.2l2.5-0.6l-2.3-0.6l1.1-6.7l1.9-0.9l-1.7-0.3l0.2-1.3
	l1.1-6.7l1.3-0.3l-1.2-0.1l0.3-1.6l1.4-0.1l-1.4-0.2l0.1-0.8l0.7-0.2l-0.7-0.1L423.6,106.6z"/>
<path class="st1" d="M406.2,102.3l2.5,15.1h-0.8l0.9,0.2l0.1,0.9l-0.8,0.1l0.8,0.2l1.1,6.8h-1.2l1.2,0.2c0,0.1,0.6,3.9,0.6,4
	l0.5,3.1l-1.6,0.4l1.7,0.6l1.3,7.7l-1.8,0.5l2,0.4l2.5,14.9h-18.3l2.9-17.2l2.5-0.6l-2.3-0.6l1.1-6.7l1.9-0.9l-1.7-0.3l0.2-1.3
	l1.1-6.7l1.3-0.3l-1.2-0.1l0.3-1.6l1.4-0.1l-1.4-0.2l0.1-0.8l0.7-0.2l-0.7-0.1L406.2,102.3z"/>
<path class="st1" d="M860.3,99.2l2.5,15.1H862l0.9,0.2l0.2,0.9l-0.8,0.1l0.8,0.2l1.1,6.8H863l1.2,0.2l0.7,4l0.5,3.1l-1.6,0.4
	l1.7,0.6l1.3,7.7L865,139l2,0.4l2.5,14.9h-18.3l2.8-17.2l2.5-0.6l-2.3-0.6l1.1-6.7l1.9-0.9l-1.7-0.3l0.2-1.3l1.1-6.7l1.3-0.3
	l-1.2-0.1l0.3-1.6l1.4-0.1l-1.4-0.2l0.1-0.8l0.7-0.2l-0.7-0.1L860.3,99.2z"/>
<path class="st1" d="M730.4,71.8l2.5,15.1h-0.8l0.8,0.2l0.2,0.9l-0.8,0.1l0.8,0.2l1.1,6.8h-1.2l1.2,0.2l0.7,4l0.5,3.1l-1.6,0.3
	l1.7,0.6l1.3,7.7l-1.8,0.5l2,0.4c0.8,5,1.6,9.9,2.5,14.9h-18.3c1-5.7,1.9-11.5,2.8-17.2l2.5-0.6l-2.3-0.6l1.1-6.7l1.9-0.8l-1.7-0.3
	l0.2-1.3l1.1-6.7l1.2-0.3l-1.2-0.1l0.3-1.6l1.4-0.1l-1.4-0.2l0.1-0.8l0.7-0.2l-0.7-0.1C728.5,83.5,729.4,77.7,730.4,71.8z"/>
<path class="st1" d="M812.2,75.3l2.5,15.1h-0.8l0.8,0.2l0.2,0.9l-0.8,0.1l0.8,0.2l1.1,6.8h-1.2l1.2,0.2l0.7,4l0.5,3.1l-1.6,0.3
	l1.7,0.6l1.3,7.7l-1.8,0.5l2,0.4c0.8,5,1.6,9.9,2.5,14.9h-18.3c0.9-5.7,1.9-11.5,2.8-17.2l2.5-0.6l-2.3-0.6l1.1-6.7l1.9-0.8
	l-1.7-0.3l0.2-1.3l1.1-6.7l1.3-0.3l-1.2-0.1l0.3-1.6l1.4-0.1l-1.4-0.2l0.1-0.8L810,93l-0.7-0.1C810.3,87.1,811.3,81.2,812.2,75.3z"
	/>
<path class="st1" d="M832.4,91.9l2.5,15.1h-0.8l0.8,0.2l0.2,0.9l-0.8,0.1l0.8,0.2l1.1,6.8h-1.2l1.2,0.2c0,0.1,0.6,3.9,0.7,4l0.5,3.1
	l-1.6,0.3l1.7,0.6l1.3,7.7l-1.8,0.5l2,0.4c0.8,5,1.6,9.9,2.5,14.9h-18.3c0.9-5.7,1.9-11.5,2.8-17.2l2.5-0.6l-2.3-0.6l1.1-6.7
	l1.9-0.8l-1.7-0.3l0.2-1.3l1.1-6.7l1.3-0.3l-1.2-0.1l0.3-1.6l1.4-0.1l-1.4-0.2l0.1-0.8l0.7-0.2l-0.7-0.1
	C830.5,103.7,831.5,97.8,832.4,91.9z"/>
<path class="st1" d="M948.5,111.1l2.5,15.1h-0.8l0.8,0.2l0.2,0.9l-0.8,0.1l0.8,0.2l1.1,6.8h-1.2l1.2,0.2c0,0.1,0.6,3.9,0.7,4
	l0.5,3.1l-1.6,0.4l1.7,0.6l1.3,7.7l-1.8,0.5l2,0.4c0.8,5,1.6,9.9,2.5,14.9h-18.3c0.9-5.7,1.9-11.5,2.8-17.2l2.5-0.6l-2.3-0.6
	l1.1-6.7l1.9-0.9l-1.7-0.3l0.2-1.3l1.1-6.7l1.2-0.3l-1.2-0.1l0.3-1.6l1.4-0.1l-1.4-0.2l0.1-0.8l0.7-0.2l-0.7-0.1
	C946.5,122.9,947.5,117,948.5,111.1z"/>
<path class="st1" d="M934.1,77.6l2.5,15.1h-0.8l0.9,0.2l0.2,0.9l-0.8,0.1l0.8,0.2l1.1,6.8h-1.2l1.2,0.2c0,0.1,0.7,3.9,0.7,4l0.5,3.1
	l-1.6,0.3l1.7,0.6l1.3,7.7l-1.8,0.5l2,0.4l2.5,14.9H925l2.8-17.2l2.5-0.6l-2.3-0.6l1.1-6.7l1.9-0.8l-1.7-0.3l0.2-1.3l1.1-6.7
	l1.3-0.3l-1.2-0.1l0.3-1.6l1.4-0.1l-1.4-0.2l0.1-0.8l0.7-0.2l-0.7-0.1L934.1,77.6z"/>
<path class="st1" d="M1009.2,112.2l2.5,15.1h-0.8l0.8,0.2l0.2,0.9l-0.8,0.1l0.8,0.2l1.1,6.8h-1.2l1.2,0.2c0,0.1,0.6,3.9,0.7,4
	l0.5,3.1l-1.6,0.4l1.7,0.6l1.3,7.7l-1.8,0.5l2,0.4c0.8,5,1.6,9.9,2.5,14.9h-18.2c0.9-5.7,1.9-11.5,2.8-17.2l2.5-0.6l-2.3-0.6
	l1.1-6.7l1.9-0.9l-1.7-0.3l0.2-1.3l1.1-6.7l1.3-0.3l-1.2-0.1l0.3-1.6l1.4-0.1l-1.4-0.1l0.1-0.8l0.7-0.2l-0.7-0.1
	C1007.3,124,1008.3,118.1,1009.2,112.2z"/>
<path class="st1" d="M796.6,134.3l2.5,15.1h-0.8l0.9,0.2l0.2,0.9l-0.8,0.1l0.8,0.2l1.1,6.8h-1.2l1.2,0.2c0,0.1,0.6,3.9,0.7,4
	l0.5,3.1l-1.6,0.4l1.7,0.6l1.3,7.7l-1.8,0.5l2,0.4c0.8,5,1.7,9.9,2.5,14.9h-18.2l2.8-17.2l2.5-0.6l-2.3-0.6l1.1-6.7l1.9-0.9
	l-1.7-0.3l0.2-1.3l1.1-6.7l1.3-0.3l-1.2-0.1l0.3-1.6l1.4-0.1l-1.4-0.1l0.1-0.8l0.7-0.2l-0.7-0.1C794.7,146,795.7,140.2,796.6,134.3z
	"/>
<path class="st1" d="M334.9,24.4l2.5,15.1h-0.8l0.9,0.2l0.2,0.9l-0.8,0.1l0.8,0.2l1.1,6.8h-1.2l1.2,0.2c0,0.1,0.6,3.9,0.7,4l0.5,3.1
	l-1.6,0.3l1.7,0.6l1.3,7.7l-1.8,0.5l2,0.4c0.8,4.9,1.6,9.9,2.5,14.9h-18.2c1-5.7,1.9-11.5,2.8-17.2l2.5-0.5l-2.3-0.6l1.1-6.7
	l1.9-0.8l-1.7-0.3l0.2-1.3l1.1-6.7l1.2-0.3l-1.2-0.1l0.3-1.6l1.4-0.1l-1.4-0.1l0.1-0.8l0.7-0.2L332,42
	C333,36.1,333.9,30.2,334.9,24.4z"/>
<path class="st1" d="M250.1,13.2l4.4,26.6h-1.4l1.5,0.3l0.3,1.6l-1.3,0.2l1.4,0.3l2,12h-2.1l2.2,0.4c0,0.2,1.1,6.8,1.2,7l0.9,5.5
	l-2.8,0.6l3,1l2.2,13.6l-3.2,0.9l3.5,0.7c1.5,8.8,3,17.5,4.4,26.3h-32.1c1.7-10.1,3.3-20.2,5-30.3l4.4-1l-4-1.1
	c0.7-4,1.3-7.9,2-11.8l3.3-1.5l-3-0.5l0.4-2.3l2-11.8l2.2-0.5l-2.1-0.2l0.5-2.8l2.5-0.2l-2.4-0.2l0.2-1.3l1.3-0.3l-1.2-0.1
	L250.1,13.2z"/>
<path class="st1" d="M313.2,35.2l2.5,15.1h-0.8l0.9,0.2l0.2,0.9l-0.8,0.1l0.8,0.2l1.1,6.8h-1.2l1.2,0.2c0,0.1,0.6,3.9,0.7,4l0.5,3.1
	l-1.6,0.3l1.7,0.6l1.3,7.7l-1.8,0.5l2,0.4c0.8,5,1.6,9.9,2.5,14.9h-18.2c1-5.7,1.9-11.5,2.8-17.2l2.5-0.6l-2.3-0.6l1.1-6.7l1.9-0.9
	l-1.7-0.3l0.2-1.3l1.1-6.7l1.3-0.3l-1.2-0.1l0.3-1.6l1.4-0.1l-1.4-0.2l0.1-0.8l0.7-0.2l-0.7-0.1C311.3,47,312.3,41.1,313.2,35.2z"/>
<path class="st1" d="M361.6,58.9l2.5,15.1h-0.8l0.9,0.2l0.1,0.9l-0.8,0.1l0.8,0.2l1.1,6.8h-1.2l1.2,0.2l0.7,4l0.5,3.1l-1.6,0.3
	l1.7,0.6l1.3,7.7l-1.8,0.5l2,0.4c0.8,5,1.7,9.9,2.5,14.9h-18.3l2.9-17.2l2.5-0.6l-2.3-0.6l1.1-6.7l1.9-0.9l-1.7-0.3l0.2-1.3l1.1-6.7
	l1.3-0.3l-1.2-0.1l0.3-1.6l1.4-0.1l-1.4-0.2l0.1-0.8l0.7-0.2l-0.7-0.1L361.6,58.9z"/>
<path class="st1" d="M376.8,61.2l2.5,15.1h-0.8l0.9,0.2l0.1,0.9l-0.8,0.1l0.8,0.2l1.1,6.8h-1.2l1.2,0.2c0,0.1,0.6,3.9,0.7,4l0.5,3.1
	l-1.6,0.3l1.7,0.6l1.3,7.7l-1.8,0.5l2,0.4l2.4,14.9h-18.2l2.9-17.2l2.5-0.6l-2.3-0.6l1.1-6.7l1.9-0.8l-1.7-0.3l0.2-1.3l1.1-6.7
	l1.3-0.3l-1.2-0.1l0.3-1.6l1.4-0.1l-1.4-0.2l0.1-0.8l0.7-0.2l-0.7-0.1L376.8,61.2z"/>
</svg>
