<?xml version="1.0" encoding="utf-8"?>
<!-- Generator: Adobe Illustrator 24.1.2, SVG Export Plug-In . SVG Version: 6.00 Build 0)  -->
<svg version="1.1" id="Слой_1" xmlns="http://www.w3.org/2000/svg" xmlns:xlink="http://www.w3.org/1999/xlink" x="0px" y="0px"
	 viewBox="0 0 1815 1815" style="enable-background:new 0 0 1815 1815;" xml:space="preserve">
<style type="text/css">
	.st0{fill:#2EB4FF;stroke:#2EB4FF;stroke-miterlimit:10;}
	.st1{fill:none;stroke:#2EB4FF;stroke-width:100;stroke-miterlimit:10;}
</style>
<path class="st0" d="M907.5,100c109.1,0,214.8,21.3,314.3,63.4c193.6,82.1,347.7,236.2,429.8,429.8c42.1,99.5,63.4,205.2,63.4,314.3
	s-21.3,214.8-63.4,314.3c-82.1,193.6-236.2,347.7-429.8,429.8c-99.5,42.1-205.2,63.4-314.3,63.4s-214.8-21.3-314.3-63.4
	c-193.6-82.1-347.7-236.2-429.8-429.8c-42.1-99.5-63.4-205.2-63.4-314.3s21.3-214.8,63.4-314.3c82.1-193.6,236.2-347.7,429.8-429.8
	C692.7,121.3,798.4,100,907.5,100 M907.5,0C406.3,0,0,406.3,0,907.5S406.3,1815,907.5,1815S1815,1408.7,1815,907.5S1408.7,0,907.5,0
	L907.5,0z"/>
<line class="st1" x1="58" y1="892" x2="1751" y2="892"/>
<line class="st1" x1="58" y1="892" x2="907" y2="1746"/>
<line class="st1" x1="1751" y1="892" x2="918" y2="1751"/>
<line class="st1" x1="905" y1="49" x2="1334" y2="1321"/>
<line class="st1" x1="905" y1="49" x2="482" y2="1321"/>
<path class="st0" d="M263.8,1043.4c20.7,1.7,41.5,2.8,62.3,3.2c5.9,0.1,11.8,0.2,17.7,0.2c4.4,0,9.1-3.3,10.1-7.7
	c0.4-1.8,0.4-3.7,0-5.6c-0.6-2.8-2.7-4.6-4.8-6.3c-1.6-1.2-3.2-2.5-4.8-3.7l2.1,1.6c-15.9-12.3-31.2-25.3-45.9-39
	c-4.2-3.9-8.3-7.8-12.4-11.8l-7.4,17.9l71,0.9l20,0.3c4.4,0.1,9.1-3.3,10.1-7.7c0.4-1.8,0.4-3.7,0-5.6c-0.6-2.8-2.7-4.6-4.8-6.3
	c-13.6-10.2-27.3-20.4-41.1-30.4c-13.8-10-27.6-20-41.6-29.8c-7.9-5.5-15.7-11.1-23.6-16.5c-5-3-11.4-1.3-14.4,3.7
	c-1.5,2.5-1.8,5.4-1.1,8.2c0.8,2.6,2.5,4.8,4.8,6.3c14,9.7,27.9,19.5,41.8,29.4c13.9,9.9,27.6,19.9,41.3,30.1
	c7.7,5.7,15.5,11.5,23.1,17.3l5.3-19.6l-71-0.9l-20-0.3c-5.8,0.1-10.5,4.9-10.4,10.7c0,2.7,1.1,5.3,3,7.2
	c15.6,15.3,31.9,29.7,48.9,43.4c5.4,4.3,10.8,8.6,16.4,12.7l5.3-19.6c-20.8-0.1-41.6-0.8-62.4-2.1c-5.9-0.4-11.7-0.8-17.6-1.3
	c-2.5-0.2-5.7,1.3-7.4,3.1c-4.1,4.1-4.1,10.7,0,14.8c0,0,0,0,0,0l0,0C258.4,1042.2,261.1,1043.3,263.8,1043.4L263.8,1043.4z"/>
<path class="st0" d="M1562.5,1022.3c-20.7,1.7-41.5,2.8-62.3,3.2c-5.9,0.1-11.8,0.2-17.7,0.2l5.3,19.6c18-13.6,35.3-28,51.8-43.4
	c4.5-4.2,9-8.5,13.4-12.8c4.1-4.2,4-10.9-0.2-14.9c-1.9-1.9-4.5-3-7.2-3l-71,0.9l-20,0.3l5.3,19.6c13.6-10.2,27.3-20.4,41.1-30.4
	s27.6-20,41.6-29.7c7.9-5.5,15.7-11.1,23.7-16.5c2.3-1.4,4-3.7,4.8-6.3c0.7-2.7,0.3-5.6-1.1-8.1c-1.4-2.4-3.6-4.1-6.3-4.8
	c-2.6-0.6-5.8-0.5-8.1,1.1c-14,9.7-27.9,19.5-41.8,29.4c-13.9,9.9-27.7,19.9-41.3,30.1c-7.7,5.7-15.5,11.5-23.2,17.3
	c-1.9,1.2-3.4,3-4.3,5c-1,2.1-1.2,4.6-0.5,6.8c1.3,4.5,5.4,7.6,10.1,7.7l71-0.9l20-0.3l-7.4-17.9c-14.3,14.1-29.3,27.5-44.9,40.2
	c-4.4,3.6-8.9,7.2-13.4,10.6l2.1-1.6c-1.6,1.2-3.2,2.5-4.8,3.7c-1.9,1.2-3.4,3-4.3,5c-1,2.1-1.2,4.6-0.5,6.8
	c1.3,4.5,5.4,7.6,10.1,7.7c20.8-0.1,41.6-0.8,62.4-2.1c5.9-0.4,11.7-0.8,17.6-1.3c2.8-0.1,5.4-1.2,7.4-3.1c4.1-4.1,4.1-10.7,0-14.8
	c0,0,0,0,0,0l0,0C1567.9,1023.6,1565.3,1022.1,1562.5,1022.3L1562.5,1022.3z"/>
<path class="st0" d="M831.1,367.6c4.1,15.8,8.5,31.6,13,47.3c4.5,15.7,9.2,31.5,14.1,47.3c2.8,8.8,5.6,17.7,8.4,26.5
	c1.4,4.3,5.4,7.9,10.1,7.7c1.9-0.1,3.7-0.6,5.3-1.4c2.4-1.4,4.1-3.6,4.8-6.3c6-30.3,13.4-60.4,22.1-90.1c2.4-8.2,4.9-16.3,7.5-24.4
	h-20.3l17,53.4l17,53.4l9.5,30c1.3,4.3,5.4,7.9,10.1,7.7c1.9-0.1,3.7-0.6,5.3-1.4c2.3-1.4,4-3.6,4.8-6.2
	c4.7-24.2,9.3-48.4,13.6-72.6c4.4-24.4,8.7-48.9,12.8-73.3c2.3-13.8,4.6-27.6,6.8-41.4c0.5-2.9,0.5-5.5-1.1-8.1
	c-2.9-5-9.4-6.7-14.4-3.8c-2.2,1.4-4.4,3.6-4.8,6.3c-3.9,24.5-8,48.9-12.2,73.3c-4.2,24.4-8.6,48.8-13.2,73.1
	c-2.5,13.6-5.1,27.2-7.8,40.9H960l-17-53.4l-16.9-53.4l-9.5-30c-1.4-4.3-5.4-7.9-10.1-7.7c-4.7,0.1-8.8,3.2-10.1,7.7
	c-9.5,29.2-17.6,58.8-24.3,88.8c-1.9,8.5-3.7,17.1-5.4,25.6h20.3c-5.1-15.6-10-31.2-14.7-46.9s-9.3-31.5-13.7-47.4
	c-2.5-8.9-4.9-17.8-7.2-26.8c-0.8-2.6-2.5-4.9-4.8-6.3c-5-2.9-11.4-1.2-14.4,3.8C830.8,362,830.4,364.9,831.1,367.6L831.1,367.6z"/>
</svg>
