<svg id="Слой_1" data-name="Слой 1" xmlns="http://www.w3.org/2000/svg" viewBox="0 0 1300 2000">
  <defs>
    <style>
      .cls-1, .cls-9 {
        fill: #7eeafc;
      }

      .cls-1, .cls-12, .cls-2, .cls-4, .cls-5, .cls-6 {
        stroke: #000;
      }

      .cls-1, .cls-10, .cls-11, .cls-12, .cls-2, .cls-4, .cls-5, .cls-6 {
        stroke-miterlimit: 10;
      }

      .cls-1 {
        stroke-width: 19.03px;
      }

      .cls-2, .cls-6, .cls-7 {
        fill: #fbd2ff;
      }

      .cls-2 {
        stroke-width: 16.92px;
      }

      .cls-3 {
        fill: #b339b7;
      }

      .cls-4 {
        fill: #3972ff;
      }

      .cls-4, .cls-5 {
        stroke-width: 14.8px;
      }

      .cls-5 {
        fill: #f7a219;
      }

      .cls-6 {
        stroke-width: 11.36px;
      }

      .cls-8 {
        fill: #f2f2f2;
      }

      .cls-10 {
        fill: #2eb4ff;
        stroke-width: 0.06px;
      }

      .cls-10, .cls-11 {
        stroke: #2eb4ff;
      }

      .cls-11, .cls-12 {
        fill: none;
      }

      .cls-11 {
        stroke-width: 5.62px;
      }

      .cls-12 {
        stroke-width: 5px;
      }
    </style>
  </defs>
  <path class="cls-1" d="M566.89,740.21s-128.18,22.35-183.87,66-74.6,76.61-90.36,203.22S281.1,1357.32,282.15,1435A687.36,687.36,0,0,0,406.4,1535c149.16,93.56,296.94,104,296,109.59-.55,3.31-53.23-1-275.28-33l-99.82,69.16a796.67,796.67,0,0,1,151,9c113.82,17.78,203.91,57.19,203,60.11-.46,1.56-26.89-7.26-76.56-15.69a885.72,885.72,0,0,0-94.7-10.91L439.76,1767s264.77-30.85,299.44,167a157.33,157.33,0,0,0,1.71-55.59c-8-52.64-41.58-81.61-35.33-89.11,4.11-4.93,24.29.72,94.56,46.81l48.33-53.2a204,204,0,0,0-26.92-31.52c-42.64-40.63-91.82-51.4-90.75-54.66.66-2,19.61,1.64,49.25,10.38a763.54,763.54,0,0,1,86.28,31.12c32.32-30.21,49.77-63.42,39.93-84.06-5.44-11.42-18.41-16.28-44.13-25.53-42.36-15.25-79.81-18.41-79.85-18.09s12.11,2.06,66.19,9.58A562,562,0,0,0,928.32,1479c73.81-191.39,24.26-386.44,26.27-386.62,1-.09,12.35,52.57,12.35,128.34,0,154-46.65,273.22-79.59,340.88a107.7,107.7,0,0,0,52.53-11.71c52.83-27.46,61.19-91,62-97.88,17.46-81.1,67.41-332.77,29.42-507.52-6.15-28.32-15.14-58.34-35.37-88.67C963.83,807.71,903.81,762,782.28,731.7,585.8,682.76,566.89,740.21,566.89,740.21Z"/>
  <path d="M487.7,1522c.23-12.15,1.34-23.78,2.26-35.37l1.5-17.26c.5-5.74,1-11.48,1.58-17.38a152.88,152.88,0,0,1,2.84-17.92,125.48,125.48,0,0,1,5.25-17.5c4.38-11.33,10.15-22.1,18-31.41-1,6-2.23,11.79-3.33,17.55s-2.24,11.4-3.19,17S510.76,1431,510,1436.6s-1.31,11.2-1.93,17-1.35,11.74-2.41,17.64a172.24,172.24,0,0,1-4,17.55,165.83,165.83,0,0,1-5.87,17A110.6,110.6,0,0,1,487.7,1522Z"/>
  <path d="M490.12,1519.06c-4-11.47-7.07-22.74-10.26-33.93l-4.63-16.69c-1.54-5.56-3.12-11.09-4.6-16.83a156.45,156.45,0,0,1-3.62-17.79,126.58,126.58,0,0,1-1.2-18.23c.14-12.15,1.78-24.26,5.89-35.72,1.19,6,2,11.83,3,17.6s1.9,11.46,3,17.09,2.19,11.2,3.46,16.69,2.7,11,4.14,16.6,2.84,11.47,3.92,17.38a175.92,175.92,0,0,1,2.35,17.84,166.18,166.18,0,0,1,.45,18A110.75,110.75,0,0,1,490.12,1519.06Z"/>
  <path class="cls-1" d="M270.6,1420.1c1.91-4.1,20.09-44.53,0-74.48-2.9-4.32-11.77-17.55-27.32-20.22-19.43-3.33-35.2,12.24-36.77,13.83-25.35,25.78-19.8,84,7.35,114.91,2.51,2.87,16.38,12.91,44.13,33,22.6,16.36,33.9,24.53,41,28.73,12.77,7.56,39.83,23.6,69.34,26.59,22.77,2.32,49.12-9.77,100.87-34,43.52-20.42,89.13-45.66,89.3-45.75,4.06-3.65,56.86-52.27,44.13-96.83-1.69-5.92-7.52-26.3-24.16-31.92-12.86-4.33-25.11,2.52-26.27,3.2-15.22,8.81-15,25-27.32,56.39-12.51,31.75-27.36,52.11-27.32,52.13a316,316,0,0,0,21-41.49c14.21-33.79,23.4-55.65,15.76-78.74-1.07-3.22-11-31.65-36.78-37.24-20.89-4.52-44.56,7.58-57.78,30.86,8.53,19.5,10,35.6,10.11,45.62.09,14.38-3.66,28.07-11.16,55.46-5.17,18.86-9.7,32.14-10.51,31.92-2.25-.61,41.18-99.46,5.25-138.32-8.62-9.32-24.13-17.7-41-16a47.18,47.18,0,0,0-35.73,23.41c-7.39,13.24-5.61,26.64-4.2,37.24,2.56,19.29,9.21,20.35,12.61,39.36,1.87,10.47,5.88,33-7.36,47.88-10.31,11.64-25.66,12.55-29.42,12.77-16.3,1-28.05-7.14-34.67-11.7A72.3,72.3,0,0,1,270.6,1420.1Z"/>
  <path class="cls-2" d="M913.09,271.53s38.88-66,20-209.61c0,0-168.11,138.32-190.17,119.17S913.09,271.53,913.09,271.53Z"/>
  <path class="cls-2" d="M387.42,271.41s-38.88-66-20-209.6c0,0,168.11,138.32,190.18,119.16S387.42,271.41,387.42,271.41Z"/>
  <path class="cls-3" d="M825.08,244.11c1-1.16,2.07-2.26,3.13-3.36s2.15-2.16,3.23-3.22c2.18-2.12,4.41-4.16,6.65-6.17l-.23.17A106.69,106.69,0,0,0,851.59,213a140.66,140.66,0,0,0,9.63-21c2.85-7.35,5.57-14.81,8.28-22.35,1.36-3.77,2.72-7.56,4.14-11.36s2.85-7.62,4.48-11.44a98.17,98.17,0,0,1,0,12.37c-.24,4.11-.7,8.2-1.31,12.27a143.48,143.48,0,0,1-5.83,24,109.93,109.93,0,0,1-4.61,11.67,72.12,72.12,0,0,1-6.41,11.13,68.38,68.38,0,0,1-18.13,17.81l-.23.18c-2.67,1.4-5.36,2.77-8.11,4.07-1.37.65-2.74,1.29-4.14,1.9S826.51,243.55,825.08,244.11Z"/>
  <path class="cls-3" d="M822.66,237.19c1.27-.86,2.57-1.66,3.87-2.45s2.62-1.55,3.93-2.29c2.64-1.5,5.3-2.9,8-4.28l-.27.11a105.92,105.92,0,0,0,17.89-14.43A139.38,139.38,0,0,0,870.59,196c4.58-6.39,9.06-12.91,13.55-19.52,2.25-3.3,4.51-6.63,6.82-9.95s4.65-6.65,7.19-9.94A97.92,97.92,0,0,1,895,168.56c-1.25,3.92-2.71,7.75-4.31,11.53a143,143,0,0,1-11.6,21.77A110.06,110.06,0,0,1,871.76,212a72.51,72.51,0,0,1-9,9.16,68.06,68.06,0,0,1-22,12.63l-.27.12c-2.93.67-5.87,1.32-8.85,1.87-1.49.28-3,.55-4.48.79S824.19,237,822.66,237.19Z"/>
  <path class="cls-3" d="M820,236.17c1.44-.53,2.89-1,4.33-1.48s2.9-.89,4.36-1.31,2.9-.81,4.36-1.19,2.92-.74,4.38-1.11l-.29,0a105.2,105.2,0,0,0,20.69-9.84,137.37,137.37,0,0,0,18.2-13.95c5.92-5.14,11.76-10.44,17.64-15.82,2.94-2.69,5.89-5.4,8.9-8.09s6-5.39,9.26-8a96.48,96.48,0,0,1-5.75,10.89c-2.11,3.52-4.4,6.91-6.83,10.21A140.89,140.89,0,0,1,883,215a110,110,0,0,1-9.48,8.13A71.68,71.68,0,0,1,862.71,230a67.52,67.52,0,0,1-24.27,7.15l-.29.05c-1.5,0-3,0-4.51-.08s-3-.09-4.53-.16-3-.17-4.53-.29S821.55,236.36,820,236.17Z"/>
  <path class="cls-3" d="M486.52,246c-1.53.19-3,.33-4.56.45s-3,.21-4.54.29-3,.13-4.52.16-3,.05-4.51.08l-.29-.05a67.52,67.52,0,0,1-24.27-7.15A71.68,71.68,0,0,1,433,232.94a108.52,108.52,0,0,1-9.48-8.13,141.71,141.71,0,0,1-16.27-18.47c-2.42-3.3-4.71-6.69-6.82-10.21a96.48,96.48,0,0,1-5.75-10.89c3.21,2.61,6.25,5.31,9.25,8s6,5.4,8.91,8.09c5.88,5.38,11.72,10.68,17.64,15.82a137.37,137.37,0,0,0,18.2,13.95,105.2,105.2,0,0,0,20.69,9.84l-.29-.05c1.46.37,2.92.71,4.38,1.11s2.91.78,4.36,1.19,2.91.85,4.35,1.31S485.08,245.45,486.52,246Z"/>
  <path class="cls-3" d="M474.14,235.69c-1.52-.18-3-.4-4.54-.63s-3-.51-4.48-.79c-3-.56-5.92-1.21-8.85-1.88l-.27-.11a67.9,67.9,0,0,1-22-12.64,71.69,71.69,0,0,1-9-9.15,107.73,107.73,0,0,1-7.37-10.13,142.16,142.16,0,0,1-11.61-21.77c-1.6-3.78-3.06-7.62-4.31-11.53a98.85,98.85,0,0,1-3.1-11.95c2.53,3.28,4.87,6.62,7.18,9.94s4.57,6.64,6.82,9.94c4.5,6.61,9,13.14,13.56,19.53a139.06,139.06,0,0,0,14.52,17.82,105.65,105.65,0,0,0,17.9,14.44l-.28-.12c2.68,1.38,5.35,2.79,8,4.28q2,1.13,3.93,2.29C471.57,234,472.87,234.83,474.14,235.69Z"/>
  <path class="cls-3" d="M474,237c-1.44-.56-2.85-1.16-4.25-1.77s-2.77-1.25-4.14-1.9c-2.75-1.3-5.44-2.68-8.11-4.08l-.23-.17a68.53,68.53,0,0,1-18.13-17.81,72.07,72.07,0,0,1-6.4-11.13,107.92,107.92,0,0,1-4.62-11.67,143.45,143.45,0,0,1-5.82-24c-.62-4.07-1.07-8.16-1.31-12.27a98.32,98.32,0,0,1,0-12.38c1.64,3.82,3.07,7.65,4.49,11.45s2.77,7.59,4.13,11.36c2.71,7.54,5.43,15,8.28,22.35a140.66,140.66,0,0,0,9.63,21,107.2,107.2,0,0,0,13.73,18.52l-.23-.17c2.25,2,4.48,4.05,6.65,6.17,1.09,1.06,2.17,2.12,3.23,3.22S473,235.84,474,237Z"/>
  <path class="cls-1" d="M652.5,129.5c-30.84-.35-98.28,3.11-169,44-88.6,51.23-126.26,128.78-138,156a236.39,236.39,0,0,1,67.94-30.84,338.11,338.11,0,0,0-59.89,84.06,343.56,343.56,0,0,0-35.72,134.06,143.35,143.35,0,0,1,42-44.69,141.07,141.07,0,0,1,49.39-21.28,216.54,216.54,0,0,0-31.79,43.89C340.11,563,350.55,633.19,356.5,661.5a388.39,388.39,0,0,1,73.75-88.33c-.66,23.76,1.55,70.84,30.25,117.33,23.48,38,53.63,57.78,83,77a384,384,0,0,0,117,51c33.45-5.27,79.84-17.83,126-49,23-15.53,54.85-37,78-79,24.24-43.92,25.63-86.11,24.9-106.69a175.44,175.44,0,0,1,26.92,18.09,179.21,179.21,0,0,1,44.18,53.6,379.87,379.87,0,0,0-42.73-205.75s44.13-4.26,82,48.94A390,390,0,0,0,907.26,304,289.93,289.93,0,0,1,994.5,332.5c-15.15-30.14-62.88-115.19-166-166C755,130.31,687.25,128.14,652.5,129.5Z"/>
  <path d="M429.76,578.59a98.45,98.45,0,0,1-3.24,10q-1.84,4.83-3.94,9.49l.7-1.39a66.26,66.26,0,0,0-.19,12.64,73.6,73.6,0,0,0,2.18,12.08c1.06,4.09,2.38,8.34,3.7,12.77l3.88,13.24c1.27,4.43,2.54,8.85,3.73,13.53s2.17,9.44,2.89,14.24a132.38,132.38,0,0,1,1.45,14.53,90.93,90.93,0,0,1-.42,14.81c-2.84-4.17-5.21-8.41-7.51-12.63s-4.44-8.46-6.5-12.69-4-8.47-5.93-12.7-3.82-8.73-5.47-13.29-3.12-9.2-4.37-13.88a108.33,108.33,0,0,1-3-14.77,56.72,56.72,0,0,1,.25-16.13,48.41,48.41,0,0,1,5.19-15.11l.7-1.39c2.44-2.37,5-4.66,7.6-6.91A100.88,100.88,0,0,1,429.76,578.59Z"/>
  <path d="M396.67,462.38c-1.25,1.17-2.57,2.23-3.85,3.36s-2.61,2.16-3.93,3.2c-2.64,2.11-5.32,4.13-8,6.14l1-.78c-6.35,9.53-12.16,19.17-17.41,29a327.46,327.46,0,0,0-13.89,30.46c-4.24,10.42-8.17,21-11.93,31.77l-5.58,16.3c-1.86,5.48-3.69,11-5.77,16.59a117.11,117.11,0,0,1-.67-17.75A156.46,156.46,0,0,1,328.19,563a174.66,174.66,0,0,1,8.72-34.48c1-2.79,2.14-5.55,3.27-8.31s2.41-5.46,3.7-8.16a132.27,132.27,0,0,1,32.55-42.59l.84-.73.14-.05c3.15-1.16,6.31-2.31,9.52-3.37,1.59-.54,3.21-1.05,4.83-1.55S395,462.79,396.67,462.38Z"/>
  <path d="M399.45,470.79c-.91,1.62-1.89,3.17-2.87,4.72s-2,3.06-3.06,4.56l.24-.35c-2.05,5.34-4,10.64-5.75,16s-3.2,10.7-4.55,16.17-2.56,11-3.69,16.52l-3.25,17A72.26,72.26,0,0,1,375,527.86a97.57,97.57,0,0,1,2-17.46,90.49,90.49,0,0,1,5.19-16.89,85.79,85.79,0,0,1,8.46-15.42l.23-.34h0q2-1.81,4.17-3.56C396.51,473,397.94,471.87,399.45,470.79Z"/>
  <path d="M913.17,453.33c3.43.61,6.76,1.43,10.05,2.31s6.53,1.86,9.76,2.87h0l1.25,1a122.21,122.21,0,0,1,24.82,26.28,125.06,125.06,0,0,1,9.34,15.72,161.81,161.81,0,0,1,15.86,51.3,136.81,136.81,0,0,1,1.21,17.86,102.19,102.19,0,0,1-1.38,17.93c-2.56-5.5-4.71-11-6.88-16.35l-6.33-16c-4.18-10.59-8.37-21-12.75-31.25s-8.9-20.43-13.95-30c-5.15-9.78-10.77-19.42-16.84-29.14l1.27,1c-2.65-2.09-5.29-4.21-7.87-6.44S915.61,455.82,913.17,453.33Z"/>
  <path d="M889.5,684.5c-.5-2.27-.81-4.47-1.11-6.66s-.55-4.33-.78-6.46c-.44-4.26-.82-8.44-1.12-12.58-.62-8.27-1.06-16.38-1.47-24.49s-.79-16.22-1-24.52c-.1-4.15-.14-8.35-.12-12.63,0-2.14.06-4.31.15-6.51s.18-4.42.46-6.73a45.86,45.86,0,0,1,4.08,5.46c1.24,1.88,2.33,3.82,3.38,5.8a83.75,83.75,0,0,1,5.16,12.26,100.49,100.49,0,0,1,2.58,52.4,84.07,84.07,0,0,1-3.93,12.71c-.84,2.07-1.73,4.11-2.78,6.11A48.06,48.06,0,0,1,889.5,684.5Z"/>
  <path d="M635.71,533.27c-8.37,1.87-16.68,3.92-24.85,6.4s-16.27,5.12-24.2,8.17c-4,1.51-7.89,3.14-11.82,4.77s-7.88,3.33-11.78,5c-7.76,3.43-15.43,6.93-22.31,11.31a86,86,0,0,0-9.78,7.18,103.08,103.08,0,0,0-8.74,8.53,109.4,109.4,0,0,0-7.78,9.39c-1.23,1.61-2.31,3.3-3.44,5l-1.56,2.57-.77,1.28-.7,1.31a65.72,65.72,0,0,0-7.62,22,55.19,55.19,0,0,0,1.38,22.46,59,59,0,0,0,10.1,20.23A77.07,77.07,0,0,0,549,695a63.2,63.2,0,0,0,22.23,3c15-.68,29.9-6.67,42.82-15.64,3.22-2.24,6.36-4.64,9.4-7.24a89.47,89.47,0,0,0,8.34-8.07,94.92,94.92,0,0,0,13.38-19.07l8.49-15.87L662,648a85.92,85.92,0,0,0,13.19,18.78A82.68,82.68,0,0,0,693,681.14a87.85,87.85,0,0,0,43.81,13,70.47,70.47,0,0,0,22.41-3.24l1.36-.4a12.51,12.51,0,0,0,1.33-.5l2.65-1c1.79-.63,3.5-1.49,5.23-2.3.86-.42,1.7-.9,2.56-1.35l1.27-.68,1.25-.74,2.49-1.5,2.42-1.63a80.5,80.5,0,0,0,17.1-15.61l.93-1.1c.3-.37.57-.77.85-1.15l1.69-2.31c.58-.76,1-1.6,1.53-2.4s1-1.6,1.49-2.43a56.89,56.89,0,0,0,4.47-10.31l.84-2.67.58-2.74.29-1.37.15-.69.08-.69.32-2.78.17-1.4c0-.46,0-.93,0-1.4l.07-2.81c0-.94-.1-1.88-.14-2.82l-.09-1.4a9.49,9.49,0,0,0-.14-1.41,53.68,53.68,0,0,0-1-5.59c-.24-.93-.38-1.87-.69-2.78l-.85-2.75a69.92,69.92,0,0,0-4.66-10.69,86.09,86.09,0,0,0-6.42-10,116.58,116.58,0,0,0-7.83-9.36A77.63,77.63,0,0,0,770,567a183.71,183.71,0,0,0-22.58-10.68c-3.91-1.62-7.87-3.2-11.83-4.77s-7.88-3.1-11.87-4.54q-11.94-4.34-24.25-7.72c-4.09-1.17-8.21-2.22-12.35-3.23s-8.31-1.92-12.5-2.81c8.53.68,17,1.83,25.48,3.24s16.85,3.32,25.18,5.49c4.17,1.08,8.33,2.25,12.43,3.53s8.18,2.5,12.27,3.82a184.15,184.15,0,0,1,24.44,9.45A86.35,86.35,0,0,1,786,565.7a91.15,91.15,0,0,1,10.46,8.69,116.91,116.91,0,0,1,9.19,9.74,98.55,98.55,0,0,1,8,11.09,77.93,77.93,0,0,1,6.23,12.42l1.2,3.31c.43,1.1.68,2.26,1,3.39a63.9,63.9,0,0,1,1.58,6.93A15,15,0,0,1,824,623l.2,1.78c.11,1.18.32,2.37.34,3.56l.1,3.59c0,.59,0,1.19,0,1.79l-.11,1.79-.25,3.59-.07.9-.14.89-.3,1.77-.62,3.55-.93,3.47A71.68,71.68,0,0,1,817,663.05c-.53,1.06-1.14,2.07-1.72,3.11s-1.13,2.09-1.8,3.06l-2,2.94c-.33.49-.64,1-1,1.46L809.48,675a96,96,0,0,1-20,19.44l-2.83,2-2.93,1.89-1.47.94-1.52.88c-1,.57-2,1.18-3,1.73l-3.15,1.6c-1,.56-2.16,1-3.24,1.43l-3.28,1.37c-.55.22-1.09.48-1.65.66l-1.7.54a88.2,88.2,0,0,1-27.91,4.68A98.06,98.06,0,0,1,709,708.29a110.11,110.11,0,0,1-25.62-11,100.38,100.38,0,0,1-22-17.52,104.27,104.27,0,0,1-16.24-22.9l16.81.09a113.76,113.76,0,0,1-16.16,22.81,108.61,108.61,0,0,1-10.15,9.74,121.22,121.22,0,0,1-11,8.34,113.54,113.54,0,0,1-24.84,12.73A88.18,88.18,0,0,1,571.85,716a81,81,0,0,1-28.33-4.43c-1.15-.33-2.23-.83-3.34-1.25L536.87,709l-3.2-1.52c-1.06-.52-2.15-1-3.16-1.6l-3.07-1.73c-.51-.3-1-.58-1.53-.88l-1.48-1-2.95-1.93c-1-.63-1.89-1.39-2.84-2.08a90.16,90.16,0,0,1-19.7-20.11,74.37,74.37,0,0,1-11.68-25.94,67.88,67.88,0,0,1-.46-28.48l.32-1.75.46-1.71.92-3.43c.3-1.14.76-2.22,1.13-3.33s.75-2.23,1.22-3.3c1-2.11,1.81-4.3,2.95-6.32l1.62-3.06,1.79-3,.9-1.47,1-1.42,1.94-2.82c1.38-1.81,2.72-3.65,4.19-5.37a109,109,0,0,1,9.21-9.86,111.82,111.82,0,0,1,10.23-8.76,89.2,89.2,0,0,1,11.42-7.28,168.3,168.3,0,0,1,24.3-10.17q6.14-2.1,12.24-4.09c4.1-1.35,8.25-2.62,12.41-3.78q12.48-3.51,25.18-6C618.65,535.32,627.16,534.05,635.71,533.27Z"/>
  <path d="M728.17,546a74.39,74.39,0,0,1-9.83-4,76.9,76.9,0,0,1-9.22-5.48,67.78,67.78,0,0,1-8.37-6.89,70.09,70.09,0,0,1-7.2-8.26,61.6,61.6,0,0,1-5.78-9.47,67.44,67.44,0,0,1-4.06-10.36,99.29,99.29,0,0,1-2.57-10.65q-1-5.32-1.72-10.58c-.5-3.45-1-7.1-1.31-10.68s-.52-7.23-.59-10.85c-.19-7.24.2-14.43.71-21.53s1.32-14.1,2.07-21.09l1.24-10.47c.43-3.51.87-7,1.35-10.51q1.49-10.5,3.28-20.94c1.25-7,2.54-13.89,4-20.78.68-3.44,1.49-6.88,2.25-10.31l2.35-10.31c1.59-6.87,3.16-13.73,4.89-20.56a627.84,627.84,0,0,1,26.46-80.17c-5.66,27.58-11.56,54.92-16.73,82.36C707,328.29,704.43,342,702,355.72c-1.17,6.89-2.36,13.75-3.42,20.63s-2.14,13.74-3.08,20.63c-.49,3.43-1,6.88-1.4,10.32l-1.33,10.41c-.92,6.92-1.77,13.84-2.54,20.7s-1.31,13.67-1.51,20.44c-.11,3.4,0,6.78,0,10.17s.32,6.74.6,10.26a160,160,0,0,0,2.45,20.23,60.66,60.66,0,0,0,7,18.5,69.2,69.2,0,0,0,5.67,8.34,74.1,74.1,0,0,0,14.92,14.06A89.62,89.62,0,0,0,728.17,546Z"/>
  <path d="M586.42,545.61a88.61,88.61,0,0,0,8.86-5.63,74.32,74.32,0,0,0,8-6.56,76.57,76.57,0,0,0,6.93-7.5,69.5,69.5,0,0,0,5.66-8.34,60.68,60.68,0,0,0,7-18.5,158,158,0,0,0,2.44-20.23c.29-3.52.49-6.85.61-10.26s.14-6.77,0-10.16c-.2-6.78-.76-13.59-1.51-20.45s-1.61-13.77-2.54-20.7l-1.33-10.4c-.44-3.45-.9-6.89-1.4-10.33-.93-6.89-2-13.76-3.08-20.63s-2.24-13.74-3.41-20.63c-2.49-13.74-5-27.43-7.4-41.2-5.17-27.44-11.07-54.78-16.72-82.36A631,631,0,0,1,615,311.9c1.73,6.83,3.29,13.7,4.88,20.56l2.36,10.31c.76,3.44,1.57,6.88,2.25,10.32,1.41,6.88,2.7,13.82,3.94,20.77s2.3,13.94,3.29,20.94c.48,3.5.92,7,1.35,10.51l1.23,10.47c.76,7,1.54,14,2.08,21.1s.89,14.28.7,21.52c-.06,3.62-.28,7.25-.58,10.85s-.81,7.24-1.31,10.68-1.06,7-1.73,10.58a100,100,0,0,1-2.57,10.66,68.85,68.85,0,0,1-4,10.36,63.11,63.11,0,0,1-5.78,9.46,71,71,0,0,1-7.2,8.26,67.87,67.87,0,0,1-8.38,6.89,74.74,74.74,0,0,1-9.21,5.48A73.18,73.18,0,0,1,586.42,545.61Z"/>
  <path d="M715.56,538.59c-1.37-.7-2.71-1.44-4-2.19s-2.64-1.53-3.94-2.32-2.59-1.59-3.86-2.4-2.54-1.65-3.8-2.48l-.21-.2a68.61,68.61,0,0,1-16.26-19.55,73.27,73.27,0,0,1-5.26-11.73,110.32,110.32,0,0,1-3.43-12.08,143.51,143.51,0,0,1-3.39-24.52c-.21-4.11-.26-8.23-.08-12.35a98.57,98.57,0,0,1,1.19-12.32c1.25,4,2.3,7.91,3.33,11.84s2,7.84,3,11.73c1.94,7.78,3.9,15.48,6,23.08a141,141,0,0,0,7.49,21.84,108.21,108.21,0,0,0,11.81,19.83l-.21-.2c1,1.12,2,2.23,3,3.38s2,2.28,3,3.44,1.94,2.34,2.89,3.54S714.66,537.34,715.56,538.59Z"/>
  <path d="M748.13,548.16A71.52,71.52,0,0,1,722.25,545,95.59,95.59,0,0,1,710,540.34c-2-.87-3.84-1.81-5.77-2.73s-3.82-1.94-5.75-3-3.8-2.17-5.7-3.39a52.3,52.3,0,0,1-5.59-4.2,41.47,41.47,0,0,1-4.84-5.09c-.75-.89-1.42-1.83-2.1-2.76s-1.27-1.91-1.84-2.9A52.21,52.21,0,0,1,671.28,491c2.27,3.76,4.36,7.42,6.65,10.86a86.23,86.23,0,0,0,7.26,9.65,54.45,54.45,0,0,0,8.37,7.83,53,53,0,0,0,4.77,3.1c1.68,1,3.45,2,5.26,3s3.62,2,5.45,3,3.71,2,5.51,3.06c3.62,2.05,7.16,4,10.8,5.92C732.62,541.16,740.22,544.49,748.13,548.16Z"/>
  <path d="M681.94,481.13c-2.05-9.9-3.37-19.89-4.46-29.91s-1.67-20.06-1.85-30.11,0-20.12.65-30.16a250.22,250.22,0,0,1,3.56-30.05C681,371,681.62,381,682.1,391s.76,20,.93,30,.19,20,.25,30S683,471,681.94,481.13Z"/>
  <path d="M719.34,538.73a143.86,143.86,0,0,1,29.33,3.63,182.47,182.47,0,0,1,28.31,8.7,139.86,139.86,0,0,1,26.4,13.77c8.23,5.57,15.91,12.33,21.45,20.57A183.87,183.87,0,0,0,800,570.56c-8.53-4.3-17.29-8.08-26.18-11.65s-17.91-6.89-27-10.18S728.58,542.24,719.34,538.73Z"/>
  <path d="M715.61,538.57a140.47,140.47,0,0,1,35-2.16,181.4,181.4,0,0,1,67.77,17.44A140.48,140.48,0,0,1,848,572.64c-11.18-3.57-21.93-7.39-32.78-10.8s-21.65-6.6-32.57-9.43-21.93-5.3-33.07-7.5c-5.57-1.12-11.18-2.16-16.82-3.18S721.37,539.74,715.61,538.57Z"/>
  <path d="M739.56,541.16a136,136,0,0,1,30.33-11.37,167.48,167.48,0,0,1,64.67-3.19A134,134,0,0,1,865.85,535c-10.79-.68-21.34-1.45-31.89-1.73s-21-.26-31.48.27-20.9,1.45-31.35,2.81S750.23,539.42,739.56,541.16Z"/>
  <path class="cls-4" d="M710.83,531.67a168.12,168.12,0,0,0,49.39,1.07c12-1.53,39.47-5,55.68-18.09,26.54-21.38,29.69-73.86,8.93-128.21,0,0-121.61,12.41-141.71,75.9a85.53,85.53,0,0,0,2.43,27.35A87.46,87.46,0,0,0,710.83,531.67Z"/>
  <path class="cls-5" d="M598.75,534.67a167.84,167.84,0,0,1-49.39,1.06c-19.93-2.54-39.42-4.78-55.68-18.08C467,495.86,466.43,459,466.5,450.5a194,194,0,0,1,65,11c3.49,1.22,5.83,2.15,8,3,17.15,6.7,43.13,15.91,82,27-.62,3-1.58,7.11-3,12a125,125,0,0,1-4,12C612.68,519.81,608.61,527.2,598.75,534.67Z"/>
  <path d="M631.6,487.92c-1-10.11-1.28-20.14-1.34-30.16s.08-20,.25-30,.47-20,.93-30,1.06-20,2.26-30.1a250.22,250.22,0,0,1,3.56,30.05q.93,15.06.65,30.16c-.18,10.06-.7,20.11-1.85,30.12S633.65,478,631.6,487.92Z"/>
  <path d="M598.72,538.81c.9-1.25,1.84-2.46,2.78-3.66s1.92-2.37,2.89-3.54,2-2.31,3-3.44,2-2.25,3-3.38l-.21.2A106.94,106.94,0,0,0,622,505.16a140,140,0,0,0,7.5-21.84c2.1-7.6,4.06-15.3,6-23.08,1-3.89,2-7.8,3-11.72s2.07-7.88,3.32-11.85A98.57,98.57,0,0,1,643,449c.17,4.11.13,8.23-.08,12.34a142.55,142.55,0,0,1-3.4,24.52A108.91,108.91,0,0,1,636.08,498a72.25,72.25,0,0,1-5.25,11.72,68.47,68.47,0,0,1-16.26,19.55l-.21.2c-1.27.83-2.52,1.68-3.8,2.48s-2.56,1.62-3.86,2.41-2.61,1.56-3.94,2.31S600.09,538.11,598.72,538.81Z"/>
  <path d="M567.25,549c7.91-3.68,15.51-7,22.78-10.83,3.64-1.89,7.18-3.86,10.8-5.91,1.8-1,3.68-2,5.51-3.07s3.67-2,5.45-3,3.58-2,5.26-3a50.94,50.94,0,0,0,4.77-3.11,54.37,54.37,0,0,0,8.37-7.82,86.23,86.23,0,0,0,7.26-9.65c2.29-3.45,4.38-7.11,6.65-10.86A52.21,52.21,0,0,1,637,517.1c-.57,1-1.21,1.93-1.84,2.9s-1.35,1.87-2.1,2.76a41.39,41.39,0,0,1-4.84,5.08,50.17,50.17,0,0,1-5.59,4.21c-1.9,1.21-3.8,2.32-5.7,3.38s-3.83,2-5.75,3-3.81,1.85-5.77,2.73a97.1,97.1,0,0,1-12.23,4.68A71.74,71.74,0,0,1,567.25,549Z"/>
  <path d="M585,545.79c-10.67-1.73-21.1-3.53-31.57-4.85s-20.89-2.31-31.35-2.82-20.95-.58-31.48-.27-21.1,1-31.89,1.74A134.05,134.05,0,0,1,490,531.23a167.74,167.74,0,0,1,64.67,3.2A135.48,135.48,0,0,1,585,545.79Z"/>
  <path d="M887,632.37c0,2.33-.19,4.54-.36,6.74s-.41,4.35-.64,6.48q-.75,6.38-1.63,12.52c-1.19,8.22-2.52,16.22-3.88,24.23s-2.75,16-4.35,24.15c-.8,4.07-1.67,8.18-2.62,12.36-.49,2.08-1,4.19-1.55,6.32s-1.14,4.28-1.91,6.48a46.4,46.4,0,0,1-2.8-6.22c-.81-2.11-1.45-4.24-2-6.4a84.6,84.6,0,0,1-2.38-13.09,100.48,100.48,0,0,1,8.85-51.71,84.73,84.73,0,0,1,6.58-11.56c1.27-1.83,2.59-3.63,4.05-5.35A45.44,45.44,0,0,1,887,632.37Z"/>
  <path d="M441.93,719.27c-.5-2.27-.81-4.48-1.11-6.66s-.55-4.33-.79-6.46c-.43-4.26-.81-8.44-1.12-12.58-.62-8.28-1.06-16.38-1.46-24.5s-.79-16.22-1-24.51c-.11-4.15-.14-8.35-.13-12.63,0-2.15.06-4.31.15-6.51s.19-4.43.46-6.74a46,46,0,0,1,4.08,5.47c1.25,1.88,2.34,3.82,3.39,5.79a85,85,0,0,1,5.16,12.27,100.35,100.35,0,0,1,2.57,52.4,84,84,0,0,1-3.92,12.71,66.92,66.92,0,0,1-2.79,6.1A46.85,46.85,0,0,1,441.93,719.27Z"/>
  <path d="M603.3,538.86C597.54,540,591.85,541,586.21,542s-11.26,2.06-16.83,3.18c-11.14,2.2-22.15,4.67-33.07,7.5s-21.75,6-32.57,9.43-21.6,7.23-32.78,10.79a141.1,141.1,0,0,1,29.59-18.78,181.4,181.4,0,0,1,67.77-17.44A140,140,0,0,1,603.3,538.86Z"/>
  <path d="M596.26,539.89c-9.24,3.51-18.4,6.72-27.5,10s-18.11,6.6-27,10.18-17.65,7.36-26.18,11.65a184,184,0,0,0-24.83,14.85c5.54-8.25,13.22-15,21.46-20.58a139.56,139.56,0,0,1,26.4-13.77,182.47,182.47,0,0,1,28.31-8.7A143.77,143.77,0,0,1,596.26,539.89Z"/>
  <path class="cls-6" d="M654.44,538.06c-29.69,0-47.91,19.66-50.78,22.85l49.91,60.67,53.06-59.24C704,559.21,685.33,538,654.44,538.06Z"/>
  <path d="M684,469.43A90.25,90.25,0,0,1,691.69,438c1.12-2.48,2.28-5,3.62-7.35a74.8,74.8,0,0,1,4.26-7l2.3-3.41c.79-1.12,1.67-2.18,2.5-3.27s1.68-2.17,2.58-3.2l2.76-3.06a101.69,101.69,0,0,1,25.78-20.08,95,95,0,0,1,30.5-10.6,196.89,196.89,0,0,0-27.45,15.56,140.29,140.29,0,0,0-23.41,20.15l-2.61,2.84c-.86,1-1.63,2-2.46,3s-1.67,1.95-2.45,3l-2.29,3.11a126,126,0,0,0-8.45,13A174.63,174.63,0,0,0,684,469.43Z"/>
  <path d="M630.76,476.32a175.47,175.47,0,0,0-12.83-28.79,123.36,123.36,0,0,0-8.46-13l-2.28-3.11c-.78-1-1.64-2-2.45-3s-1.6-2-2.46-3l-2.61-2.84a140.69,140.69,0,0,0-23.41-20.15,198.65,198.65,0,0,0-27.46-15.57,95.09,95.09,0,0,1,30.5,10.61,101.56,101.56,0,0,1,25.79,20.08l2.76,3.06c.89,1,1.72,2.13,2.58,3.2s1.71,2.15,2.5,3.27l2.3,3.41a77,77,0,0,1,4.26,7c1.33,2.39,2.5,4.87,3.62,7.35A90.25,90.25,0,0,1,630.76,476.32Z"/>
  <path d="M626.12,477.5c-1.74-11-3.36-21.86-5.39-32.62s-4.33-21.4-7-32-5.77-21-9.16-31.42-7.14-20.73-10.85-31.24A166.77,166.77,0,0,1,610,379.42a205.85,205.85,0,0,1,16.52,64.69A165.58,165.58,0,0,1,626.12,477.5Z"/>
  <path d="M686.6,477.64a166.32,166.32,0,0,1-.36-33.39,205.85,205.85,0,0,1,16.52-64.69A167.42,167.42,0,0,1,719,350.4c-3.71,10.51-7.47,20.82-10.85,31.24s-6.48,20.86-9.16,31.42-5,21.2-7,32S688.34,466.63,686.6,477.64Z"/>
  <path d="M799.62,529c5.29-3,10.23-5.87,14.83-9.08,2.3-1.6,4.5-3.24,6.62-5s4.17-3.61,6.56-5.57a44.31,44.31,0,0,1,35-9.09c-2.8,1.26-5.55,2.32-8.21,3.46s-5.26,2.29-7.75,3.53A72.17,72.17,0,0,0,832.94,516l-3.39,2.73c-1.21.91-2.43,1.85-3.74,2.7a47.11,47.11,0,0,1-8.23,4.38A41,41,0,0,1,799.62,529Z"/>
  <path d="M515.2,534a41.13,41.13,0,0,1-18-3.24,47.79,47.79,0,0,1-8.23-4.38c-1.3-.85-2.53-1.79-3.73-2.7l-3.4-2.74a72.55,72.55,0,0,0-13.75-8.67c-2.5-1.24-5.08-2.41-7.75-3.53s-5.41-2.2-8.21-3.47a43.71,43.71,0,0,1,18.23.75,43.26,43.26,0,0,1,16.79,8.35c2.39,2,4.43,3.82,6.56,5.56s4.32,3.39,6.62,5C505,528.12,509.91,530.94,515.2,534Z"/>
  <path d="M627.5,486.5c-17.37-.69-34.44-3.54-51.29-7.4-8.43-2-16.78-4.29-25-6.88-4.12-1.28-8.19-2.7-12.25-4.06l-12-4.19c-7.93-2.78-15.76-5.26-23.74-7.36-4-1.07-8-2-12.06-2.87-2-.43-4.06-.83-6.11-1.21s-4.08-.74-6.13-1.11c-8.22-1.37-16.55-2.4-25-3.21-2.11-.22-4.22-.35-6.34-.56s-4.25-.29-6.38-.48-4.28-.27-6.43-.42-4.31-.24-6.48-.44A158.13,158.13,0,0,1,480,439.84a169.09,169.09,0,0,1,26.28,3.08c4.34.85,8.63,2,12.91,3.1s8.42,2.57,12.54,4,8.14,2.94,12.13,4.44L555.81,459l11.85,4.53,11.9,4.47,23.92,9C611.48,480,619.5,483.08,627.5,486.5Z"/>
  <path d="M680.89,458.79c8.15-17.36,20.66-32.82,35.75-45.33a144.53,144.53,0,0,1,24.56-16.32c4.39-2.26,8.88-4.34,13.45-6.17q1.73-.71,3.45-1.35l3.48-1.23c2.31-.85,4.67-1.52,7-2.29,4.71-1.34,9.44-2.61,14.17-3.64s9.48-1.94,14.19-2.71l7-1.13c2.39-.38,4.79-.69,7.2-1s4.81-.55,7.22-.76,4.82-.38,7.23-.5c19.3-1,38.69.41,57.28,5.11-9.56.81-19,1.54-28.29,2.59s-18.56,2.27-27.7,3.87c-2.29.37-4.57.8-6.84,1.24s-4.55.86-6.81,1.33L806.51,392l-6.88,1.54c-4.57,1-9.09,2-13.56,3.17s-8.88,2.29-13.25,3.58-8.69,2.68-12.91,4.3c-2.14.74-4.22,1.62-6.32,2.45s-4.14,1.82-6.23,2.68-4.1,1.91-6.11,2.94-4.06,2-6,3.16-4,2.19-5.9,3.4-3.93,2.33-5.82,3.6a206.75,206.75,0,0,0-22.13,16.51C694.27,445.33,687.57,451.91,680.89,458.79Z"/>
  <g>
    <path class="cls-7" d="M764,433.32q-2.24,30.26-4.45,60.52"/>
    <path d="M764,433.32a29.92,29.92,0,0,1,2.06,3.95c.58,1.31,1.06,2.62,1.5,3.92a52.17,52.17,0,0,1,1.94,7.74,63.33,63.33,0,0,1,.71,15.27,62.38,62.38,0,0,1-2.91,15,52.54,52.54,0,0,1-3.05,7.38c-.64,1.22-1.3,2.44-2.07,3.65a30.8,30.8,0,0,1-2.63,3.61,29.06,29.06,0,0,1-2.08-4c-.59-1.31-1.06-2.61-1.51-3.91a52,52,0,0,1-1.94-7.75A64.5,64.5,0,0,1,756.29,448a53.69,53.69,0,0,1,3-7.38c.64-1.22,1.3-2.44,2.07-3.65A28.83,28.83,0,0,1,764,433.32Z"/>
  </g>
  <g>
    <path class="cls-7" d="M545.88,465.75q2.29,14.5,4.61,29"/>
    <path d="M545.88,465.75a19.46,19.46,0,0,1,5.7,6.52,22.05,22.05,0,0,1,2.33,14.51,19.49,19.49,0,0,1-3.42,8,19.38,19.38,0,0,1-5.73-6.53,21.45,21.45,0,0,1-2.38-7.06,21.72,21.72,0,0,1,.09-7.45A19.51,19.51,0,0,1,545.88,465.75Z"/>
  </g>
  <path class="cls-8" d="M734.74,588.69l32.82-3.8.54,0-.05,0h0l.16,0,.65-.06,1.28-.11,2.56-.23,5.12-.43,10.24-.77q10.25-.74,20.49-1.27c13.67-.71,27.34-1.19,41.06-1.23s27.45.72,41.1,1.69,27.25,2.27,40.82,3.8q40.71,4.62,81,11.71t80.19,16.21q-40.12-7.93-80.57-13.84T931.06,591c-13.55-1.12-27.12-2-40.69-2.59s-27.15-.85-40.64-.47-27.09,1.3-40.62,2.41q-10.14.82-20.28,1.85l-10.12,1.07-10.61,1.2.53,0-32.32,4.71Z"/>
  <path class="cls-8" d="M730.82,605.65q16.41,1.92,32.74,4.46l-.67-.05.79.07.52.08.64.1,1.28.21,2.54.42,5.07.85,10.12,1.79Q794,615.41,804,617.44c13.43,2.7,26.81,5.63,40.13,9s26.44,7.52,39.44,11.84c6.5,2.14,12.95,4.43,19.41,6.7l9.63,3.52q4.83,1.75,9.61,3.6,38.34,14.58,75.7,31.46t73.77,35.59q-36.95-17.64-74.72-33.39t-76.39-29.15q-4.82-1.7-9.66-3.29l-9.69-3.23c-6.48-2.07-13-4.15-19.48-6.09-13-3.91-26.12-7.57-39.29-10.55s-26.6-5.47-40-7.75q-10.05-1.73-20.13-3.24L772.29,621l-5-.7-2.52-.34-1.26-.17-.63-.08-.16,0h.05l.16,0-.67,0q-16.22-2-32.48-3.45Z"/>
  <path class="cls-8" d="M732,624.5q8.57,3,17,6.34l.31.14,0,0s0,0,0,0l.08,0,.33.14.66.26,1.31.54,2.62,1.08,5.2,2.2q5.19,2.22,10.34,4.56c6.86,3.12,13.65,6.36,20.35,9.86s13.17,7.42,19.55,11.44,12.62,8.19,18.79,12.48a738.8,738.8,0,0,1,70.44,56,739.68,739.68,0,0,0-72-53.75c-6.27-4.08-12.61-8.05-19-11.82s-13-7.43-19.62-10.69-13.53-6.24-20.42-9.12q-5.16-2.16-10.37-4.2l-5.22-2-5.53-2.09.31.14q-8.43-3-17-5.73Z"/>
  <path class="cls-8" d="M757.45,334.71q12.19-73.56,27.22-146.58T817.48,42.77Q786.12,188.42,766.14,336Z"/>
  <path class="cls-8" d="M811.23,323.28q3.42-11.55,7.38-22.92l.22-.55a1.09,1.09,0,0,0-.08.15s0,.07,0,.05l0-.11.16-.44.32-.88.63-1.76,1.29-3.5,2.65-7q2.69-6.94,5.55-13.83c3.82-9.17,7.84-18.25,12.27-27.19s9.55-17.53,14.8-26c2.61-4.23,5.35-8.36,8.06-12.51s5.53-8.22,8.42-12.25q17.1-24.28,36.1-47.1t39.39-44.28q-19.67,22.16-37.83,45.53t-34.36,48.09c-2.74,4.09-5.31,8.29-7.94,12.44s-5.13,8.39-7.57,12.65c-4.91,8.49-9.6,17.13-13.67,26s-7.72,18-11.18,27.18q-2.6,6.9-5,13.84l-2.38,7-1.15,3.49-.57,1.75-.27.87-.14.43-.13.38c-.07.2-.15.4-.23.59l.22-.54q-3.51,11.29-6.48,22.76Z"/>
  <path class="cls-8" d="M782.71,304.68q8.4-37.33,20-73.79c7.74-24.27,16.64-48.15,26.49-71.61,5-11.72,10.1-23.36,15.59-34.83,2.67-5.76,5.54-11.44,8.34-17.14s5.74-11.34,8.75-16.94q8.91-16.84,18.57-33.27t20-32.41q-9.87,16.28-19,33T863.89,91.37c-2.84,5.67-5.52,11.41-8.24,17.13s-5.32,11.5-7.82,17.32c-5.13,11.58-9.91,23.31-14.51,35.1-9.12,23.62-17.27,47.59-24.26,71.89s-12.92,48.88-17.75,73.67Z"/>
  <path class="cls-8" d="M553.57,357.82a740.2,740.2,0,0,0-5.94-85,746.17,746.17,0,0,0-15.76-83.9,749.87,749.87,0,0,0-25.41-81.64,758.26,758.26,0,0,0-34.66-78.3,755.52,755.52,0,0,1,36.7,77.5,751,751,0,0,1,27.62,81.32,752,752,0,0,1,18,84.1,745.83,745.83,0,0,1,8.2,85.74Z"/>
  <path class="cls-8" d="M525.33,325.81A321,321,0,0,0,498,253a313.49,313.49,0,0,0-20.2-33.41,304.47,304.47,0,0,0-24.16-30.75,316.43,316.43,0,0,0-59-51.46,334.12,334.12,0,0,0-69.89-36,335.27,335.27,0,0,1,71.22,34,320,320,0,0,1,61.28,50.2A305.53,305.53,0,0,1,482.74,216a321.8,321.8,0,0,1,21.4,33.63,329.8,329.8,0,0,1,29.71,74Z"/>
  <path class="cls-8" d="M505.41,355.75A223.49,223.49,0,0,0,479,295.5a216.48,216.48,0,0,0-43.46-49.77,243,243,0,0,0-56.41-35.22,274.94,274.94,0,0,0-63.86-19.84A275.66,275.66,0,0,1,380,208.49a246.12,246.12,0,0,1,58.31,33.84,221.9,221.9,0,0,1,46.2,49.56,230.8,230.8,0,0,1,29.35,61.4Z"/>
  <path class="cls-8" d="M574.09,599.52l-32.32-4.71.53,0-10.61-1.2-10.12-1.07q-10.14-1-20.28-1.85c-13.53-1.11-27.09-2-40.62-2.42s-27.07-.08-40.64.48-27.14,1.46-40.7,2.59q-40.66,3.4-81.12,9.3t-80.57,13.84q39.87-9.12,80.19-16.21t81-11.71c13.57-1.53,27.17-2.85,40.82-3.81s27.32-1.66,41.09-1.68,27.4.51,41.07,1.23q10.25.52,20.49,1.26l10.24.78,5.12.43,2.56.22,1.28.12.65.06h.16l-.05,0,.54,0,32.82,3.8Z"/>
  <path class="cls-8" d="M573.09,625.39q-16.26,1.43-32.48,3.45l-.67,0,.16,0h0l-.16,0-.62.08-1.26.17-2.52.34-5,.7-10.09,1.48q-10.08,1.51-20.13,3.24c-13.39,2.28-26.76,4.8-40,7.74s-26.28,6.65-39.3,10.56c-6.52,1.94-13,4-19.47,6.09l-9.69,3.22q-4.86,1.61-9.67,3.3Q343.62,679.23,305.83,695t-74.72,33.39q36.4-18.72,73.76-35.59t75.7-31.46c3.19-1.23,6.4-2.44,9.61-3.6l9.64-3.52c6.45-2.27,12.9-4.56,19.41-6.7,13-4.33,26.08-8.4,39.43-11.84s26.7-6.31,40.14-9q10.06-2,20.18-3.86L529.1,621l5.08-.86,2.54-.41,1.27-.21.64-.1.53-.08.78-.07-.66.05q16.32-2.54,32.73-4.46Z"/>
  <path class="cls-8" d="M578.52,641q-8.53,2.7-17,5.74l.31-.14-5.53,2.09-5.22,2c-3.47,1.36-6.93,2.77-10.38,4.2-6.88,2.88-13.72,5.89-20.42,9.13s-13.17,6.9-19.61,10.68-12.78,7.75-19.05,11.83a736.44,736.44,0,0,0-72,53.75,739.22,739.22,0,0,1,70.44-56c6.17-4.29,12.42-8.48,18.79-12.48s12.84-7.89,19.55-11.44,13.49-6.74,20.35-9.85q5.15-2.34,10.34-4.57l5.2-2.2,2.62-1.08,1.31-.54.66-.26.33-.13.08,0s0,0,0,0l-.05,0,.31-.14q8.45-3.33,17-6.34Z"/>
  <g>
    <path class="cls-9" d="M420.84,1309.44c1.58-38.31,3.9-69.24,5.66-89.94,5.47-64.17,8.95-68.61,7.48-97.85-1.71-34-7.32-45.86-3.48-74.15a179.26,179.26,0,0,1,18-57"/>
    <path d="M411.34,1309.05q2.85-40.46,7.27-80.74,2.22-20.14,4.87-40.23,1.35-10,2.79-20c1-6.67,1.94-13.3,2.69-19.85a181.64,181.64,0,0,0,1.11-19.67c0-6.62-.21-13.28-.59-19.93s-1-13.3-1.62-20a194.71,194.71,0,0,1-1-20.42,134.75,134.75,0,0,1,1.83-20.4,171.54,171.54,0,0,1,4.45-19.85A182.85,182.85,0,0,1,448.5,990.5a181.63,181.63,0,0,0-13.07,38,170.16,170.16,0,0,0-3.22,19.74,131.88,131.88,0,0,0-.62,19.85,191.42,191.42,0,0,0,2.18,19.8c1,6.63,2,13.33,2.82,20.08s1.42,13.52,1.8,20.35a189.83,189.83,0,0,1,.05,20.66c-.37,6.85-1,13.58-1.53,20.29s-1.1,13.38-1.6,20.06q-1.47,20.06-2.47,40.15-2,40.18-2.49,80.39Z"/>
  </g>
  <path d="M422.42,1282.31c-.73-24.59-.35-49.12.5-73.64q.68-18.39,1.86-36.78c.37-6.12,1-12.31,1.34-18.3l1.22-18.34c.25-3.08.52-6.18.86-9.29.17-1.55.35-3.11.54-4.67l.58-4.53c.79-6,1.41-11.93,1.69-17.86.16-3,.23-5.92.23-9,0-2.86-.08-5.93-.21-8.91-.26-6-.77-12-1.54-17.87s-1.95-11.84-3.21-17.76-2.75-11.81-4.31-17.7c-3.11-11.79-6.75-23.46-10.47-35.19a301.66,301.66,0,0,1,15.41,33.59q3.31,8.64,6.1,17.54c1.8,5.94,3.39,12,4.68,18.12.55,3.1,1.17,6.21,1.58,9.31s.77,6.21,1.06,9.33.54,6.18.63,9.44c.1,3.08.13,6.27.08,9.41-.1,6.31-.69,12.61-1.35,18.76l-.55,4.58c-.17,1.48-.33,3-.49,4.46-.3,3-.54,6-.77,9l-1.36,18.32c-.26,3.08-.58,6.21-.88,9.21l-.89,9.11-3.56,36.53C428.7,1233.6,426.06,1258,422.42,1282.31Z"/>
  <path d="M912,1001.42a118.93,118.93,0,0,1,10.76,10.06c3.4,3.55,6.59,7.3,9.64,11.19a166.75,166.75,0,0,1,16.09,25c1.16,2.19,2.27,4.44,3.35,6.72s2,4.61,3,6.93q2.85,7,5,14.14a255.68,255.68,0,0,1,7,28.74,331.49,331.49,0,0,1,5.57,58.26c0,9.75-.33,19.5-1.23,29.21-.47,4.86-1,9.7-1.77,14.53s-1.61,9.64-2.75,14.42c-.51-2.41-.93-4.81-1.35-7.21s-.84-4.79-1.21-7.18l-2.27-14.28-4.34-28.32-2.19-14.06-2.3-14q-2.31-14-4.87-27.89c-1.7-9.25-3.54-18.43-5.64-27.47-1.07-4.51-2.19-9-3.44-13.41-.63-2.2-1.3-4.39-2-6.57s-1.41-4.38-2.21-6.57c-3-8.8-6.56-17.49-10.38-26.16-1.91-4.34-3.94-8.65-6-13Z"/>
  <path class="cls-10" d="M657,222.67a45,45,0,0,1,17.66,3.57,45.38,45.38,0,1,1-59.46,59.45,45.56,45.56,0,0,1,0-35.31,45.54,45.54,0,0,1,24.14-24.14A45,45,0,0,1,657,222.67m0-5.61a51,51,0,1,0,51,51,51,51,0,0,0-51-51Z"/>
  <line class="cls-11" x1="609.26" y1="267.17" x2="704.36" y2="267.17"/>
  <line class="cls-11" x1="609.26" y1="267.17" x2="656.95" y2="315.14"/>
  <line class="cls-11" x1="704.36" y1="267.17" x2="657.57" y2="315.42"/>
  <line class="cls-11" x1="656.84" y1="219.81" x2="680.94" y2="291.27"/>
  <line class="cls-11" x1="656.84" y1="219.81" x2="633.08" y2="291.27"/>
  <path class="cls-10" d="M620.82,275.67c1.16.1,2.33.16,3.5.18h1a.6.6,0,0,0,.57-.43.81.81,0,0,0,0-.31.65.65,0,0,0-.27-.36l-.27-.21.12.09q-1.34-1-2.58-2.19l-.7-.66-.41,1,4,.06h1.12a.59.59,0,0,0,.57-.43.81.81,0,0,0,0-.31.69.69,0,0,0-.27-.36l-2.31-1.71c-.78-.56-1.55-1.12-2.34-1.67l-1.32-.93a.59.59,0,0,0-.81.21.57.57,0,0,0-.06.46.65.65,0,0,0,.27.36l2.34,1.65c.78.55,1.55,1.11,2.32,1.69l1.3,1,.3-1.1-4-.05-1.12,0a.61.61,0,0,0-.59.6.58.58,0,0,0,.17.41c.88.86,1.79,1.66,2.75,2.43.3.25.61.49.92.72l.3-1.1q-1.75,0-3.51-.12l-1-.07a.53.53,0,0,0-.41.17.59.59,0,0,0,0,.83h0a.64.64,0,0,0,.42.18Z"/>
  <path class="cls-10" d="M693.77,274.49c-1.16.09-2.33.15-3.5.18h-1l.3,1.1c1-.77,2-1.58,2.91-2.44l.75-.72a.59.59,0,0,0,0-.84.59.59,0,0,0-.4-.16l-4,.05h-1.13l.3,1.1c.77-.57,1.53-1.14,2.31-1.7s1.55-1.13,2.34-1.67c.44-.31.88-.63,1.33-.93a.59.59,0,0,0,.21-.81.61.61,0,0,0-.36-.27.59.59,0,0,0-.45.06L691,269.12c-.78.55-1.56,1.11-2.32,1.69l-1.3,1a.67.67,0,0,0-.25.28.55.55,0,0,0,0,.38.59.59,0,0,0,.56.43l4-.05h1.13l-.42-1c-.8.79-1.65,1.55-2.52,2.26-.25.2-.5.4-.76.59l.12-.09-.27.21a.72.72,0,0,0-.24.28.58.58,0,0,0,0,.39.62.62,0,0,0,.57.43q1.76,0,3.51-.12l1-.07a.64.64,0,0,0,.42-.18.59.59,0,0,0,0-.83h0a.53.53,0,0,0-.42-.18Z"/>
  <path class="cls-10" d="M652.69,237.71c.23.89.48,1.77.73,2.65s.51,1.77.79,2.66c.16.5.31,1,.47,1.49a.6.6,0,0,0,.87.35.56.56,0,0,0,.27-.35c.33-1.7.75-3.39,1.24-5.06.13-.46.27-.92.42-1.37h-1.14l.95,3,1,3,.53,1.68a.62.62,0,0,0,.57.44,1,1,0,0,0,.3-.08.67.67,0,0,0,.27-.35c.26-1.36.52-2.72.76-4.08s.49-2.75.72-4.12c.13-.77.26-1.55.38-2.32a.61.61,0,0,0-.06-.46.6.6,0,0,0-.81-.21.56.56,0,0,0-.27.35c-.22,1.38-.45,2.75-.68,4.12s-.49,2.74-.74,4.11c-.15.76-.29,1.52-.44,2.29h1.15l-1-3-1-3-.53-1.68a.6.6,0,0,0-.57-.43.59.59,0,0,0-.56.43c-.54,1.64-1,3.3-1.37,5q-.16.72-.3,1.44h1.14c-.29-.88-.56-1.76-.83-2.64s-.52-1.77-.77-2.66c-.14-.5-.27-1-.4-1.51a.67.67,0,0,0-.27-.35.6.6,0,0,0-.81.21.62.62,0,0,0-.06.46Z"/>
  <path d="M309.5,916.5c-.64,6.75-1.74,13.31-2.91,19.85s-2.55,13-4,19.4c-2.9,12.83-6.25,25.54-9.82,38.1s-7.37,25.08-11.5,37.55c-2.09,6.24-4.24,12.46-6.56,18.67s-4.75,12.4-7.64,18.54a172.45,172.45,0,0,1,.54-20.11c.52-6.66,1.34-13.26,2.34-19.83a325.25,325.25,0,0,1,8.59-38.86,364.34,364.34,0,0,1,13-37.55c2.53-6.14,5.22-12.21,8.17-18.19A183.71,183.71,0,0,1,309.5,916.5Z"/>
  <path d="M289.5,1034.5c.38,7,.22,13.88-.05,20.76s-.82,13.72-1.47,20.54c-1.3,13.65-3.38,27.12-5.9,40.52l-2,10-2.14,10c-1.44,6.65-3,13.29-4.7,19.89s-3.57,13.19-5.66,19.74-4.33,13.08-7.1,19.53c-.42-7-.3-13.87-.07-20.76s.75-13.72,1.37-20.55,1.44-13.62,2.35-20.4c.43-3.39,1.06-6.74,1.58-10.11l1.8-10.06c2.53-13.4,5.62-26.7,9-39.91,1.76-6.6,3.64-13.17,5.75-19.72S286.71,1040.94,289.5,1034.5Z"/>
  <path d="M358.5,826.5c-3.61,4.67-7.21,9-10.6,13.53s-6.66,8.92-9.71,13.46-5.94,9.09-8.61,13.76-5.15,9.47-7.77,14.48-5.52,10.14-8.64,15a171.89,171.89,0,0,1-10.07,14.16c-7.23,9.06-15.18,17.54-24.6,24.61,2.2-5.48,4.71-10.64,7.19-15.77s5.07-10.14,7.62-15.15l15.4-29.75a137.24,137.24,0,0,1,9.05-15.12A99.45,99.45,0,0,1,329.28,846C337.75,837.73,347.51,830.76,358.5,826.5Z"/>
  <path d="M309.5,926.5c0,7.9-.4,15.69-.87,23.45s-1.15,15.47-1.86,23.17-1.58,15.41-2.52,23l-1.44,11.44c-.49,3.79-1,7.57-1.4,11.33s-.89,7.49-1.18,11.2-.57,7.41-.73,11.11c-.29,7.4-.17,14.93.15,22.44s1,15.09,1.85,22.7,2,15.27,3,23.11a125.1,125.1,0,0,1-10.08-21.43,149.15,149.15,0,0,1-6.33-23q-1.12-5.88-1.77-11.86c-.48-4-.71-8-.86-12s0-8.09.19-12.1.61-8,1.06-11.9,1-7.82,1.66-11.68,1.29-7.71,2.05-11.53,1.49-7.63,2.33-11.41,1.68-7.57,2.58-11.37c1.84-7.58,3.86-15.11,6.18-22.57A230.54,230.54,0,0,1,309.5,926.5Z"/>
  <path d="M292.5,995.5a177.39,177.39,0,0,1,4.22,23c.95,7.73,1.48,15.5,1.71,23.29s.07,15.59-.4,23.38c-.21,3.9-.59,7.77-.93,11.63l-1.23,11.43c-.46,3.77-.84,7.46-1.14,11.15s-.54,7.34-.7,11c-.33,7.39-.21,14.8.09,22.26.64,14.93,2.7,29.91,4.89,45.41a122.74,122.74,0,0,1-10.1-21.21,145.47,145.47,0,0,1-8.92-46.52c-.12-4,0-8,.16-12s.59-7.93,1-11.79l1.44-11.45,1.49-11.27c.51-3.75.93-7.51,1.41-11.27l1.34-11.31C288.66,1026.18,290.17,1011,292.5,995.5Z"/>
  <path d="M287.13,1110.74c3.1,12.21,4.64,24.5,5.81,36.8a324.55,324.55,0,0,1,1.16,36.82c-.07,6.07-.21,12,0,17.65a151.55,151.55,0,0,0,1.86,17.23c1.81,11.63,5,23.15,8.52,35.26-8.94-9-15.47-20.22-19.8-32.33a95.87,95.87,0,0,1-2.77-9.27,83.74,83.74,0,0,1-1.8-9.65,136.37,136.37,0,0,1-.82-19.09c.09-6.19.36-12.29.72-18.4s.73-12.2,1.3-18.3C282.5,1135.25,284,1123,287.13,1110.74Z"/>
  <path d="M282.13,1094.74A170.44,170.44,0,0,1,286,1114c.95,6.44,1.62,12.9,2.11,19.36a306,306,0,0,1,.42,38.91c-.21,3.26-.46,6.52-.79,9.82s-.78,6.59-1.38,9.92a81.17,81.17,0,0,1-2.4,10.07,82.68,82.68,0,0,1-3.68,9.58c-5.57,12.3-13.52,23.44-23.76,31.84,2.57-6.11,5.09-12,7.23-17.93a184.29,184.29,0,0,0,5.56-17.8c.4-1.48.74-3,1.07-4.47s.67-2.94.92-4.38c.48-2.88.89-5.81,1.16-8.86s.56-6.11.72-9.24.42-6.26.58-9.41c.72-12.63,1.51-25.4,2.76-38.18.63-6.39,1.35-12.79,2.24-19.2S280.65,1101.19,282.13,1094.74Z"/>
  <path d="M285.13,1134.74c1.45,7.73,2.43,15.42,3.37,23.1s1.67,15.35,2.38,23c1.41,15.35,2.16,30.73,3.06,45.84.22,3.78.45,7.55.76,11.31.11,1.88.29,3.75.43,5.63l.51,5.62c.69,7.5,1.56,15,2.49,22.55s2,15.07,3.11,22.67,2.31,15.23,3.26,23c-2-3.39-3.86-6.85-5.53-10.38s-3.28-7.12-4.75-10.75a204.89,204.89,0,0,1-7.5-22.3,219.41,219.41,0,0,1-5-23c-.64-3.89-1.12-7.8-1.57-11.71s-.7-7.82-1-11.73a434.93,434.93,0,0,1,.11-46.53c.42-7.75,1.05-15.49,2-23.21A225.79,225.79,0,0,1,285.13,1134.74Z"/>
  <path d="M283.07,1188.59c1.44,7.73,2.42,15.43,3.36,23.11s1.67,15.34,2.38,23c1.42,15.35,2.16,30.73,3.06,45.84.22,3.78.45,7.56.77,11.31.11,1.88.28,3.75.42,5.63l.51,5.63c.69,7.49,1.56,15,2.49,22.54s2,15.08,3.11,22.67,2.31,15.23,3.26,23c-2-3.39-3.86-6.84-5.53-10.38s-3.28-7.12-4.75-10.75a207.64,207.64,0,0,1-7.5-22.29,219.93,219.93,0,0,1-5-23c-.64-3.89-1.12-7.81-1.57-11.71s-.71-7.83-1-11.74a434.94,434.94,0,0,1,.11-46.53c.43-7.74,1.05-15.49,2-23.21A226.29,226.29,0,0,1,283.07,1188.59Z"/>
  <path d="M280.07,1245.59c1.44,7.73,2.42,15.43,3.36,23.11s1.67,15.34,2.38,23c1.42,15.35,2.16,30.73,3.06,45.84.22,3.78.45,7.56.77,11.31.11,1.88.28,3.75.42,5.63l.51,5.63c.69,7.49,1.56,15,2.49,22.54s2,15.08,3.11,22.67,2.31,15.23,3.26,23c-2-3.39-3.86-6.84-5.53-10.38s-3.28-7.12-4.75-10.75a207.64,207.64,0,0,1-7.5-22.29,219.93,219.93,0,0,1-5-23c-.64-3.89-1.12-7.81-1.57-11.71s-.71-7.83-1-11.74a434.94,434.94,0,0,1,.11-46.53c.43-7.74,1.05-15.49,2-23.21A226.29,226.29,0,0,1,280.07,1245.59Z"/>
  <path d="M280.37,1163.56a170.44,170.44,0,0,1,3.85,19.26c.95,6.44,1.62,12.9,2.11,19.36a304.14,304.14,0,0,1,.42,38.91c-.21,3.26-.46,6.52-.79,9.81s-.78,6.59-1.38,9.93a81.17,81.17,0,0,1-2.4,10.07,82.68,82.68,0,0,1-3.68,9.58c-5.57,12.3-13.52,23.44-23.76,31.84,2.57-6.11,5.09-12,7.23-17.93a184.29,184.29,0,0,0,5.56-17.8c.4-1.49.74-3,1.07-4.47s.67-2.94.92-4.38c.48-2.88.89-5.82,1.16-8.86s.56-6.12.72-9.24.42-6.26.58-9.41c.72-12.63,1.51-25.4,2.76-38.18.63-6.39,1.35-12.79,2.24-19.2S278.89,1170,280.37,1163.56Z"/>
  <path d="M420.42,776.59a56.65,56.65,0,0,1-7.27,10.85,79.5,79.5,0,0,1-9.15,9.2,89.15,89.15,0,0,1-22,13.72,95.83,95.83,0,0,1-12.18,4.39,103.3,103.3,0,0,1-12.49,2.82c-8.49,1.29-17.15,1.66-25.83-.07,3.82-2.26,7.62-4.1,11.37-5.93s7.48-3.49,11.16-5.18,7.37-3.3,11.1-4.89l10.92-4.69c7.21-3.15,14.34-6.46,21.6-9.89S412.23,779.86,420.42,776.59Z"/>
  <path d="M402.42,794.59c-3.6,3.81-7.2,7.28-10.6,10.86s-6.7,7.1-9.84,10.71c-1.55,1.82-3.11,3.61-4.6,5.46s-2.93,3.68-4.48,5.61c-3,3.78-5.8,7.44-8.32,11.23a106,106,0,0,0-6.79,11.79A121.23,121.23,0,0,0,352.46,863a138,138,0,0,0-4,13.71c-1.14,4.75-2,9.64-3,14.79-4.34-9.53-5.57-20.35-4.42-31a69.36,69.36,0,0,1,3.77-15.73,70.15,70.15,0,0,1,7.41-14.51A85.65,85.65,0,0,1,362.38,818c.92-.94,1.76-1.79,2.74-2.72s1.91-1.82,2.9-2.69c2-1.75,4-3.4,6.14-5C382.67,801.42,392.17,796.64,402.42,794.59Z"/>
  <path d="M331.64,854.12c-.95,5.82-2,11.39-2.87,17s-1.61,11-2.13,16.45-.9,10.83-1,16.2,0,10.78.06,16.44,0,11.55-.45,17.3-1.12,11.55-2.11,17.25c-2.05,11.41-5,22.66-9.92,33.35-.67-5.86-.92-11.59-1.19-17.29s-.36-11.33-.51-16.95l-.62-33.5a136.54,136.54,0,0,1,.75-17.6,99.53,99.53,0,0,1,3.63-17.51C318.74,873.87,324,863.1,331.64,854.12Z"/>
  <path d="M1009.9,866.1c2.1,5.52,4,10.88,6,16.11s4.13,10.33,6.41,15.3,4.66,9.82,7.25,14.53,5.4,9.33,8.3,14.18,5.77,10,8.29,15.2a171.63,171.63,0,0,1,6.83,16c4,10.89,7,22.1,8.15,33.82-3.52-4.73-6.61-9.56-9.7-14.36s-6-9.62-9-14.4l-17.34-28.67a136.77,136.77,0,0,1-8.18-15.6,100,100,0,0,1-5.65-17C1008.65,889.66,1007.8,877.7,1009.9,866.1Z"/>
  <path d="M1033.24,944.05c1.28,5.76,2.34,11.33,3.61,16.8s2.59,10.82,4.13,16.07,3.19,10.39,5.06,15.43,4,10,6.16,15.24,4.26,10.73,6,16.24a173.72,173.72,0,0,1,4.44,16.8c2.33,11.35,3.76,22.89,3.16,34.65-2.8-5.2-5.16-10.43-7.52-15.62s-4.54-10.39-6.76-15.55l-13-30.88a136.71,136.71,0,0,1-5.84-16.62,99.26,99.26,0,0,1-3.12-17.61C1028.59,967.18,1029.48,955.22,1033.24,944.05Z"/>
  <path d="M1016.7,1006.14c-.22-5.9-.26-11.57-.53-17.18s-.59-11.11-1.16-16.55-1.26-10.8-2.19-16.09-2.12-10.57-3.31-16.1-2.25-11.32-3-17.05a173.32,173.32,0,0,1-1.33-17.33c-.25-11.58.43-23.19,3.13-34.65,1.82,5.61,3.2,11.18,4.59,16.72s2.59,11,3.84,16.51l7.22,32.72a135.73,135.73,0,0,1,2.73,17.41,98.74,98.74,0,0,1-.09,17.87C1025.45,984.23,1022.41,995.83,1016.7,1006.14Z"/>
  <path d="M961.5,816.5c9.8,4.75,18.16,12,25.15,20.44a97.81,97.81,0,0,1,9.29,13.47,88,88,0,0,1,7,15.11,80.37,80.37,0,0,1,4.35,33c-.94,11-4,21.79-9.79,31-.1-2.73-.14-5.39-.2-8s-.17-5.21-.3-7.77c-.28-5.11-.69-10.1-1.36-15A141.77,141.77,0,0,0,989,870.4c-1.6-4.56-3.43-9-5.47-13.53s-4.19-9-6.51-13.49-4.76-8.86-7.35-13.31S964.27,821.19,961.5,816.5Z"/>
  <path d="M1026.5,1087.5c4.83-11,8.55-21.73,9.56-32.38a75.38,75.38,0,0,0,.36-7.91,62,62,0,0,0-.59-7.72,137,137,0,0,0-3.58-15.91,171.35,171.35,0,0,1-3.8-17.51,147.89,147.89,0,0,1-1.77-17.93c-.37-12,.48-24,3.6-35.7,1.62,5.84,2.85,11.59,4.16,17.28s2.5,11.33,3.8,16.92,2.6,11.13,4,16.63,2.85,10.88,4.35,16.57a89.43,89.43,0,0,1,3.23,18.42,57,57,0,0,1-.36,9.78,62.11,62.11,0,0,1-2,9.44,59.62,59.62,0,0,1-8.24,16.92A56.84,56.84,0,0,1,1026.5,1087.5Z"/>
  <path d="M1066.5,1173.5c-4-11.2-6.91-22.22-10-33.15L1052,1124c-1.51-5.42-3-10.83-4.5-16.44a153.43,153.43,0,0,1-3.53-17.37,123.81,123.81,0,0,1-1.17-17.81c.13-11.88,1.73-23.71,5.75-34.91,1.16,5.85,2,11.56,3,17.2s1.84,11.2,2.91,16.69,2.14,10.95,3.39,16.32,2.63,10.7,4,16.21,2.77,11.21,3.83,17a170.86,170.86,0,0,1,2.29,17.44,161.05,161.05,0,0,1,.45,17.58A109.06,109.06,0,0,1,1066.5,1173.5Z"/>
  <path d="M1059.88,1237.68c-4-11.2-6.91-22.22-10-33.15l-4.53-16.31c-1.51-5.43-3-10.84-4.5-16.44a151.43,151.43,0,0,1-3.53-17.38,123.71,123.71,0,0,1-1.17-17.81c.13-11.87,1.73-23.7,5.75-34.91,1.16,5.85,2,11.56,2.95,17.2s1.84,11.2,2.91,16.7,2.14,10.94,3.39,16.31,2.63,10.7,4,16.22,2.77,11.21,3.82,17a168.13,168.13,0,0,1,2.3,17.44,161.12,161.12,0,0,1,.45,17.58A110.08,110.08,0,0,1,1059.88,1237.68Z"/>
  <path d="M1047.35,1291.13c-3.2-11.44-5.42-22.63-7.8-33.74l-3.44-16.58c-1.14-5.51-2.32-11-3.39-16.7a149.5,149.5,0,0,1-2.38-17.57,125.11,125.11,0,0,1,0-17.85,106.61,106.61,0,0,1,8.06-34.45c.77,5.91,1.21,11.66,1.8,17.36s1.1,11.29,1.8,16.85,1.41,11.06,2.3,16.5,1.91,10.85,3,16.45,2,11.37,2.69,17.19a168.93,168.93,0,0,1,1.13,17.55,161.1,161.1,0,0,1-.72,17.57A108.57,108.57,0,0,1,1047.35,1291.13Z"/>
  <path d="M1018.37,854c-10.84-4.85-20.87-10.3-30.94-15.57l-14.95-7.95c-5-2.64-10-5.25-15-8.06a150.55,150.55,0,0,1-15-9.4,125.4,125.4,0,0,1-13.73-11.42c-8.51-8.27-16-17.58-21.35-28.21,5,3.19,9.75,6.52,14.5,9.71s9.4,6.37,14.11,9.38,9.42,6,14.17,8.78,9.57,5.46,14.54,8.24,10,5.71,14.94,8.91a170.47,170.47,0,0,1,14.23,10.35,161.67,161.67,0,0,1,13,11.78A108.92,108.92,0,0,1,1018.37,854Z"/>
  <path d="M898.15,774.42c11.51,3.82,22.12,8.9,32.51,14.29,5.17,2.74,10.29,5.54,15.37,8.44,2.54,1.44,5.05,2.92,7.59,4.46s5.07,3.13,7.75,5.07a46.75,46.75,0,0,1,4,3.31c1.27,1.2,2.4,2.42,3.52,3.7a48.62,48.62,0,0,1,5.73,8.24A57.63,57.63,0,0,1,981,840.17a76.11,76.11,0,0,1,.91,18.52c-.16,1.52-.3,3-.48,4.54s-.47,3-.74,4.49c-.14.74-.27,1.48-.43,2.22s-.36,1.47-.54,2.2c-.39,1.46-.78,2.92-1.25,4.36-1.39-5.92-2.43-11.67-3.81-17.24a133,133,0,0,0-4.9-16,67,67,0,0,0-7.15-14,45.38,45.38,0,0,0-4.67-5.85c-.84-.9-1.73-1.8-2.61-2.58a32.19,32.19,0,0,0-2.77-2.25c-2.05-1.5-4.43-3.07-6.82-4.67s-4.83-3.24-7.23-4.92c-4.82-3.34-9.56-6.82-14.16-10.52C915.2,791.08,906.22,783.38,898.15,774.42Z"/>
  <path d="M1039.08,1051.14c4.29,11.34,7,22.78,9.41,34.25,1.14,5.74,2.19,11.47,3.15,17.24.48,2.88.92,5.77,1.33,8.7s.77,5.91,1,9.22a47.51,47.51,0,0,1,0,5.19c-.13,1.74-.36,3.39-.65,5.06a48.58,48.58,0,0,1-2.78,9.65,57.59,57.59,0,0,1-10.1,16.48,76.44,76.44,0,0,1-13.8,12.39c-1.28.83-2.54,1.68-3.83,2.49s-2.62,1.53-3.94,2.26c-.67.35-1.32.72-2,1.07s-1.36.65-2,1c-1.38.62-2.76,1.24-4.17,1.79,3.71-4.82,7.52-9.25,11-13.84a132.09,132.09,0,0,0,9.34-13.91,66.64,66.64,0,0,0,6.33-14.36,46.15,46.15,0,0,0,1.59-7.31c.17-1.22.31-2.47.36-3.65a35.49,35.49,0,0,0,0-3.57c-.12-2.53-.41-5.38-.67-8.24s-.54-5.8-.75-8.72c-.45-5.84-.74-11.72-.77-17.61C1036.9,1074.88,1037.21,1063.06,1039.08,1051.14Z"/>
  <path d="M1039.8,1015.69c3.48,11.62,5.4,23.22,7,34.83.72,5.81,1.37,11.61,1.91,17.42.27,2.91.51,5.82.71,8.78s.34,6,.29,9.26a46.7,46.7,0,0,1-.42,5.18c-.26,1.72-.6,3.35-1,5a48.68,48.68,0,0,1-3.46,9.42,57.63,57.63,0,0,1-11.26,15.72,75.8,75.8,0,0,1-14.64,11.37c-1.34.74-2.66,1.5-4,2.21s-2.72,1.34-4.09,2c-.69.31-1.37.63-2.07.93l-2.12.82c-1.42.51-2.83,1-4.28,1.47,4-4.53,8.16-8.68,11.93-13a132.28,132.28,0,0,0,10.31-13.21,66.91,66.91,0,0,0,7.34-13.87,45.89,45.89,0,0,0,2.11-7.18c.25-1.2.48-2.44.61-3.61a33.71,33.71,0,0,0,.25-3.57c.06-2.53,0-5.39-.08-8.27s-.12-5.81-.12-8.74c0-5.86.1-11.74.49-17.63C1035.94,1039.22,1037.09,1027.45,1039.8,1015.69Z"/>
  <path d="M1040.63,1126.67c3.5,11.6,5.45,23.2,7,34.81q1.11,8.7,2,17.41c.28,2.91.52,5.82.72,8.78s.37,5.95.32,9.26a46.23,46.23,0,0,1-.4,5.17c-.26,1.73-.6,3.36-1,5a48.93,48.93,0,0,1-3.43,9.43,57.66,57.66,0,0,1-11.22,15.75A75.84,75.84,0,0,1,1020,1243.7c-1.34.75-2.66,1.5-4,2.22s-2.72,1.35-4.09,2c-.69.31-1.37.64-2.07.93s-1.41.56-2.11.83c-1.42.52-2.84,1-4.28,1.49,4-4.55,8.13-8.7,11.9-13.05a131.87,131.87,0,0,0,10.26-13.23,66.49,66.49,0,0,0,7.31-13.9,46.9,46.9,0,0,0,2.09-7.18c.25-1.21.47-2.45.6-3.62a31.12,31.12,0,0,0,.24-3.56c.05-2.54,0-5.39-.1-8.27s-.14-5.82-.15-8.74c0-5.87.07-11.75.45-17.63C1036.82,1150.2,1038,1138.43,1040.63,1126.67Z"/>
  <path d="M1035,1389.09c-1.21-6.31-2-12.52-2.9-18.7l-2.39-18.42-4.64-36.61c-.36-3.16-.63-6.45-.73-9.75s0-6.59.17-9.86a107.11,107.11,0,0,1,3-19.34,100.55,100.55,0,0,1,16-34.91c-.85,6.37-1.87,12.52-2.65,18.63s-1.45,12.14-1.83,18.13-.57,11.92-.46,17.82c.06,3,.17,5.9.39,8.81s.49,5.83.83,8.85c.68,6,1.33,12.47,1.59,18.79s.28,12.69-.06,19C1040.59,1364.22,1038.89,1376.86,1035,1389.09Z"/>
  <path d="M1022.3,1451.62c-1.21-6.31-2-12.53-2.9-18.7L1017,1414.5l-4.64-36.61c-.36-3.16-.63-6.45-.73-9.75s0-6.59.17-9.86a107.11,107.11,0,0,1,3-19.34,100.55,100.55,0,0,1,16-34.91c-.85,6.37-1.88,12.52-2.65,18.63s-1.45,12.14-1.83,18.13-.57,11.92-.46,17.82c.06,3,.17,5.9.39,8.81s.49,5.82.83,8.85c.68,6,1.33,12.46,1.59,18.79s.28,12.69-.06,19C1027.89,1426.75,1026.19,1439.39,1022.3,1451.62Z"/>
  <path d="M1002.5,1518.5a92.14,92.14,0,0,1-3.66-14c-.87-4.71-1.44-9.44-1.85-14.17a168.43,168.43,0,0,1,.22-28.41c.43-4.71,1-9.4,1.83-14s1.72-9.27,2.88-13.86c2.36-9.17,5.27-18.25,9.88-27,1.53,9.72,1.7,19.11,1.68,28.45s-.68,18.61-1.53,27.75-1.91,18.3-3.35,27.49S1005.45,1509.12,1002.5,1518.5Z"/>
  <path d="M1001.5,1325.5c2.36-9.66,5.25-18.52,7.74-27.4,1.26-4.42,2.49-8.8,3.64-13.19s2.18-8.68,3.25-13.22,2.29-9.22,3.73-13.8,3.06-9.12,4.92-13.56a140.79,140.79,0,0,1,6.24-13.07,90.77,90.77,0,0,1,8-12.35,212.67,212.67,0,0,1-3,28.63q-1.14,7-2.51,13.82c-.91,4.58-1.83,9.11-2.94,13.77a109.42,109.42,0,0,1-4.32,14.11,98.86,98.86,0,0,1-6.28,13.38,96,96,0,0,1-8.19,12.24A70.5,70.5,0,0,1,1001.5,1325.5Z"/>
  <path d="M982,1443.2a91.8,91.8,0,0,1,.58-14.5c.53-4.76,1.36-9.45,2.35-14.1a167.71,167.71,0,0,1,8.46-27.11c1.78-4.39,3.74-8.7,5.84-12.91s4.33-8.37,6.77-12.42c4.93-8.1,10.35-15.94,17.29-22.92-1.36,9.74-3.92,18.77-6.66,27.7s-6.06,17.62-9.52,26.12-7.15,17-11.2,25.32S987.51,1435.08,982,1443.2Z"/>
  <path d="M1003.5,809.5c-10.73.8-21.25-.42-31.59-2.47a151.76,151.76,0,0,1-15.28-4c-5-1.59-10-3.45-14.75-5.43s-9.33-4-13.91-5.92-9.23-3.81-13.91-5.7c-9.35-3.85-18.87-7.45-28.63-12a65.8,65.8,0,0,1,8-.83c2.66-.14,5.32-.14,8-.07a118.45,118.45,0,0,1,15.84,1.64,123.08,123.08,0,0,1,15.51,3.7c5.12,1.56,10.08,3.5,14.81,5.47s9.32,4,14,5.95,9.27,4,13.92,6.07,9.32,4.16,14,6.38S998.82,806.82,1003.5,809.5Z"/>
  <path d="M947.5,845.5c-1.45-1.83-2.7-3.68-4-5.49l-3.66-5.39-7-10.42c-4.59-6.8-9.16-13.38-14-19.66s-9.95-12.77-15-19.28L900,780.33l-3.9-5c-1.3-1.71-2.62-3.43-3.93-5.22s-2.63-3.58-3.89-5.55c9.08,1.83,17.18,6,24.57,11.14a89.51,89.51,0,0,1,19.33,18.75,78.93,78.93,0,0,1,12.53,24.18,71.67,71.67,0,0,1,2.83,13.26,59.2,59.2,0,0,1,.4,6.79A44.05,44.05,0,0,1,947.5,845.5Z"/>
  <path d="M965,1571.56a90.36,90.36,0,0,1-.3-14.5c.23-4.79.77-9.52,1.47-14.22a167.78,167.78,0,0,1,6.78-27.58q2.26-6.73,5-13.25c1.83-4.31,3.82-8.61,6-12.81,4.43-8.38,9.35-16.54,15.85-23.94a176.55,176.55,0,0,1-5,28.06c-2.22,9-5,18-7.9,26.65s-6.09,17.37-9.62,26S970,1563.12,965,1571.56Z"/>
  <path d="M928.64,1593.44a64.69,64.69,0,0,1,1.36-7.34c.57-2.39,1.24-4.74,2-7.07a124.49,124.49,0,0,1,5.22-13.56,149.13,149.13,0,0,1,14.43-25c2.79-3.92,5.76-7.7,8.86-11.33s6.33-7.15,9.77-10.51a134.33,134.33,0,0,1,10.87-9.58c1.92-1.5,3.87-3,5.91-4.34a64.31,64.31,0,0,1,6.37-3.88c-.84,2.39-1.82,4.65-2.83,6.87s-2.07,4.39-3.15,6.54q-3.28,6.4-6.88,12.47c-2.4,4.06-4.88,8-7.48,11.94s-5.22,7.7-7.92,11.46c-5.38,7.53-10.93,14.93-16.87,22.19q-4.44,5.45-9.26,10.76c-1.62,1.76-3.25,3.53-5,5.26S930.57,1591.79,928.64,1593.44Z"/>
  <path d="M1013.79,1456.73a82.36,82.36,0,0,1-5.34,12.58c-2.07,4-4.37,7.84-6.8,11.58s-5.08,7.33-7.86,10.8c-1.4,1.76-2.78,3.4-4.15,5s-2.78,3.29-4.2,4.93a110.41,110.41,0,0,1-9.43,9.9,48.61,48.61,0,0,1-5.89,4.52,58.19,58.19,0,0,1-6.33,3.49c-8.61,4-18,6-27.29,4.92,7.81-5,14.88-9.56,21.14-14.82,1.55-1.31,3.14-2.65,4.5-4s2.68-2.68,4-4.14c2.58-2.92,5.26-6.3,8.15-9.61,1.46-1.67,2.94-3.32,4.47-4.94s3.11-3.23,4.63-4.72c3.08-3,6.22-6,9.46-9A168.25,168.25,0,0,1,1013.79,1456.73Z"/>
  <path d="M977.5,1465.5l4.27-5.09c1.35-1.67,2.65-3.31,3.85-5a68.26,68.26,0,0,0,6.12-10.13c.43-.85.82-1.71,1.2-2.57s.67-1.64,1-2.48a51.12,51.12,0,0,0,1.44-5.2c.83-3.64,1.44-7.64,2.12-11.73a228.44,228.44,0,0,1,5.23-25c2.36-8.31,5.09-16.57,9.37-24.62,1.88,8.91,2.21,17.61,2.17,26.25a177.4,177.4,0,0,1-2.17,25.81,76.49,76.49,0,0,1-3.29,13.36,41.64,41.64,0,0,1-3.11,6.79,33.31,33.31,0,0,1-2.08,3.17c-.72,1-1.46,1.93-2.27,2.83A40.74,40.74,0,0,1,977.5,1465.5Z"/>
  <circle class="cls-12" cx="694" cy="628" r="2.5"/>
  <circle class="cls-12" cx="709" cy="607" r="2.5"/>
  <circle class="cls-12" cx="721" cy="644" r="2.5"/>
  <circle class="cls-12" cx="596" cy="603" r="2.5"/>
  <circle class="cls-12" cx="620" cy="624" r="2.5"/>
  <circle class="cls-12" cx="596" cy="633" r="2.5"/>
  <circle class="cls-12" cx="718" cy="587" r="2.5"/>
  <circle class="cls-12" cx="602" cy="588" r="2.5"/>
  <circle class="cls-12" cx="578" cy="655" r="2.5"/>
  <circle class="cls-12" cx="726" cy="664" r="2.5"/>
  <circle class="cls-12" cx="702" cy="648" r="2.5"/>
  <circle class="cls-12" cx="713" cy="624" r="2.5"/>
  <circle class="cls-12" cx="615" cy="641" r="2.5"/>
  <circle class="cls-12" cx="604" cy="617" r="2.5"/>
  <circle class="cls-12" cx="580" cy="608" r="2.5"/>
  <circle class="cls-12" cx="546" cy="608" r="2.5"/>
  <circle class="cls-12" cx="535" cy="640" r="2.5"/>
  <circle class="cls-12" cx="557" cy="635" r="2.5"/>
  <circle class="cls-12" cx="573" cy="581" r="2.5"/>
  <circle class="cls-12" cx="741" cy="580" r="2.5"/>
  <circle class="cls-12" cx="762" cy="603" r="2.5"/>
  <circle class="cls-12" cx="756" cy="625" r="2.5"/>
  <circle class="cls-12" cx="746" cy="650" r="2.5"/>
  <circle class="cls-12" cx="754" cy="665" r="2.5"/>
  <circle class="cls-12" cx="552" cy="662" r="2.5"/>
  <circle class="cls-12" cx="782" cy="633" r="2.5"/>
  <circle class="cls-12" cx="780" cy="603" r="2.5"/>
  <circle class="cls-12" cx="529" cy="609" r="2.5"/>
  <path d="M864.2,1249.42c-2.71-11.86-4.43-23.41-6.32-34.88l-2.71-17.12c-.9-5.69-1.83-11.37-2.65-17.24A152.82,152.82,0,0,1,851,1162.1a127.65,127.65,0,0,1,.88-18.25c1.53-12,4.53-23.9,9.93-34.82.5,6.08.66,12,1,17.83s.58,11.6,1,17.32.9,11.38,1.54,17,1.43,11.19,2.22,17,1.51,11.72,1.91,17.71a174.34,174.34,0,0,1,.3,18,165.64,165.64,0,0,1-1.6,17.92A112,112,0,0,1,864.2,1249.42Z"/>
  <path d="M867.17,1244.85c-5.73-6.22-10.72-12.51-15.81-18.66l-7.54-9.18-3.8-4.57-3.82-4.69c-1.26-1.62-2.53-3.27-3.77-5s-2.41-3.5-3.5-5.35a74.86,74.86,0,0,1-5.59-11.5,62.94,62.94,0,0,1-4.39-24.82c2.26,3.6,4.24,7.16,6.33,10.59s4.13,6.81,6.28,10.07,4.34,6.45,6.63,9.51c1.14,1.54,2.3,3.07,3.51,4.58s2.42,3.08,3.68,4.63,2.49,3.19,3.73,4.84,2.45,3.35,3.6,5.09a106.13,106.13,0,0,1,6.34,10.79A81.39,81.39,0,0,1,867.17,1244.85Z"/>
  <path d="M835.35,1301c-4.05-11.46-7.07-22.74-10.26-33.92l-4.64-16.7c-1.54-5.55-3.12-11.09-4.6-16.83a153.7,153.7,0,0,1-3.61-17.78,126.77,126.77,0,0,1-1.2-18.23c.14-12.16,1.77-24.26,5.88-35.73,1.2,6,2,11.83,3,17.6s1.89,11.46,3,17.09,2.2,11.2,3.47,16.69,2.69,11,4.14,16.6,2.83,11.47,3.91,17.38a173.13,173.13,0,0,1,2.35,17.84,163.79,163.79,0,0,1,.46,18A112.89,112.89,0,0,1,835.35,1301Z"/>
  <path d="M832.93,1292.41c-8.32-8.87-15.64-18-23.06-26.92l-11-13.42c-3.65-4.45-7.33-8.89-11-13.54a155.89,155.89,0,0,1-10.47-14.82,126.49,126.49,0,0,1-8.44-16.2c-4.78-11.18-8.16-22.92-9-35.07,3.51,5,6.63,10,9.86,14.89s6.35,9.73,9.61,14.44,6.53,9.37,9.91,13.88,6.87,8.94,10.47,13.53,7.22,9.35,10.59,14.32a176.08,176.08,0,0,1,9.34,15.39,164.36,164.36,0,0,1,7.67,16.28A112.76,112.76,0,0,1,832.93,1292.41Z"/>
  <path d="M755.72,1318c-2-12-3.06-23.62-4.28-35.19l-1.71-17.25c-.56-5.73-1.17-11.46-1.64-17.36a153.52,153.52,0,0,1-.51-18.14,125.39,125.39,0,0,1,1.94-18.17c2.22-11.95,5.91-23.59,11.92-34.19.15,6.11,0,12,0,17.86s-.11,11.62,0,17.35.25,11.41.56,17,.77,11.25,1.23,17.06.82,11.79.88,17.79a174.1,174.1,0,0,1-.75,18,167.11,167.11,0,0,1-2.63,17.8A112.22,112.22,0,0,1,755.72,1318Z"/>
  <path d="M755.91,1304.4c-6.89-10-12.75-20.12-18.74-30.09l-8.82-14.92c-2.93-5-5.9-9.9-8.82-15.05a154.45,154.45,0,0,1-8.11-16.23,126.35,126.35,0,0,1-5.91-17.29c-3-11.77-4.6-23.89-3.61-36,2.71,5.47,5,10.89,7.49,16.21s4.81,10.58,7.33,15.72,5,10.25,7.69,15.22,5.45,9.88,8.31,15,5.73,10.34,8.3,15.76a173.29,173.29,0,0,1,6.92,16.62,166.56,166.56,0,0,1,5.12,17.25A112.33,112.33,0,0,1,755.91,1304.4Z"/>
  <path d="M666.33,1305c-.72-12.14-.51-23.82-.48-35.44l.15-17.33c0-5.77.07-11.52.23-17.45a153.31,153.31,0,0,1,1.44-18.09,126.64,126.64,0,0,1,3.88-17.85c3.49-11.64,8.4-22.83,15.52-32.71-.51,6.08-1.31,11.93-2,17.75s-1.35,11.54-1.85,17.24-1,11.38-1.28,17-.44,11.27-.61,17.09-.44,11.81-1,17.78a175,175,0,0,1-2.66,17.81,166.78,166.78,0,0,1-4.54,17.41A111.25,111.25,0,0,1,666.33,1305Z"/>
  <path d="M665.66,1296.4c-4.59-11.26-8.14-22.38-11.85-33.4l-5.42-16.46c-1.81-5.47-3.64-10.93-5.39-16.6a150.16,150.16,0,0,1-4.45-17.58,126.54,126.54,0,0,1-2.07-18.16c-.43-12.14.63-24.32,4.19-36,1.48,5.92,2.59,11.72,3.85,17.44S647,1187,648.3,1192.6s2.73,11.09,4.26,16.52,3.21,10.81,4.92,16.38,3.37,11.33,4.73,17.17a175,175,0,0,1,3.19,17.72,165.56,165.56,0,0,1,1.31,17.95A113,113,0,0,1,665.66,1296.4Z"/>
  <path d="M610.37,1301.79c.31-12.15,1.5-23.77,2.5-35.35l1.62-17.26c.53-5.74,1-11.47,1.69-17.36a152.8,152.8,0,0,1,3-17.9,126.44,126.44,0,0,1,5.36-17.47c4.46-11.3,10.3-22,18.23-31.29-1,6-2.32,11.78-3.45,17.53s-2.32,11.38-3.3,17-1.94,11.25-2.71,16.84-1.38,11.19-2,17-1.44,11.73-2.53,17.63a172.19,172.19,0,0,1-4.16,17.52,162.65,162.65,0,0,1-6,17A111.21,111.21,0,0,1,610.37,1301.79Z"/>
  <path d="M615.21,1292.12c-4-7.92-7.25-15.58-10.67-23.11l-2.53-5.62-2.55-5.57c-1.7-3.71-3.45-7.4-5.16-11.31a87.92,87.92,0,0,1-4.52-12.47c-.3-1.1-.58-2.19-.81-3.3s-.44-2.22-.63-3.33a62.77,62.77,0,0,1-.79-6.7,56.34,56.34,0,0,1,4.21-26.14c1.07,4.34,1.87,8.49,2.89,12.53s2,8,3.21,11.79,2.49,7.57,3.93,11.22,3.06,7.26,4.71,11.09,3.32,7.86,4.7,12a98.47,98.47,0,0,1,3.3,12.71,89,89,0,0,1,1.5,13A62.09,62.09,0,0,1,615.21,1292.12Z"/>
  <path d="M568.92,1298.25c-.15-12.16.61-23.81,1.18-35.42l1-17.3c.32-5.76.6-11.51,1-17.42a152.47,152.47,0,0,1,2.28-18,125.42,125.42,0,0,1,4.72-17.65c4-11.47,9.46-22.41,17-32-.79,6-1.88,11.86-2.8,17.64s-1.88,11.46-2.66,17.14-1.51,11.31-2.07,16.93-1,11.23-1.41,17-1,11.78-1.87,17.72a175.94,175.94,0,0,1-3.5,17.65,164.32,164.32,0,0,1-5.35,17.19A110.77,110.77,0,0,1,568.92,1298.25Z"/>
  <path d="M570.26,1293.85c-4-11.47-7.07-22.74-10.25-33.93l-4.64-16.7c-1.54-5.55-3.12-11.09-4.6-16.83a155.84,155.84,0,0,1-3.62-17.78,128.13,128.13,0,0,1-1.2-18.23c.14-12.15,1.78-24.26,5.89-35.73,1.19,6,2,11.83,3,17.61s1.89,11.46,3,17.08,2.19,11.21,3.47,16.7,2.69,11,4.13,16.6,2.84,11.47,3.92,17.37a173.32,173.32,0,0,1,2.35,17.85,168.65,168.65,0,0,1,.46,18A111.89,111.89,0,0,1,570.26,1293.85Z"/>
  <path d="M545.7,1244.49c-.61-7.56-.67-14.71-.91-21.82l-.31-10.57-.2-5.29-.15-5.39c0-1.84,0-3.7.06-5.6s.22-3.82.47-5.73a61.84,61.84,0,0,1,2.49-11.23,51.89,51.89,0,0,1,11.22-19.63c-1.06,7.52-2.22,14.47-2.79,21.38-.29,3.45-.5,6.88-.55,10.27,0,1.69-.06,3.39,0,5.12s0,3.48.08,5.26,0,3.61,0,5.47-.1,3.71-.25,5.57a88.15,88.15,0,0,1-1.49,11.12A68.32,68.32,0,0,1,545.7,1244.49Z"/>
  <path d="M518.72,1273.24c.22-12.16,1.33-23.78,2.26-35.37l1.5-17.27c.49-5.74.95-11.48,1.57-17.37a155,155,0,0,1,2.84-17.92,127.82,127.82,0,0,1,5.25-17.5c4.38-11.34,10.15-22.11,18-31.41-1,6-2.24,11.79-3.34,17.54s-2.24,11.4-3.18,17-1.87,11.27-2.59,16.86-1.31,11.2-1.93,17-1.36,11.74-2.42,17.65a172,172,0,0,1-4,17.54,167.54,167.54,0,0,1-5.86,17A112.63,112.63,0,0,1,518.72,1273.24Z"/>
  <path d="M521.13,1270.31c-4-11.47-7.07-22.75-10.25-33.93l-4.64-16.7c-1.54-5.55-3.12-11.09-4.6-16.83a153.7,153.7,0,0,1-3.61-17.78,125.26,125.26,0,0,1-1.2-18.23c.13-12.15,1.77-24.26,5.88-35.73,1.19,6,2,11.83,3,17.61s1.89,11.46,3,17.08,2.19,11.21,3.47,16.7,2.69,11,4.14,16.6,2.83,11.47,3.91,17.37a173.32,173.32,0,0,1,2.35,17.85,166.06,166.06,0,0,1,.46,18A111.89,111.89,0,0,1,521.13,1270.31Z"/>
  <path d="M910.86,1233.8c-6.48-10.29-11.92-20.62-17.49-30.83l-8.21-15.26c-2.73-5.08-5.49-10.13-8.2-15.4a156.14,156.14,0,0,1-7.44-16.55,125.63,125.63,0,0,1-5.19-17.52c-2.55-11.88-3.62-24-2.14-36.14,2.48,5.58,4.59,11.09,6.82,16.5s4.37,10.77,6.68,16,4.61,10.44,7.06,15.52,5,10.09,7.7,15.28,5.3,10.56,7.65,16.08a175.25,175.25,0,0,1,6.23,16.89,165.63,165.63,0,0,1,4.41,17.45A113.19,113.19,0,0,1,910.86,1233.8Z"/>
  <path d="M911.09,1221.18c-4.05-11.47-7.07-22.74-10.26-33.93l-4.64-16.7c-1.54-5.55-3.12-11.08-4.6-16.83a153.7,153.7,0,0,1-3.61-17.78,126.58,126.58,0,0,1-1.2-18.23c.13-12.15,1.77-24.26,5.88-35.72,1.19,6,2,11.83,3,17.6s1.89,11.46,3,17.09,2.2,11.2,3.47,16.69,2.69,11,4.14,16.6,2.83,11.47,3.91,17.37a173.32,173.32,0,0,1,2.35,17.85,163.61,163.61,0,0,1,.46,18A113,113,0,0,1,911.09,1221.18Z"/>
  <path d="M487.87,1249.81c0-11.88.91-23.25,1.62-34.59l1.17-16.89c.39-5.62.75-11.23,1.25-17a151.91,151.91,0,0,1,2.47-17.56,124.67,124.67,0,0,1,4.84-17.18c4.09-11.15,9.55-21.77,17.07-31-.85,5.91-2,11.56-3,17.2s-2,11.17-2.83,16.71-1.63,11-2.24,16.51-1.1,11-1.6,16.63-1.13,11.49-2.07,17.28a170.3,170.3,0,0,1-3.65,17.21,161.43,161.43,0,0,1-5.44,16.72A108.88,108.88,0,0,1,487.87,1249.81Z"/>
  <path d="M796.52,1034.6c-1.29-9.3-1.84-18.29-2.52-27.23L793.06,994l-.48-6.66-.42-6.77c-.12-2.28-.19-4.6-.21-6.94s0-4.71.22-7.06a97.54,97.54,0,0,1,1.93-14,83,83,0,0,1,10.07-26.07c0,4.71-.31,9.26-.47,13.77s-.34,9-.4,13.37-.09,8.8,0,13.15.37,8.68.58,13.17c.09,2.25.2,4.52.26,6.82s.08,4.61,0,6.93a136.72,136.72,0,0,1-1,13.86A104.91,104.91,0,0,1,796.52,1034.6Z"/>
  <path d="M799.15,1031.29c-4-5.16-7.49-10.31-11-15.37s-7-9.93-10.55-15.15c-.87-1.33-1.75-2.68-2.6-4.08s-1.65-2.85-2.37-4.35a56.27,56.27,0,0,1-3.6-9.22,48.12,48.12,0,0,1-1.79-19.43c2.94,5.86,5.5,11.43,8.42,16.72,1.45,2.64,3,5.24,4.52,7.74.79,1.26,1.58,2.51,2.43,3.75s1.68,2.52,2.55,3.8,1.73,2.6,2.58,4,1.68,2.73,2.46,4.14a81.45,81.45,0,0,1,4.23,8.72A62.53,62.53,0,0,1,799.15,1031.29Z"/>
  <path d="M770.49,1072.32c-2.36-9.09-4-18-5.66-26.76l-2.47-13.13-1.25-6.56-1.2-6.67c-.38-2.26-.73-4.56-1-6.88s-.51-4.68-.61-7a97.5,97.5,0,0,1,.3-14.1,82.89,82.89,0,0,1,7-27.07c.51,4.69.77,9.24,1.14,13.74s.69,8.93,1.14,13.32.94,8.76,1.57,13.06,1.37,8.58,2.1,13c.34,2.22.72,4.46,1.05,6.74s.61,4.57.82,6.87a131.55,131.55,0,0,1,.63,13.88A104.52,104.52,0,0,1,770.49,1072.32Z"/>
  <path d="M769.19,1065.54c-5.87-7.36-11-14.82-16.13-22.19l-7.63-11-3.83-5.51-3.82-5.62c-1.27-1.9-2.52-3.87-3.74-5.88s-2.37-4.07-3.43-6.2a97.21,97.21,0,0,1-5.5-13,83.18,83.18,0,0,1-4.72-27.63c2.38,4.08,4.48,8.14,6.66,12.11s4.3,7.9,6.51,11.74,4.44,7.63,6.78,11.31,4.77,7.31,7.25,11.07c1.22,1.9,2.49,3.8,3.72,5.75s2.42,3.94,3.56,6a136.56,136.56,0,0,1,6.25,12.45A105.2,105.2,0,0,1,769.19,1065.54Z"/>
  <path d="M707.18,1080c-.74-9.36-.77-18.37-.92-27.34l-.14-13.36-.09-6.69,0-6.78c0-2.28.08-4.61.2-6.94s.32-4.7.64-7A96.52,96.52,0,0,1,709.59,998a83.19,83.19,0,0,1,11.59-25.44c-.31,4.7-.85,9.23-1.27,13.73s-.88,8.92-1.2,13.32-.6,8.78-.73,13.13-.14,8.69-.2,13.19c0,2.25-.06,4.52-.14,6.82s-.19,4.61-.38,6.92a135.59,135.59,0,0,1-1.8,13.78A104.68,104.68,0,0,1,707.18,1080Z"/>
  <path d="M708.24,1069.6c-4.67-8.15-8.56-16.29-12.53-24.35l-5.86-12-2.94-6-2.92-6.12c-1-2.08-1.9-4.21-2.79-6.37s-1.72-4.39-2.44-6.64a99.16,99.16,0,0,1-3.45-13.7,83.19,83.19,0,0,1-.42-28c1.73,4.38,3.18,8.71,4.73,13s3,8.44,4.63,12.57,3.21,8.2,5,12.19,3.6,7.93,5.47,12c.92,2.05,1.88,4.12,2.79,6.23s1.8,4.26,2.61,6.43a134.33,134.33,0,0,1,4.28,13.24A105,105,0,0,1,708.24,1069.6Z"/>
  <path d="M638.27,1064c.29-9.39,1.25-18.36,2.08-27.29l1.31-13.32.64-6.65L643,1010c.26-2.27.58-4.57,1-6.88s.84-4.64,1.4-6.94a97.42,97.42,0,0,1,4.25-13.46,83,83,0,0,1,14.29-24c-.83,4.64-1.86,9.08-2.76,13.51s-1.84,8.78-2.64,13.12-1.56,8.67-2.16,13-1.1,8.63-1.64,13.1c-.29,2.23-.56,4.49-.88,6.77s-.7,4.56-1.14,6.84a136.35,136.35,0,0,1-3.29,13.51A104.8,104.8,0,0,1,638.27,1064Z"/>
  <path d="M638.33,1057.42c-2.79-9-4.81-17.74-6.94-26.46l-3.1-13-1.57-6.49-1.52-6.61c-.48-2.23-.94-4.51-1.34-6.82s-.72-4.65-.93-7a97.77,97.77,0,0,1-.39-14.1,82.92,82.92,0,0,1,5.68-27.37c.73,4.65,1.2,9.18,1.79,13.66s1.12,8.89,1.78,13.26,1.36,8.69,2.2,13,1.78,8.51,2.72,12.91c.45,2.2.94,4.42,1.37,6.68s.83,4.54,1.15,6.83a133.89,133.89,0,0,1,1.3,13.83A104.84,104.84,0,0,1,638.33,1057.42Z"/>
  <path d="M594.8,1057.86c1.09-9.34,2.81-18.19,4.4-27l2.44-13.16,1.21-6.58,1.3-6.67c.46-2.24,1-4.51,1.54-6.78s1.22-4.55,2-6.79a96.22,96.22,0,0,1,5.38-13.07A83.43,83.43,0,0,1,629.35,955c-1.22,4.56-2.62,8.9-3.9,13.24s-2.59,8.59-3.76,12.86-2.29,8.51-3.26,12.75-1.83,8.52-2.75,12.92c-.48,2.2-.94,4.43-1.46,6.68s-1.08,4.49-1.72,6.72a138,138,0,0,1-4.43,13.19A105.19,105.19,0,0,1,594.8,1057.86Z"/>
  <path d="M599.23,1050.75c-2.57-6.36-4.57-12.45-6.73-18.46-1.06-3-2.1-6-3.18-8.92l-1.64-4.46-1.62-4.57c-.52-1.57-1-3.16-1.51-4.82s-.87-3.35-1.17-5.07a51.34,51.34,0,0,1-.85-10.41,43,43,0,0,1,5-19.82c.94,6.79,1.73,13,3.08,19.09.67,3,1.41,6,2.29,8.87.44,1.45.88,2.9,1.4,4.35s1,3,1.52,4.47,1,3.09,1.52,4.69.94,3.22,1.33,4.86a75.33,75.33,0,0,1,1.73,10A57.39,57.39,0,0,1,599.23,1050.75Z"/>
  <path d="M562.68,1052.37c.73-9.37,2.12-18.28,3.37-27.17l2-13.24,1-6.62,1-6.71q.57-3.39,1.29-6.83c.54-2.29,1.05-4.6,1.73-6.87a97.71,97.71,0,0,1,4.88-13.25,83.24,83.24,0,0,1,15.42-23.34c-1,4.6-2.28,9-3.4,13.37s-2.26,8.68-3.26,13-2,8.59-2.78,12.86-1.5,8.58-2.26,13c-.4,2.22-.77,4.46-1.21,6.73s-.91,4.52-1.46,6.77a134.35,134.35,0,0,1-3.93,13.35A105.21,105.21,0,0,1,562.68,1052.37Z"/>
  <path d="M564,1049.07c-2.36-9.08-3.95-18-5.66-26.75l-2.48-13.14-1.25-6.56-1.2-6.67c-.38-2.25-.72-4.55-1-6.87s-.5-4.68-.6-7a97.64,97.64,0,0,1,.29-14.11,83,83,0,0,1,7-27.06c.51,4.68.76,9.23,1.13,13.73s.69,8.94,1.15,13.33.93,8.75,1.56,13.05,1.38,8.59,2.11,13c.34,2.22.72,4.46,1.05,6.74s.61,4.57.82,6.88a136.88,136.88,0,0,1,.63,13.88A104.86,104.86,0,0,1,564,1049.07Z"/>
  <path d="M525.18,1029.79c1-9.35,2.69-18.21,4.22-27.06l2.35-13.18,1.17-6.59,1.25-6.67q.66-3.37,1.49-6.8c.61-2.27,1.2-4.55,2-6.8a96.69,96.69,0,0,1,5.29-13.1A83.51,83.51,0,0,1,559,926.73c-1.18,4.56-2.56,8.91-3.81,13.26s-2.53,8.61-3.66,12.89-2.24,8.52-3.18,12.77-1.77,8.53-2.66,12.94c-.47,2.2-.91,4.44-1.42,6.68s-1,4.5-1.67,6.73a138,138,0,0,1-4.34,13.22A105.08,105.08,0,0,1,525.18,1029.79Z"/>
  <path d="M527.27,1027.69c-2.35-9.08-3.95-18-5.66-26.75l-2.47-13.14-1.25-6.56-1.2-6.67c-.38-2.25-.73-4.55-1-6.87s-.5-4.68-.6-7a96.23,96.23,0,0,1,.29-14.11,83.15,83.15,0,0,1,7-27.06c.51,4.69.77,9.23,1.14,13.74s.69,8.93,1.14,13.32.94,8.75,1.57,13.05,1.37,8.59,2.1,13c.35,2.23.73,4.47,1.05,6.74s.61,4.57.82,6.88a134,134,0,0,1,.64,13.88A104.87,104.87,0,0,1,527.27,1027.69Z"/>
  <path d="M834,1025.72c-4.33-8.34-7.87-16.63-11.51-24.84l-5.36-12.26-2.68-6.13-2.67-6.24c-.87-2.11-1.72-4.27-2.52-6.47s-1.54-4.46-2.16-6.74a96.66,96.66,0,0,1-2.88-13.82,83.13,83.13,0,0,1,.74-28c1.55,4.46,2.81,8.83,4.18,13.14s2.68,8.56,4.11,12.75,2.87,8.33,4.45,12.38,3.26,8.07,5,12.24c.83,2.09,1.7,4.19,2.53,6.34s1.62,4.32,2.34,6.53a132.29,132.29,0,0,1,3.72,13.4A104.84,104.84,0,0,1,834,1025.72Z"/>
  <path d="M833.7,985.8a39.1,39.1,0,0,1-5.93-10.37,52.5,52.5,0,0,1-3-10.66,42.24,42.24,0,0,1-.49-11.39,27.91,27.91,0,0,1,3.64-11.66,44.63,44.63,0,0,1,5.56,10.5,55.14,55.14,0,0,1,2.9,10.59,45.11,45.11,0,0,1,.53,11.3A30.88,30.88,0,0,1,833.7,985.8Z"/>
  <path d="M833.18,1498.17c-2.71-11.85-4.43-23.4-6.32-34.88l-2.7-17.12c-.9-5.69-1.84-11.37-2.65-17.24a152.46,152.46,0,0,1-1.56-18.08,126,126,0,0,1,.88-18.24c1.52-12.06,4.53-23.9,9.92-34.83.5,6.09.67,12,1,17.83s.57,11.61,1,17.32.91,11.38,1.55,17,1.42,11.19,2.22,17,1.5,11.72,1.9,17.71a174.39,174.39,0,0,1,.31,18,168.39,168.39,0,0,1-1.6,17.93A112.14,112.14,0,0,1,833.18,1498.17Z"/>
  <path d="M836.16,1493.61c-5.74-6.23-10.73-12.51-15.82-18.66l-7.54-9.18L809,1461.2l-3.82-4.7c-1.26-1.62-2.53-3.27-3.77-5s-2.42-3.51-3.5-5.36a74,74,0,0,1-5.59-11.5,62.58,62.58,0,0,1-4.39-24.82c2.26,3.61,4.24,7.16,6.33,10.6s4.13,6.8,6.28,10.06,4.34,6.45,6.63,9.52c1.14,1.53,2.29,3.07,3.51,4.58s2.42,3.07,3.67,4.63,2.5,3.18,3.74,4.84,2.45,3.34,3.6,5.08a106.13,106.13,0,0,1,6.34,10.79A81.35,81.35,0,0,1,836.16,1493.61Z"/>
  <path d="M804.33,1549.77c-4-11.47-7.07-22.75-10.25-33.93l-4.64-16.7c-1.54-5.55-3.12-11.09-4.6-16.83a153.7,153.7,0,0,1-3.61-17.78,125.35,125.35,0,0,1-1.2-18.23c.13-12.15,1.77-24.26,5.88-35.73,1.19,6,2,11.83,3,17.61s1.89,11.46,3,17.08,2.19,11.2,3.47,16.7,2.69,11,4.14,16.6,2.83,11.47,3.91,17.37a173.32,173.32,0,0,1,2.35,17.85,166.06,166.06,0,0,1,.46,18A112,112,0,0,1,804.33,1549.77Z"/>
  <path d="M801.92,1541.16c-8.33-8.87-15.64-18-23.06-26.92l-11-13.41c-3.65-4.46-7.32-8.89-11-13.55a155.89,155.89,0,0,1-10.47-14.82,127.17,127.17,0,0,1-8.45-16.2c-4.77-11.17-8.15-22.92-9-35.07,3.51,5,6.63,10,9.86,14.9s6.35,9.72,9.61,14.43,6.52,9.37,9.9,13.89,6.88,8.93,10.48,13.52,7.22,9.36,10.58,14.32a176.18,176.18,0,0,1,9.35,15.39,166.65,166.65,0,0,1,7.67,16.28A112.76,112.76,0,0,1,801.92,1541.16Z"/>
  <path d="M724.71,1566.7c-2-12-3.06-23.62-4.29-35.19l-1.7-17.24c-.57-5.74-1.17-11.46-1.65-17.37a155.63,155.63,0,0,1-.51-18.14,126.53,126.53,0,0,1,2-18.16c2.21-11.95,5.9-23.6,11.92-34.19.15,6.1,0,12,0,17.86s-.1,11.61,0,17.34.24,11.41.55,17,.78,11.25,1.24,17.07.82,11.78.87,17.78a174.1,174.1,0,0,1-.74,18,164.62,164.62,0,0,1-2.64,17.8A110.78,110.78,0,0,1,724.71,1566.7Z"/>
  <path d="M724.89,1553.15c-6.89-10-12.74-20.12-18.73-30.09l-8.82-14.92c-2.93-5-5.9-9.89-8.82-15.05a155.48,155.48,0,0,1-8.12-16.23,125.85,125.85,0,0,1-5.9-17.29c-3-11.77-4.6-23.89-3.61-36,2.71,5.47,5,10.9,7.49,16.22s4.81,10.57,7.32,15.72,5,10.24,7.7,15.22,5.45,9.87,8.31,14.94,5.72,10.34,8.3,15.76a177,177,0,0,1,6.92,16.62,166,166,0,0,1,5.12,17.26A112.19,112.19,0,0,1,724.89,1553.15Z"/>
  <path d="M635.32,1553.71c-.72-12.14-.51-23.81-.49-35.44l.16-17.33c0-5.76.06-11.52.23-17.45a155.1,155.1,0,0,1,1.43-18.08,125.41,125.41,0,0,1,3.89-17.86c3.48-11.64,8.4-22.82,15.52-32.71-.51,6.08-1.32,11.93-2,17.75s-1.35,11.54-1.86,17.25-1,11.37-1.28,17-.43,11.27-.6,17.1-.45,11.81-1,17.78a172.49,172.49,0,0,1-2.67,17.8,166.91,166.91,0,0,1-4.53,17.42A112.62,112.62,0,0,1,635.32,1553.71Z"/>
  <path d="M634.64,1545.16c-4.58-11.27-8.13-22.39-11.85-33.41l-5.42-16.46c-1.8-5.47-3.64-10.93-5.39-16.59a155,155,0,0,1-4.45-17.59,128,128,0,0,1-2.06-18.15c-.44-12.15.63-24.32,4.19-36,1.47,5.92,2.59,11.72,3.85,17.44s2.43,11.36,3.78,16.93,2.72,11.08,4.26,16.51,3.2,10.81,4.91,16.38,3.38,11.33,4.73,17.17a175,175,0,0,1,3.2,17.72,165.55,165.55,0,0,1,1.3,17.95A110.88,110.88,0,0,1,634.64,1545.16Z"/>
  <path d="M579.36,1550.55c.31-12.16,1.49-23.77,2.5-35.36l1.61-17.26c.54-5.73,1-11.47,1.7-17.36a153.1,153.1,0,0,1,3-17.9,127.3,127.3,0,0,1,5.37-17.46c4.46-11.31,10.3-22,18.22-31.29-1,6-2.31,11.77-3.45,17.52s-2.31,11.38-3.29,17-1.94,11.25-2.71,16.83-1.38,11.2-2,17-1.44,11.73-2.53,17.63a174.7,174.7,0,0,1-4.16,17.51,168.44,168.44,0,0,1-6,17A113.27,113.27,0,0,1,579.36,1550.55Z"/>
  <path d="M584.19,1540.87c-3.93-7.26-7.14-14.25-10.54-21.11l-2.5-5.11-2.54-5.06c-1.69-3.37-3.43-6.73-5.14-10.29a81.5,81.5,0,0,1-4.59-11.46c-.3-1-.6-2-.84-3.06s-.47-2-.67-3.08a54.76,54.76,0,0,1-.87-6.24,49,49,0,0,1,3.84-24.35c1,4,1.8,7.87,2.81,11.58s2,7.31,3.2,10.81,2.49,6.9,3.93,10.21,3.05,6.59,4.71,10.09,3.33,7.18,4.73,11a88.68,88.68,0,0,1,3.4,11.72,79.21,79.21,0,0,1,1.65,12.08A54.26,54.26,0,0,1,584.19,1540.87Z"/>
  <path d="M537.91,1547c-1.39-6.69-2.3-13-3.4-19.14-.54-3.09-1.06-6.14-1.63-9.18s-1.19-6.09-1.72-9.31a65.91,65.91,0,0,1-1-10.15,43.91,43.91,0,0,1,.25-5.26,43.1,43.1,0,0,1,.82-5.17,37.55,37.55,0,0,1,9.38-18.14,147.82,147.82,0,0,0-.82,19c.12,3,.34,6,.72,8.9s.92,5.88,1.42,9,1,6.46,1.2,9.82a69.48,69.48,0,0,1-.07,10.1A52,52,0,0,1,537.91,1547Z"/>
  <path d="M539.25,1542.6c-3.3-4.71-6.1-9.13-9-13.44-1.47-2.15-2.9-4.27-4.38-6.36s-3-4.2-4.5-6.45a52.8,52.8,0,0,1-4.28-7.42,35.42,35.42,0,0,1-1.61-4.16,32.1,32.1,0,0,1-1.08-4.32,26.79,26.79,0,0,1,2.22-17.11,76.3,76.3,0,0,0,5.16,14.82,67.07,67.07,0,0,0,3.54,6.4c1.3,2,2.71,4.1,4.21,6.33a75,75,0,0,1,4.29,7.1,54.85,54.85,0,0,1,3.35,7.8A39.25,39.25,0,0,1,539.25,1542.6Z"/>
  <path d="M879.84,1482.56c-6.47-10.3-11.91-20.63-17.48-30.83l-8.21-15.27c-2.73-5.08-5.49-10.13-8.2-15.4a154.14,154.14,0,0,1-7.44-16.55,125.94,125.94,0,0,1-5.2-17.51c-2.54-11.89-3.62-24.06-2.14-36.15,2.49,5.58,4.59,11.09,6.83,16.51s4.37,10.76,6.67,16,4.62,10.45,7.07,15.52,5,10.09,7.7,15.28,5.29,10.56,7.65,16.08a176.24,176.24,0,0,1,6.23,16.89,166.25,166.25,0,0,1,4.41,17.45A112.16,112.16,0,0,1,879.84,1482.56Z"/>
  <path d="M879,1480a71,71,0,0,1-3.1-7.49c-.91-2.5-1.71-5-2.47-7.49-1.46-5-2.72-10-3.72-15a223.37,223.37,0,0,1-4-30.17,188.32,188.32,0,0,1,.37-30.67,141.67,141.67,0,0,1,2.38-15.42,91.6,91.6,0,0,1,4.59-15.37,71.25,71.25,0,0,1,3,7.54c.88,2.51,1.64,5,2.36,7.52q2.11,7.5,3.57,15a230.43,230.43,0,0,1,3.89,30.12,196.8,196.8,0,0,1-.33,30.6,146.21,146.21,0,0,1-2.21,15.41c-.54,2.57-1.09,5.14-1.81,7.71A72.71,72.71,0,0,1,879,1480Z"/>
  <path d="M640.47,483.54a96.74,96.74,0,0,1-29.67,1.67A102.28,102.28,0,0,1,596,482.75c-1.24-.24-2.44-.61-3.65-.95s-2.43-.66-3.63-1c-2.38-.82-4.78-1.58-7.11-2.54a103.21,103.21,0,0,1-26.08-14.93,97.85,97.85,0,0,1-11-10.11,82.86,82.86,0,0,1-9.21-11.68c8.08,5.74,15.93,11.27,24.15,16.07A178.79,178.79,0,0,0,584.83,470c4.36,1.77,8.82,3.28,13.33,4.67,2.26.68,4.52,1.36,6.81,2s4.59,1.18,6.92,1.71C621.17,480.56,630.68,482,640.47,483.54Z"/>
  <path d="M626,503c-.76-2.64-1.39-5.29-1.94-7.95s-1-5.3-1.48-8l0,.26a89.12,89.12,0,0,0-6.81-18,79.16,79.16,0,0,0-4.8-8.13c-.9-1.3-1.83-2.61-2.78-3.91l-3-3.91c-4-5.19-8.21-10.31-12.51-15.44l-6.47-7.76c-2.16-2.62-4.34-5.26-6.43-8.05a78.69,78.69,0,0,1,9.06,5.08c2.91,1.86,5.7,3.89,8.41,6a110.23,110.23,0,0,1,15,14.41c1.13,1.33,2.24,2.67,3.3,4.08s2.13,2.85,3.1,4.36a57.25,57.25,0,0,1,9.43,30.48l0,.26c-.24,2.68-.49,5.37-.84,8.06S626.55,500.3,626,503Z"/>
  <path d="M627.28,511.22c-.34-1-.66-2-.94-3s-.56-2-.81-3c-.49-2-.95-4-1.34-6l0,.19a65.92,65.92,0,0,0-4.52-11.66,45.78,45.78,0,0,0-7-10c-2.76-3.19-5.75-6.25-8.84-9.28s-6.32-6-9.54-9.25a50.78,50.78,0,0,1,12.38,5.6,58.06,58.06,0,0,1,10.73,8.53,40,40,0,0,1,4.56,5.4,34.86,34.86,0,0,1,1.91,3.07c.57,1.06,1.09,2.14,1.55,3.23a39.7,39.7,0,0,1,3,13.65l0,.18c-.08,2.05-.23,4.1-.42,6.16-.09,1-.22,2.06-.35,3.09S627.47,510.19,627.28,511.22Z"/>
</svg>
